<svg xmlns="http://www.w3.org/2000/svg" xmlns:xlink="http://www.w3.org/1999/xlink" width="218" height="218" viewBox="0 0 218 218">
  <defs>
    <clipPath id="clip-path">
      <rect id="Rectangle_45" data-name="Rectangle 45" width="218" height="218" transform="translate(0.5 0.5)" fill="#fff"/>
    </clipPath>
  </defs>
  <g id="Groupe_50" data-name="Groupe 50" transform="translate(-0.5 -0.5)">
    <g id="Groupe_49" data-name="Groupe 49" clip-path="url(#clip-path)">
      <path id="Tracé_61" data-name="Tracé 61" d="M66.363,26.546V3.319A3.318,3.318,0,0,1,69.682,0h79.634a3.319,3.319,0,0,1,3.32,3.318V26.546h9.954a3.317,3.317,0,0,1,3.318,3.318v73a33.184,33.184,0,1,1,23.228,59.567v49.936h26.545a3.318,3.318,0,0,1,0,6.636H3.318a3.318,3.318,0,0,1,0-6.636H29.863V162.428a33.183,33.183,0,1,1,23.228-59.567v-73a3.317,3.317,0,0,1,3.318-3.318Zm73,185.817h19.909V149.319a33.191,33.191,0,0,1,0-39.823V33.182H59.727V109.5a33.191,33.191,0,0,1,0,39.823v63.044H79.636V169.229a3.318,3.318,0,0,1,3.318-3.318h53.092a3.318,3.318,0,0,1,3.318,3.318ZM73,26.546h73V6.637H73ZM182.5,212.364V162.428a33.023,33.023,0,0,1-16.592-6.471v56.408Zm-129.409,0V155.956A33.023,33.023,0,0,1,36.5,162.427v49.936Zm136.046-65.258v8.643a26.545,26.545,0,1,0-6.636,0v-8.643l-9.291-12.388a3.318,3.318,0,1,1,5.308-3.981l7.3,9.733,7.3-9.733a3.318,3.318,0,0,1,5.31,3.981Zm-152.635,0v8.643a26.545,26.545,0,1,0-6.636,0v-8.643l-9.291-12.388a3.318,3.318,0,1,1,5.31-3.981l7.3,9.733,7.3-9.733a3.318,3.318,0,1,1,5.309,3.981Zm76.317,65.258h19.909V172.545H112.818Zm-26.545,0h19.909V172.545H86.273ZM136.044,73a3.318,3.318,0,0,1,0,6.636H122.771a3.318,3.318,0,0,1,0-6.636ZM96.226,73a3.318,3.318,0,0,1,0,6.636H82.952a3.318,3.318,0,0,1,0-6.636Zm39.819-23.228a3.318,3.318,0,0,1,0,6.636H122.771a3.318,3.318,0,0,1,0-6.636Zm-39.819,0a3.318,3.318,0,0,1,0,6.636H82.952a3.318,3.318,0,0,1,0-6.636Zm39.819,46.455a3.318,3.318,0,0,1,0,6.636H122.771a3.318,3.318,0,0,1,0-6.636Zm-39.819,0a3.318,3.318,0,0,1,0,6.636H82.952a3.318,3.318,0,0,1,0-6.636Zm39.819,23.226a3.319,3.319,0,0,1,0,6.638H122.771a3.319,3.319,0,0,1,0-6.638Zm-39.819,0a3.319,3.319,0,0,1,0,6.638H82.952a3.319,3.319,0,0,1,0-6.638Zm39.819,23.228a3.318,3.318,0,0,1,0,6.636H122.771a3.318,3.318,0,0,1,0-6.636Zm-39.819,0a3.318,3.318,0,0,1,0,6.636H82.952a3.318,3.318,0,0,1,0-6.636Z" transform="translate(0 -0.001)" fill="#fff" fill-rule="evenodd"/>
    </g>
  </g>
</svg>
