<svg xmlns="http://www.w3.org/2000/svg" width="486.237" height="482.981" viewBox="0 0 486.237 482.981">
  <g id="Groupe_56" data-name="Groupe 56" transform="translate(0 0)">
    <path id="Tracé_63" data-name="Tracé 63" d="M213.264,0l-7.853,24.168H180L200.559,39.1l-7.853,24.168,20.559-14.937,20.559,14.937L225.97,39.1l20.559-14.936H221.117Z" transform="translate(29.855)" fill="#fc0"/>
    <path id="Tracé_64" data-name="Tracé 64" d="M205.411,384.168H180L200.558,399.1l-7.852,24.168,20.559-14.936,20.558,14.936L225.97,399.1l20.558-14.936H221.117L213.264,360Z" transform="translate(29.855 59.709)" fill="#fc0"/>
    <path id="Tracé_65" data-name="Tracé 65" d="M25.411,204.168H0L20.558,219.1l-7.852,24.168,20.559-14.936,20.558,14.936L45.97,219.1l20.558-14.936H41.117L33.265,180Z" transform="translate(0 29.855)" fill="#fc0"/>
    <path id="Tracé_66" data-name="Tracé 66" d="M123.264,24.116l-7.852,24.167H90L110.558,63.22l-7.853,24.168,20.559-14.937,20.559,14.937L135.97,63.22l20.559-14.937H131.116Z" transform="translate(14.927 4)" fill="#fc0"/>
    <path id="Tracé_67" data-name="Tracé 67" d="M57.379,90l-7.852,24.167H24.115L44.674,129.1l-7.853,24.168,20.559-14.937,20.559,14.937L70.085,129.1l20.559-14.937H65.231Z" transform="translate(4 14.927)" fill="#fc0"/>
    <path id="Tracé_68" data-name="Tracé 68" d="M65.232,294.168,57.38,270l-7.853,24.167H24.116l20.558,14.937-7.852,24.167L57.38,318.335l20.558,14.937-7.852-24.167,20.558-14.937Z" transform="translate(4 44.782)" fill="#fc0"/>
    <path id="Tracé_69" data-name="Tracé 69" d="M131.116,360.053l-7.852-24.167-7.853,24.167H90l20.558,14.937-7.852,24.167,20.559-14.937,20.558,14.937L135.97,374.99l20.558-14.937Z" transform="translate(14.927 55.71)" fill="#fc0"/>
    <path id="Tracé_70" data-name="Tracé 70" d="M385.411,204.168H360L380.558,219.1l-7.852,24.168,20.559-14.936,20.558,14.936L405.97,219.1l20.558-14.936H401.117L393.264,180Z" transform="translate(59.709 29.855)" fill="#fc0"/>
    <path id="Tracé_71" data-name="Tracé 71" d="M303.264,24.116l-7.852,24.167H270L290.558,63.22l-7.853,24.168,20.559-14.937,20.559,14.937L315.97,63.22l20.559-14.937H311.116Z" transform="translate(44.782 4)" fill="#fc0"/>
    <path id="Tracé_72" data-name="Tracé 72" d="M356.443,129.1l-7.852,24.167,20.558-14.936,20.559,14.936L381.854,129.1l20.559-14.937H377L369.148,90,361.3,114.168H335.884Z" transform="translate(55.71 14.927)" fill="#fc0"/>
    <path id="Tracé_73" data-name="Tracé 73" d="M377,294.168,369.149,270,361.3,294.168H335.885l20.558,14.937-7.852,24.167,20.559-14.937,20.558,14.937-7.852-24.167,20.558-14.937Z" transform="translate(55.71 44.782)" fill="#fc0"/>
    <path id="Tracé_74" data-name="Tracé 74" d="M311.116,360.053l-7.852-24.167-7.853,24.167H270l20.558,14.937-7.852,24.167,20.559-14.937,20.558,14.937L315.97,374.99l20.558-14.937Z" transform="translate(44.782 55.71)" fill="#fc0"/>
  </g>
</svg>
