<svg xmlns="http://www.w3.org/2000/svg" xmlns:xlink="http://www.w3.org/1999/xlink" width="79.904" height="72.384" viewBox="0 0 79.904 72.384">
  <defs>
    <clipPath id="clip-path">
      <rect id="Rectangle_28" data-name="Rectangle 28" width="44.5" height="66.481" fill="none"/>
    </clipPath>
    <clipPath id="clip-path-3">
      <rect id="Rectangle_19" data-name="Rectangle 19" width="43.821" height="65.795" fill="none"/>
    </clipPath>
    <clipPath id="clip-path-4">
      <rect id="Rectangle_20" data-name="Rectangle 20" width="43.809" height="55.08" fill="none"/>
    </clipPath>
    <clipPath id="clip-path-5">
      <rect id="Rectangle_21" data-name="Rectangle 21" width="6.267" height="19.535" fill="none"/>
    </clipPath>
    <clipPath id="clip-path-6">
      <rect id="Rectangle_22" data-name="Rectangle 22" width="11.243" height="33.558" fill="none"/>
    </clipPath>
  </defs>
  <g id="Groupe_41" data-name="Groupe 41" transform="translate(0 38.144) rotate(-59)">
    <g id="Groupe_40" data-name="Groupe 40" clip-path="url(#clip-path)">
      <g id="Groupe_39" data-name="Groupe 39" transform="translate(0 0)">
        <g id="Groupe_38" data-name="Groupe 38" clip-path="url(#clip-path)">
          <path id="Tracé_24" data-name="Tracé 24" d="M27.819.263C20.735.717,14.485,4.739,9.973,10.349A48.261,48.261,0,0,0,2.2,24.948a40.367,40.367,0,0,0-.927,21.787C2.715,53.212,6.421,61.617,12.86,64.709a14.155,14.155,0,0,0,16.986-4.149c5.8-7.112,5.682-15.874,6.958-24.5a49.768,49.768,0,0,1,2.745-10.183c1.86-4.948,5.45-10.245,4.244-15.74S37,1,31.64.366a21.3,21.3,0,0,0-3.822-.1" transform="translate(0.119 0.123)" fill="#8e453c"/>
          <path id="Tracé_25" data-name="Tracé 25" d="M18.723,66.481h0a13.478,13.478,0,0,1-5.889-1.34C6.455,62.08,2.569,53.728,1.061,46.932A40.936,40.936,0,0,1,2,24.961,48.325,48.325,0,0,1,9.826,10.254C14.774,4.1,21.2.473,27.916.044a21.612,21.612,0,0,1,3.882.1c5.227.615,11.18,4.264,12.448,10.041.938,4.267-.908,8.341-2.7,12.279-.572,1.263-1.112,2.458-1.563,3.65a49.121,49.121,0,0,0-2.726,10.114c-.238,1.609-.432,3.251-.617,4.837C35.8,48.256,35.008,55.043,30.231,60.9a15.055,15.055,0,0,1-11.508,5.58M29.275.685c-.441,0-.88.014-1.315.042-6.523.418-12.773,3.954-17.6,9.958A47.647,47.647,0,0,0,2.647,25.18a40.281,40.281,0,0,0-.916,21.6c1.474,6.637,5.242,14.781,11.4,17.74a12.827,12.827,0,0,0,5.593,1.27A14.365,14.365,0,0,0,29.7,60.467c4.649-5.705,5.432-12.393,6.264-19.477.185-1.591.379-3.237.618-4.858a49.736,49.736,0,0,1,2.764-10.254c.458-1.215,1-2.419,1.581-3.694,1.739-3.837,3.536-7.805,2.648-11.851C42.377,4.87,36.7,1.419,31.719.829A21.434,21.434,0,0,0,29.275.685" transform="translate(0 0)" fill="#591d00"/>
          <g id="Groupe_16" data-name="Groupe 16" transform="translate(0.334 0.343)" opacity="0.4" style="mix-blend-mode: multiply;isolation: isolate">
            <g id="Groupe_15" data-name="Groupe 15">
              <g id="Groupe_14" data-name="Groupe 14" clip-path="url(#clip-path-3)">
                <path id="Tracé_26" data-name="Tracé 26" d="M43.793,10.137C42.589,4.656,37,1,31.64.366a21.279,21.279,0,0,0-3.82-.1C20.736.717,14.486,4.739,9.974,10.349A48.3,48.3,0,0,0,2.2,24.948a40.382,40.382,0,0,0-.925,21.787C2.716,53.212,6.42,61.617,12.861,64.709a14.156,14.156,0,0,0,16.986-4.149c5.8-7.112,5.682-15.874,6.956-24.5a49.872,49.872,0,0,1,2.747-10.183c1.859-4.948,5.448-10.245,4.244-15.74M33.086,21.22a36.239,36.239,0,0,0-4.512,14.66c-.419,4.216-.566,8.684-2.116,12.68-1.27,3.267-3.628,6.788-7.294,7.6a10.493,10.493,0,0,1-9.08-2.639c-2.37-2.058-4.331-5.886-5.291-8.819C3.077,39.453,3.565,33.813,4.35,28.44A33.1,33.1,0,0,1,9.493,14.115,29.2,29.2,0,0,1,18.243,5.9c4.52-2.627,11.2-4.326,16.112-1.675,7.141,3.854,1.486,12.2-1.27,17" transform="translate(-0.214 -0.22)" fill="#8e453c"/>
              </g>
            </g>
          </g>
          <g id="Groupe_19" data-name="Groupe 19" transform="translate(0.337 11.059)" opacity="0.4" style="mix-blend-mode: multiply;isolation: isolate">
            <g id="Groupe_18" data-name="Groupe 18">
              <g id="Groupe_17" data-name="Groupe 17" clip-path="url(#clip-path-4)">
                <path id="Tracé_27" data-name="Tracé 27" d="M43.925,7.1a9.463,9.463,0,0,1-3.473,7.364c-1.792,1.327-3.741,2.264-5.275,3.951a15.683,15.683,0,0,0-3.3,5.453,19.589,19.589,0,0,0,.442,14.222c.615,1.452-.288,3.846-.72,5.221-.6,1.916-1.066,3.9-1.787,5.772-1.273,3.306-3.23,6.7-6.468,8.425a11.655,11.655,0,0,1-10.665.382c-3.565-1.834-6.183-5.13-8.131-8.562A35.826,35.826,0,0,1,.217,33.159,43.576,43.576,0,0,0,1.277,42.9c1.438,6.475,5.143,14.88,11.583,17.974a14.16,14.16,0,0,0,16.986-4.149c5.8-7.113,5.682-15.874,6.956-24.5a49.9,49.9,0,0,1,2.747-10.183c1.77-4.706,5.1-9.732,4.376-14.94" transform="translate(-0.216 -7.098)" fill="#8e453c"/>
              </g>
            </g>
          </g>
          <path id="Tracé_28" data-name="Tracé 28" d="M27.951,13.368c-1.5.153-2.638,2.324-3.331,3.427a20.491,20.491,0,0,0-2.064,4.7c-.288.914-.528,1.852-.735,2.787a22.452,22.452,0,0,0-.586,4.387c-.02.925.061,5.834,2.137,4.155,1.052-.851,1.131-2.567,1.334-3.8a43.3,43.3,0,0,1,2.377-8.765c.259-.665.545-1.316.84-1.968a10.97,10.97,0,0,0,1.094-2.8c.107-.742.026-2.245-1.066-2.133" transform="translate(11.846 7.455)" fill="#d3d9b6"/>
          <path id="Tracé_29" data-name="Tracé 29" d="M22.718,33.641h0a1.062,1.062,0,0,1-.766-.341c-.983-1-.943-4.155-.936-4.51a22.685,22.685,0,0,1,.6-4.454c.221-1,.47-1.949.743-2.817a20.522,20.522,0,0,1,2.1-4.784c.076-.122.16-.257.248-.4.731-1.206,1.84-3.029,3.337-3.183a1.146,1.146,0,0,1,1.03.393,3.048,3.048,0,0,1,.41,2.133,7.765,7.765,0,0,1-.816,2.248c-.1.213-.209.425-.3.64-.324.723-.589,1.329-.832,1.955a43.214,43.214,0,0,0-2.359,8.695c-.03.182-.058.375-.086.576-.167,1.168-.372,2.624-1.369,3.429a1.6,1.6,0,0,1-.994.424m5.468-19.814a.673.673,0,0,0-.078,0c-1.158.118-2.159,1.767-2.821,2.857-.09.148-.174.287-.252.411a19.723,19.723,0,0,0-2.027,4.624c-.268.848-.513,1.778-.729,2.758A21.942,21.942,0,0,0,21.7,28.8c-.028,1.282.145,3.409.74,4.016a.362.362,0,0,0,.276.134h0a1,1,0,0,0,.562-.27c.788-.636.964-1.888,1.122-2.993.03-.206.058-.405.089-.592a43.971,43.971,0,0,1,2.4-8.833c.246-.637.517-1.254.846-1.985.1-.22.2-.439.312-.659a7.281,7.281,0,0,0,.756-2.047,2.294,2.294,0,0,0-.252-1.588.447.447,0,0,0-.361-.16" transform="translate(11.723 7.332)" fill="#ca9f75"/>
          <g id="Groupe_22" data-name="Groupe 22" transform="translate(34.63 21.033)" opacity="0.4" style="mix-blend-mode: multiply;isolation: isolate">
            <g id="Groupe_21" data-name="Groupe 21">
              <g id="Groupe_20" data-name="Groupe 20" clip-path="url(#clip-path-5)">
                <path id="Tracé_30" data-name="Tracé 30" d="M28.061,13.5a35.587,35.587,0,0,0-2.493,3.859,30.386,30.386,0,0,0-2.1,5.933,41.517,41.517,0,0,0-1.1,6.3,14.389,14.389,0,0,0-.058,3.443,1.632,1.632,0,0,0,.506-.285c1.05-.849,1.128-2.567,1.332-3.8a43.523,43.523,0,0,1,2.376-8.765c.26-.665.547-1.316.841-1.968a10.97,10.97,0,0,0,1.094-2.8,2.461,2.461,0,0,0-.4-1.922" transform="translate(-22.229 -13.501)" fill="#d3d9b6"/>
              </g>
            </g>
          </g>
          <g id="Groupe_25" data-name="Groupe 25" transform="translate(4.859 9.401)" opacity="0.6" style="mix-blend-mode: screen;isolation: isolate">
            <g id="Groupe_24" data-name="Groupe 24">
              <g id="Groupe_23" data-name="Groupe 23" clip-path="url(#clip-path-6)">
                <path id="Tracé_31" data-name="Tracé 31" d="M7.2,18.994a38.226,38.226,0,0,1,7.166-12.96A28.439,28.439,0,0,0,5.291,19.161c-2,6.176-3.267,14.165-.851,20.432.022-6.909.67-14.1,2.756-20.6" transform="translate(-3.119 -6.034)" fill="#8e453c"/>
              </g>
            </g>
          </g>
          <path id="Tracé_32" data-name="Tracé 32" d="M27.819.263C20.735.717,14.485,4.739,9.973,10.349A48.261,48.261,0,0,0,2.2,24.948a40.367,40.367,0,0,0-.927,21.787C2.715,53.212,6.421,61.617,12.86,64.709a14.155,14.155,0,0,0,16.986-4.149c5.8-7.112,5.682-15.874,6.958-24.5a49.768,49.768,0,0,1,2.745-10.183c1.86-4.948,5.45-10.245,4.244-15.74S37,1,31.64.366a21.3,21.3,0,0,0-3.822-.1" transform="translate(0.119 0.123)" fill="#8e453c"/>
          <path id="Tracé_33" data-name="Tracé 33" d="M18.723,66.481h0a13.478,13.478,0,0,1-5.889-1.34C6.455,62.08,2.569,53.728,1.061,46.932A40.936,40.936,0,0,1,2,24.961,48.325,48.325,0,0,1,9.826,10.254C14.774,4.1,21.2.473,27.916.044a21.612,21.612,0,0,1,3.882.1c5.227.615,11.18,4.264,12.448,10.041.938,4.267-.908,8.341-2.7,12.279-.572,1.263-1.112,2.458-1.563,3.65a49.121,49.121,0,0,0-2.726,10.114c-.238,1.609-.432,3.251-.617,4.837C35.8,48.256,35.008,55.043,30.231,60.9a15.055,15.055,0,0,1-11.508,5.58M29.275.685c-.441,0-.88.014-1.315.042-6.523.418-12.773,3.954-17.6,9.958A47.647,47.647,0,0,0,2.647,25.18a40.281,40.281,0,0,0-.916,21.6c1.474,6.637,5.242,14.781,11.4,17.74a12.827,12.827,0,0,0,5.593,1.27A14.365,14.365,0,0,0,29.7,60.467c4.649-5.705,5.432-12.393,6.264-19.477.185-1.591.379-3.237.618-4.858a49.736,49.736,0,0,1,2.764-10.254c.458-1.215,1-2.419,1.581-3.694,1.739-3.837,3.536-7.805,2.648-11.851C42.377,4.87,36.7,1.419,31.719.829A21.434,21.434,0,0,0,29.275.685" transform="translate(0 0)" fill="#591d00"/>
          <g id="Groupe_28" data-name="Groupe 28" transform="translate(0.334 0.343)" opacity="0.4" style="mix-blend-mode: multiply;isolation: isolate">
            <g id="Groupe_27" data-name="Groupe 27">
              <g id="Groupe_26" data-name="Groupe 26" clip-path="url(#clip-path-3)">
                <path id="Tracé_34" data-name="Tracé 34" d="M43.793,10.137C42.589,4.656,37,1,31.64.366a21.279,21.279,0,0,0-3.82-.1C20.736.717,14.486,4.739,9.974,10.349A48.3,48.3,0,0,0,2.2,24.948a40.382,40.382,0,0,0-.925,21.787C2.716,53.212,6.42,61.617,12.861,64.709a14.156,14.156,0,0,0,16.986-4.149c5.8-7.112,5.682-15.874,6.956-24.5a49.872,49.872,0,0,1,2.747-10.183c1.859-4.948,5.448-10.245,4.244-15.74M33.086,21.22a36.239,36.239,0,0,0-4.512,14.66c-.419,4.216-.566,8.684-2.116,12.68-1.27,3.267-3.628,6.788-7.294,7.6a10.493,10.493,0,0,1-9.08-2.639c-2.37-2.058-4.331-5.886-5.291-8.819C3.077,39.453,3.565,33.813,4.35,28.44A33.1,33.1,0,0,1,9.493,14.115,29.2,29.2,0,0,1,18.243,5.9c4.52-2.627,11.2-4.326,16.112-1.675,7.141,3.854,1.486,12.2-1.27,17" transform="translate(-0.214 -0.22)" fill="#8e453c"/>
              </g>
            </g>
          </g>
          <g id="Groupe_31" data-name="Groupe 31" transform="translate(0.337 11.059)" opacity="0.4" style="mix-blend-mode: multiply;isolation: isolate">
            <g id="Groupe_30" data-name="Groupe 30">
              <g id="Groupe_29" data-name="Groupe 29" clip-path="url(#clip-path-4)">
                <path id="Tracé_35" data-name="Tracé 35" d="M43.925,7.1a9.463,9.463,0,0,1-3.473,7.364c-1.792,1.327-3.741,2.264-5.275,3.951a15.683,15.683,0,0,0-3.3,5.453,19.589,19.589,0,0,0,.442,14.222c.615,1.452-.288,3.846-.72,5.221-.6,1.916-1.066,3.9-1.787,5.772-1.273,3.306-3.23,6.7-6.468,8.425a11.655,11.655,0,0,1-10.665.382c-3.565-1.834-6.183-5.13-8.131-8.562A35.826,35.826,0,0,1,.217,33.159,43.576,43.576,0,0,0,1.277,42.9c1.438,6.475,5.143,14.88,11.583,17.974a14.16,14.16,0,0,0,16.986-4.149c5.8-7.113,5.682-15.874,6.956-24.5a49.9,49.9,0,0,1,2.747-10.183c1.77-4.706,5.1-9.732,4.376-14.94" transform="translate(-0.216 -7.098)" fill="#8e453c"/>
              </g>
            </g>
          </g>
          <path id="Tracé_36" data-name="Tracé 36" d="M27.951,13.368c-1.5.153-2.638,2.324-3.331,3.427a20.491,20.491,0,0,0-2.064,4.7c-.288.914-.528,1.852-.735,2.787a22.452,22.452,0,0,0-.586,4.387c-.02.925.061,5.834,2.137,4.155,1.052-.851,1.131-2.567,1.334-3.8a43.3,43.3,0,0,1,2.377-8.765c.259-.665.545-1.316.84-1.968a10.97,10.97,0,0,0,1.094-2.8c.107-.742.026-2.245-1.066-2.133" transform="translate(11.846 7.455)" fill="#d3d9b6"/>
          <path id="Tracé_37" data-name="Tracé 37" d="M22.718,33.641h0a1.062,1.062,0,0,1-.766-.341c-.983-1-.943-4.155-.936-4.51a22.685,22.685,0,0,1,.6-4.454c.221-1,.47-1.949.743-2.817a20.522,20.522,0,0,1,2.1-4.784c.076-.122.16-.257.248-.4.731-1.206,1.84-3.029,3.337-3.183a1.146,1.146,0,0,1,1.03.393,3.048,3.048,0,0,1,.41,2.133,7.765,7.765,0,0,1-.816,2.248c-.1.213-.209.425-.3.64-.324.723-.589,1.329-.832,1.955a43.214,43.214,0,0,0-2.359,8.695c-.03.182-.058.375-.086.576-.167,1.168-.372,2.624-1.369,3.429a1.6,1.6,0,0,1-.994.424m5.468-19.814a.673.673,0,0,0-.078,0c-1.158.118-2.159,1.767-2.821,2.857-.09.148-.174.287-.252.411a19.723,19.723,0,0,0-2.027,4.624c-.268.848-.513,1.778-.729,2.758A21.942,21.942,0,0,0,21.7,28.8c-.028,1.282.145,3.409.74,4.016a.362.362,0,0,0,.276.134h0a1,1,0,0,0,.562-.27c.788-.636.964-1.888,1.122-2.993.03-.206.058-.405.089-.592a43.971,43.971,0,0,1,2.4-8.833c.246-.637.517-1.254.846-1.985.1-.22.2-.439.312-.659a7.281,7.281,0,0,0,.756-2.047,2.294,2.294,0,0,0-.252-1.588.447.447,0,0,0-.361-.16" transform="translate(11.723 7.332)" fill="#ca9f75"/>
          <g id="Groupe_34" data-name="Groupe 34" transform="translate(34.63 21.033)" opacity="0.4" style="mix-blend-mode: multiply;isolation: isolate">
            <g id="Groupe_33" data-name="Groupe 33">
              <g id="Groupe_32" data-name="Groupe 32" clip-path="url(#clip-path-5)">
                <path id="Tracé_38" data-name="Tracé 38" d="M28.061,13.5a35.587,35.587,0,0,0-2.493,3.859,30.386,30.386,0,0,0-2.1,5.933,41.517,41.517,0,0,0-1.1,6.3,14.389,14.389,0,0,0-.058,3.443,1.632,1.632,0,0,0,.506-.285c1.05-.849,1.128-2.567,1.332-3.8a43.523,43.523,0,0,1,2.376-8.765c.26-.665.547-1.316.841-1.968a10.97,10.97,0,0,0,1.094-2.8,2.461,2.461,0,0,0-.4-1.922" transform="translate(-22.229 -13.501)" fill="#d3d9b6"/>
              </g>
            </g>
          </g>
          <g id="Groupe_37" data-name="Groupe 37" transform="translate(4.859 9.401)" opacity="0.6" style="mix-blend-mode: screen;isolation: isolate">
            <g id="Groupe_36" data-name="Groupe 36">
              <g id="Groupe_35" data-name="Groupe 35" clip-path="url(#clip-path-6)">
                <path id="Tracé_39" data-name="Tracé 39" d="M7.2,18.994a38.226,38.226,0,0,1,7.166-12.96A28.439,28.439,0,0,0,5.291,19.161c-2,6.176-3.267,14.165-.851,20.432.022-6.909.67-14.1,2.756-20.6" transform="translate(-3.119 -6.034)" fill="#8e453c"/>
              </g>
            </g>
          </g>
        </g>
      </g>
    </g>
  </g>
</svg>
