<svg xmlns="http://www.w3.org/2000/svg" width="309.889" height="586.678" viewBox="0 0 309.889 586.678">
  <g id="Groupe_833" data-name="Groupe 833" transform="translate(-627 -431.923)">
    <rect id="Rectangle_105" data-name="Rectangle 105" width="270.892" height="424.897" transform="translate(627 593.704)" fill="#e8e8e8"/>
    <rect id="Rectangle_106" data-name="Rectangle 106" width="48.075" height="514.867" transform="translate(888.814 503.734)" fill="#d2d1d1"/>
    <rect id="Rectangle_107" data-name="Rectangle 107" width="22.9" height="586.678" transform="translate(913.989 431.923)" fill="#5d5c5c"/>
    <path id="Tracé_1258" data-name="Tracé 1258" d="M161.459,380.932c-1.522-.282-3.52-.43-4.17-1.352-.976-1.386.243-3.4,3.437-3.213a3.244,3.244,0,0,1,3.324,3.269h4.17a6.323,6.323,0,0,0-1.635-4.395,9.648,9.648,0,0,0-8.112-2.2c-2.03.281-4.734,1.464-5.636,4.113a5.31,5.31,0,0,0,1.521,5.916c1.916,1.466,5.512,1.9,6.988,2.2,1.783.357,3.108.6,2.888,2.492-.232,1.995-3.323,2.562-5.368,1.9-1.458-.471-2.085-1.635-2.367-3.212H152.1a7.134,7.134,0,0,0,2.393,5.076,9.332,9.332,0,0,0,6.158,1.941c3.079,0,5.627-.794,7.17-3.073a6.388,6.388,0,0,0,.281-6.422c-1.239-2.142-4.057-2.593-6.648-3.044" transform="translate(627 276)" fill="#002535"/>
    <path id="Tracé_1259" data-name="Tracé 1259" d="M146.92,375.691a9.033,9.033,0,0,0-8.113-2.706c-5.984.952-7.45,6.622-7.72,8.454-.507,3.429.507,9.184,6.537,11.439a9.807,9.807,0,0,0,9.071-1.3,8.925,8.925,0,0,0,3.155-5.242h-5.015a3.985,3.985,0,0,1-1.464,2.255,4.637,4.637,0,0,1-5.354-.226c-1.522-1.126-2.085-2.985-2.085-5.635,0-3.668,1.687-5.841,4.6-5.841a4.084,4.084,0,0,1,4.136,4.151h-7.1v3.55H149.85a13,13,0,0,0-2.93-8.9" transform="translate(627 276)" fill="#002535"/>
    <path id="Tracé_1260" data-name="Tracé 1260" d="M188.527,388.016V381.93a30.319,30.319,0,0,0-.395-4.621,5.417,5.417,0,0,0-2.875-3.552c-1.53-.762-2.708-.9-5.2-.9-3.744,0-7.775,1.3-7.948,6.706h4.507c0-1.955,1.355-3.11,3.428-3.11,2.029,0,3.75,1.093,3.354,2.885s-3.705,1.859-5.82,2.141c-2.452.327-5.748,1.465-6.536,4.9a5.65,5.65,0,0,0,2.027,5.466,7.566,7.566,0,0,0,4.9,1.522,8.958,8.958,0,0,0,5.876-2.2,6.24,6.24,0,0,0,.563,1.635h4.733c-.733-1.466-.619-3.738-.619-4.79m-5.073-.732c-.409,1.177-1.514,2.041-3.606,2.316-2.76.362-4.645-1.351-3.452-3.557s5.612-1.43,7.284-3.043a22.073,22.073,0,0,1-.226,4.284" transform="translate(627 276)" fill="#002535"/>
    <path id="Tracé_1261" data-name="Tracé 1261" d="M114.783,393.916c-7.986-2.757-9.464-10.145-7.473-15.317a9.288,9.288,0,0,1,13.779-4.12c4.833,3.466,4.32,10.115,4.32,10.115H113.021v-3.55h7.189a3.553,3.553,0,0,0-1-2.7,4.321,4.321,0,0,0-5.37-.881c-1.854,1.066-3.125,4.869-2.132,8.212s4.028,4.671,6.949,4.671c4.231,0,7.379-2.924,7.386-7.712a17.73,17.73,0,1,0-4.222,11.463,11.335,11.335,0,0,1-7.043-.181M99.09,384.842a2.023,2.023,0,1,1,2.023-2.023,2.023,2.023,0,0,1-2.023,2.023" transform="translate(627 276)" fill="#002535"/>
  </g>
</svg>
