<svg id="Groupe_122" data-name="Groupe 122" xmlns="http://www.w3.org/2000/svg" xmlns:xlink="http://www.w3.org/1999/xlink" width="364.527" height="363.65" viewBox="0 0 364.527 363.65">
  <defs>
    <clipPath id="clip-path">
      <rect id="Rectangle_227" data-name="Rectangle 227" width="364.527" height="363.65" fill="none"/>
    </clipPath>
  </defs>
  <g id="Groupe_121" data-name="Groupe 121" clip-path="url(#clip-path)">
    <path id="Tracé_1868" data-name="Tracé 1868" d="M33.017,212.484a4.486,4.486,0,0,0-2.613.862c-2.965,2.079-3.84,6.158-2.341,10.908,1.6,5.073,5.964,10.21,11.2,10.21h0a8.348,8.348,0,0,0,3.162-.638c2.835-1.151,2.548-4.956,2.125-7.122-1.26-6.441-6.685-14.22-11.535-14.22" transform="translate(2.022 15.709)" fill="#ffd289"/>
    <path id="Tracé_1869" data-name="Tracé 1869" d="M46.09,98.466c-4.424,0-10.12,2.591-11.951,5.435a2.583,2.583,0,0,0-.361,2.557c.831,1.829,3.31,2.921,6.629,2.921,3.757,0,7.533-1.43,9.4-3.558a4.957,4.957,0,0,0,1.28-4.061c-.363-2.723-2.916-3.295-4.994-3.295" transform="translate(2.483 7.28)" fill="#ffe29d"/>
    <path id="Tracé_1870" data-name="Tracé 1870" d="M40.445,109.953h0c-3.538,0-6.2-1.21-7.119-3.236a3.087,3.087,0,0,1,.4-3.069c1.915-2.974,7.827-5.682,12.4-5.682,3.241,0,5.2,1.336,5.525,3.761a5.469,5.469,0,0,1-1.409,4.486c-1.958,2.237-5.9,3.741-9.8,3.741M46.127,99.04c-4.193,0-9.781,2.523-11.5,5.189a2.065,2.065,0,0,0-.323,2.045c.742,1.63,3.037,2.605,6.142,2.605,3.611,0,7.224-1.356,8.991-3.374a4.441,4.441,0,0,0,1.152-3.635c-.249-1.878-1.751-2.83-4.461-2.83" transform="translate(2.446 7.243)" fill="#ffe29d"/>
    <path id="Tracé_1871" data-name="Tracé 1871" d="M128.66,304.649c-5.538,0-10.123,1.277-11.965,3.335a3.42,3.42,0,0,0-.916,2.791c.568,5.121,8.158,8.179,15.166,8.18h0c5.574,0,11.895-2.014,12.923-7.663a2.9,2.9,0,0,0-.727-2.48c-2.046-2.452-8-4.164-14.482-4.164" transform="translate(8.558 22.523)" fill="#ffd289"/>
    <path id="Tracé_1872" data-name="Tracé 1872" d="M83.6,141.468c-4.966,0-10.069,2.053-13,5.231a9.91,9.91,0,0,0-2.748,7.654c.454,5.671,6.056,7.693,11.146,7.693h0c5.692,0,11.376-2.338,14.145-5.817A8.288,8.288,0,0,0,94.8,148.89c-1.073-4.647-5.261-7.422-11.2-7.422" transform="translate(5.014 10.459)" fill="#ffe29d"/>
    <path id="Tracé_1873" data-name="Tracé 1873" d="M79.038,162.62h-.005c-5.331,0-11.2-2.151-11.68-8.187a10.422,10.422,0,0,1,2.888-8.061c3.031-3.283,8.289-5.4,13.4-5.4,6.211,0,10.594,2.931,11.726,7.838A8.8,8.8,0,0,1,93.6,156.6c-2.865,3.6-8.717,6.02-14.561,6.02m4.6-20.578c-4.822,0-9.772,1.986-12.608,5.058a9.382,9.382,0,0,0-2.608,7.247c.425,5.307,5.758,7.2,10.61,7.2h0c5.535,0,11.05-2.256,13.722-5.615a7.77,7.77,0,0,0,1.558-6.884c-1.012-4.387-5-7.005-10.679-7.005" transform="translate(4.977 10.422)" fill="#ffe29d"/>
    <path id="Tracé_1874" data-name="Tracé 1874" d="M34.1,239.892a3.7,3.7,0,0,0-.659.061c-1.914.348-1.992,2.7-1.868,4.079.4,4.493,3.6,9.617,6,9.618a1.738,1.738,0,0,0,.986-.318c2.225-1.484,2.131-4.929,1.374-7.429-.876-2.9-3.076-6.011-5.831-6.011" transform="translate(2.331 17.736)" fill="#ffd289"/>
    <path id="Tracé_1875" data-name="Tracé 1875" d="M153.251,122.88a14.6,14.6,0,0,0,1.478-14.418c-4.175-10.135-15.345-11.648-21.631-11.648-13.4,0-27.718,6.34-34.039,15.077-3.3,4.566-4.17,9.338-2.574,14.182,2.482,7.536,10.546,11.858,22.122,11.858,14.005,0,28.9-6.47,34.645-15.052" transform="translate(7.076 7.158)" fill="#ffd289"/>
    <path id="Tracé_1876" data-name="Tracé 1876" d="M161.646,67.884h0c6.078,0,12.178-2.173,14.837-5.284a5.487,5.487,0,0,0,1.422-4.553c-1.043-6.609-8.074-7.322-11.05-7.322-6.508,0-13.672,2.964-16.311,6.749a4.949,4.949,0,0,0-.771,4.736c1.309,3.553,5.747,5.675,11.871,5.675" transform="translate(11.051 3.75)" fill="#ffd289"/>
    <path id="Tracé_1877" data-name="Tracé 1877" d="M306.076,102.664a3.158,3.158,0,0,0,2.327-.861,3.453,3.453,0,0,0,.847-4.095c-1.572-3.8-8.091-7.369-12-7.369a2.669,2.669,0,0,0-2.42,1.008c-.751,1.352.088,3.17.655,4.134,2.211,3.76,7.257,7.184,10.586,7.184" transform="translate(21.776 6.679)" fill="#ffd289"/>
    <path id="Tracé_1878" data-name="Tracé 1878" d="M209.421,161.51c3.183,0,6.674-1.421,6.923-5.409a4.427,4.427,0,0,0-1.172-3.447c-1.289-1.372-3.666-2.192-6.358-2.192-2.9,0-5.662.954-7.027,2.428a3.376,3.376,0,0,0-.961,2.629c.289,3.75,4.6,5.991,8.595,5.991" transform="translate(14.847 11.124)" fill="#ffd289"/>
    <path id="Tracé_1879" data-name="Tracé 1879" d="M161.424,177.172c3.637,4.484,12.673,7.738,21.485,7.739h0c4.729,0,8.749-.948,11.629-2.744a9.821,9.821,0,0,0,4.858-8.833c0-10.463-9.861-15.938-19.6-15.938-7.784,0-17.667,3.77-19.9,14.392a6.271,6.271,0,0,0,1.533,5.385" transform="translate(11.812 11.637)" fill="#ffd289"/>
    <path id="Tracé_1880" data-name="Tracé 1880" d="M185.635,259.224c-15.472,0-34.282,4.719-36.369,18.018-.481,3.071.637,6.221,3.324,9.361,7.628,8.922,25.953,15.65,42.624,15.651h.005c9.083,0,25.07-2.115,30.127-16.274,1.747-4.9,1.227-9.38-1.549-13.319-5.664-8.038-21-13.438-38.163-13.438" transform="translate(11.027 19.165)" fill="#ffd289"/>
    <path id="Tracé_1881" data-name="Tracé 1881" d="M104.148,40.94c6.628,0,15.872-4.447,19.392-9.331,1.206-1.673,1.592-3.2,1.145-4.542-.749-2.243-2.8-3.381-6.11-3.381-7.04,0-17.2,5.275-20.129,10.453a4.034,4.034,0,0,0-.278,4.246c1.267,2.111,3.951,2.554,5.98,2.555" transform="translate(7.222 1.751)" fill="#ffd289"/>
    <path id="Tracé_1882" data-name="Tracé 1882" d="M192.932,50.719c3.36,0,6.22-.961,7.653-2.571a4.322,4.322,0,0,0,1.037-3.522c-.5-4.289-4.476-5.819-8.024-5.819-4.484,0-9.434,2.428-9.78,6.928a3,3,0,0,0,.875,2.323c1.5,1.617,4.731,2.661,8.239,2.661" transform="translate(13.589 2.869)" fill="#ffd289"/>
    <path id="Tracé_1883" data-name="Tracé 1883" d="M296.389,194.5c-6.321,0-10.453,3.681-11.05,9.848a7.531,7.531,0,0,0,2.139,5.94c2.823,3.109,8.209,5.2,13.4,5.2h0c2.393,0,10.241-.567,10.824-7.855a10.251,10.251,0,0,0-2.9-7.889,17.577,17.577,0,0,0-12.412-5.243" transform="translate(21.093 14.38)" fill="#ffd289"/>
    <path id="Tracé_1884" data-name="Tracé 1884" d="M315.522,115.956a5.907,5.907,0,0,0-1.63,6.884c.94,2.539,3.142,4.6,4.913,4.6a1.848,1.848,0,0,0,.931-.241c1.117-.638,1.361-2.968.61-5.8-.849-3.2-2.645-5.8-4-5.8a1.26,1.26,0,0,0-.824.352" transform="translate(23.172 8.547)" fill="#ffd289"/>
    <path id="Tracé_1885" data-name="Tracé 1885" d="M263.25,214.778c-4.537,0-9.539,2.151-9.8,6.874a5.087,5.087,0,0,0,1.437,3.916c1.759,1.859,5.147,3.015,8.843,3.015,3.593,0,6.857-1.094,8.517-2.855a4.546,4.546,0,0,0,1.285-3.5c-.3-5.117-5.54-7.449-10.282-7.449" transform="translate(18.737 15.879)" fill="#ffd289"/>
    <path id="Tracé_1886" data-name="Tracé 1886" d="M171.724,1.5C106.8,1.5,54.707,31.247,25.03,85.261-7.989,145.361-6.114,223.608,29.7,279.969c32.116,50.549,91.279,81.954,154.4,81.959h.016c62.739,0,117.685-30.286,150.755-83.1,35-55.891,37.09-126.105,5.453-183.243-33.107-59.8-94.559-94.09-168.6-94.09M314.87,96.773c.464-.838,1.506-1.836,3.825-1.836,4.51,0,11.618,3.86,13.484,8.364a5.041,5.041,0,0,1-1.2,5.851,4.709,4.709,0,0,1-3.466,1.333c-4.291,0-9.755-4.2-11.975-7.978-1.3-2.207-1.531-4.189-.672-5.733M230.859,162.2a6.068,6.068,0,0,1,1.607,4.652c-.263,4.2-3.612,6.918-8.531,6.918-4.666,0-9.828-2.62-10.2-7.478a4.993,4.993,0,0,1,1.384-3.848c1.683-1.816,4.827-2.944,8.209-2.944,3.176,0,5.922.984,7.533,2.7M206.852,39.6c5.33,0,9.107,2.843,9.626,7.242a5.936,5.936,0,0,1-1.435,4.78c-1.757,1.978-4.986,3.112-8.856,3.112-4,0-7.608-1.217-9.421-3.178a4.6,4.6,0,0,1-1.3-3.541c.421-5.466,6.18-8.415,11.386-8.415M212.487,184.5a11.482,11.482,0,0,1-5.619,10.2c-3.133,1.955-7.448,2.987-12.48,2.987h0c-9.255,0-18.817-3.505-22.735-8.335a7.906,7.906,0,0,1-1.857-6.73c2.435-11.566,13.093-15.671,21.481-15.671,10.541,0,21.212,6.028,21.212,17.548M159.941,59.833c2.957-4.24,10.536-7.438,17.633-7.438,7.163,0,11.769,3.165,12.641,8.682a7.121,7.121,0,0,1-1.789,5.851c-2.99,3.5-9.443,5.849-16.061,5.849h0c-6.828,0-11.83-2.516-13.382-6.729a6.553,6.553,0,0,1,.96-6.214M103.933,34.627c3.221-5.688,13.884-11.269,21.529-11.269,4.02,0,6.662,1.55,7.638,4.482.611,1.833.14,3.906-1.365,5.994-3.773,5.233-13.64,10-20.7,10-3.506,0-6.053-1.153-7.361-3.337a5.593,5.593,0,0,1,.258-5.869M41.45,271.939a3.347,3.347,0,0,1-1.879.589h0c-3.831,0-7.2-6.622-7.6-11.085-.293-3.27.866-5.386,3.184-5.809a5.343,5.343,0,0,1,.948-.086c3.6,0,6.3,3.593,7.374,7.155,1.207,3.988.413,7.613-2.022,9.237m3.271-21.38a9.984,9.984,0,0,1-3.768.757h0c-6.013,0-10.958-5.7-12.736-11.336-1.7-5.374-.566-10.244,2.952-12.712a6.062,6.062,0,0,1,3.538-1.153c5.677,0,11.712,8.343,13.115,15.522.883,4.512-.246,7.765-3.1,8.923M53.265,113.81c-2.184,2.495-6.349,4.107-10.607,4.107-3.969,0-7-1.444-8.1-3.864a4.145,4.145,0,0,1,.473-4.1c2.118-3.289,8.336-6.175,13.306-6.175,3.791,0,6.193,1.711,6.592,4.693a6.6,6.6,0,0,1-1.667,5.335m45.919,53.526c-3.107,3.9-9.153,6.426-15.406,6.426h0c-7.412,0-12.3-3.516-12.751-9.176a11.474,11.474,0,0,1,3.17-8.874c3.273-3.547,8.71-5.75,14.186-5.75,6.745,0,11.52,3.241,12.773,8.671a9.956,9.956,0,0,1-1.971,8.7m2.513-34.069c-1.743-5.288-.775-10.692,2.8-15.63,6.6-9.123,21.465-15.745,35.344-15.745,11.383,0,19.81,4.609,23.12,12.646a16.324,16.324,0,0,1-1.629,15.929c-6.116,9.136-21.248,15.766-35.979,15.766h0c-12.318,0-20.94-4.726-23.652-12.966m51.982,200.367c-1.206,6.625-8.284,8.987-14.508,8.987h0c-7.61,0-16.072-3.369-16.766-9.613a5.02,5.02,0,0,1,1.317-4.043c2.17-2.424,7.092-3.872,13.165-3.872,5.854,0,12.985,1.466,15.719,4.742a4.533,4.533,0,0,1,1.075,3.8m83.877-28.415c-3.993,11.184-15.233,17.344-31.643,17.344h0c-17.093,0-35.944-6.972-43.849-16.214-3.007-3.516-4.25-7.1-3.69-10.659,2.243-14.3,21.851-19.38,37.96-19.38,17.938,0,33.434,5.543,39.479,14.12,3.1,4.392,3.684,9.369,1.747,14.789m49.305,1.813c-2.182,4.364-7.787,8.051-12.239,8.051h0a5.7,5.7,0,0,1-4.142-1.573c-1.441-1.441-1.678-3.58-.666-6.025,1.837-4.44,7.726-9.6,12.562-9.6a4.992,4.992,0,0,1,4.157,2.015,6.529,6.529,0,0,1,.329,7.133m4.96-64.788c-1.985,2.1-5.606,3.36-9.688,3.36h0c-4.187,0-7.931-1.314-10.014-3.518a6.734,6.734,0,0,1-1.874-5.112c.321-5.768,6.138-8.395,11.409-8.395,5.472,0,11.526,2.805,11.891,8.964a6.182,6.182,0,0,1-1.723,4.7M290.67,135.871h0c-8.17,0-16.919-3.721-21.768-9.259a14.086,14.086,0,0,1-3.789-11.287c.706-5.294,5-8.209,12.092-8.209,10.085,0,23.289,6.015,27.7,12.621,1.7,2.54,2.089,5.1,1.133,7.419-2.292,5.539-7.9,8.716-15.372,8.716m43.4,85.8c-.462,5.759-5.226,9.338-12.433,9.338h0c-5.707,0-11.434-2.248-14.594-5.727A9.194,9.194,0,0,1,304.5,218.1c.807-8.335,7.064-11.3,12.653-11.3a18.989,18.989,0,0,1,13.595,5.762,11.828,11.828,0,0,1,3.328,9.109m10.668-92.6c.986,3.714.474,6.559-1.368,7.611a3.437,3.437,0,0,1-1.731.452c-2.469,0-5.231-2.431-6.422-5.655a7.454,7.454,0,0,1,2.092-8.666,2.832,2.832,0,0,1,1.872-.741c2.541,0,4.662,3.628,5.558,7" transform="translate(0.11 0.111)" fill="#fff8b5"/>
    <path id="Tracé_1887" data-name="Tracé 1887" d="M259.163,101.678c-4.374,0-9.747,1.182-10.5,6.811a12.525,12.525,0,0,0,3.406,10.014c4.56,5.209,12.82,8.709,20.554,8.709h0c3.992,0,11.1-1,13.882-7.721.753-1.819.422-3.807-.982-5.909-4.165-6.23-16.731-11.9-26.365-11.9" transform="translate(18.377 7.517)" fill="#ffd289"/>
    <path id="Tracé_1888" data-name="Tracé 1888" d="M264.044,279.313c-3.72,0-9.308,4.344-11.073,8.606-.528,1.275-.9,3.051.316,4.269a4.076,4.076,0,0,0,3,1.1h0c3.778,0,8.924-3.413,10.8-7.161a5.016,5.016,0,0,0-.175-5.446,3.4,3.4,0,0,0-2.871-1.37" transform="translate(18.666 20.65)" fill="#ffd289"/>
    <path id="Tracé_1889" data-name="Tracé 1889" d="M341.843,94.921a180.387,180.387,0,0,0-66.332-68.029C245.175,9.047,210.293,0,171.833,0,106.3,0,53.7,30.043,23.729,84.6c-33.294,60.6-31.4,139.5,4.718,196.348,32.409,51.009,92.093,82.7,155.761,82.706h.016c63.3,0,118.752-30.565,152.121-83.852a181.284,181.284,0,0,0,5.5-184.878M334.98,278.943c-33.071,52.811-88.016,83.1-150.756,83.1h-.016c-63.121-.005-122.285-31.41-154.4-81.959C-6,223.719-7.878,145.472,25.141,85.372,54.817,31.358,106.913,1.611,171.833,1.611c74.04,0,135.493,34.294,168.6,94.089,31.636,57.137,29.546,127.352-5.453,183.243" transform="translate(0 0)" fill="#deb15e"/>
    <path id="Tracé_1890" data-name="Tracé 1890" d="M118.549,139.681c14.731-.034,29.848-6.7,35.943-15.85a16.329,16.329,0,0,0,1.593-15.932c-3.33-8.029-11.768-12.619-23.151-12.592-13.879.032-28.729,6.687-35.308,15.825-3.561,4.947-4.517,10.354-2.763,15.636,2.733,8.234,11.364,12.94,23.682,12.912ZM96.393,126.262c-1.607-4.84-.752-9.614,2.541-14.188,6.3-8.751,20.6-15.125,34-15.156,6.286-.015,17.459,1.473,21.658,11.6a14.6,14.6,0,0,1-1.444,14.422c-5.726,8.6-20.606,15.1-34.61,15.133-11.577.026-19.651-4.277-22.15-11.808" transform="translate(6.95 7.046)" fill="#ffe29d"/>
    <path id="Tracé_1891" data-name="Tracé 1891" d="M118.475,140.255c-12.5,0-21.282-4.84-24.084-13.279-1.81-5.453-.829-11.027,2.836-16.12,6.673-9.267,21.705-16.017,35.743-16.049,11.66,0,20.243,4.71,23.648,12.924a16.842,16.842,0,0,1-1.642,16.434c-6.187,9.288-21.49,16.055-36.388,16.09Zm14.593-44.374c-13.815.031-28.482,6.594-34.969,15.6-3.455,4.8-4.384,10.041-2.687,15.154,2.645,7.971,11.053,12.544,23.064,12.544h.107c14.568-.033,29.5-6.6,35.5-15.611a15.81,15.81,0,0,0,1.543-15.428c-3.23-7.792-11.452-12.261-22.558-12.261M118.58,138.644c-11.871,0-20.091-4.439-22.66-12.175-1.665-5.014-.784-9.95,2.615-14.671,6.394-8.88,20.877-15.349,34.439-15.38h.092c6.392,0,17.757,1.55,22.064,11.929a15.111,15.111,0,0,1-1.495,14.924c-5.816,8.731-20.887,15.34-35.055,15.372m14.486-41.689-.09.537c-13.244.03-27.361,6.31-33.569,14.933-3.186,4.426-4.018,9.037-2.468,13.706,2.413,7.269,10.262,11.44,21.534,11.44,13.945-.031,28.632-6.434,34.268-14.893a14.093,14.093,0,0,0,1.4-13.918c-4.067-9.8-14.948-11.267-21.072-11.267Z" transform="translate(6.913 7.009)" fill="#ffe29d"/>
    <path id="Tracé_1892" data-name="Tracé 1892" d="M161.426,69.53h0c6.619-.015,13.067-2.381,16.049-5.886a7.126,7.126,0,0,0,1.775-5.855c-.884-5.515-5.5-8.669-12.662-8.652-7.1.016-14.669,3.231-17.615,7.479a6.553,6.553,0,0,0-.947,6.216c1.561,4.21,6.571,6.713,13.4,6.7m-11.128-12c2.63-3.791,9.788-6.771,16.295-6.786,2.976-.008,10.009.691,11.067,7.3a5.482,5.482,0,0,1-1.411,4.556c-2.652,3.119-8.747,5.305-14.825,5.319h0c-6.125.014-10.568-2.1-11.885-5.648a4.945,4.945,0,0,1,.76-4.737" transform="translate(10.914 3.633)" fill="#ffe29d"/>
    <path id="Tracé_1893" data-name="Tracé 1893" d="M161.4,70.1c-7.028,0-12.2-2.635-13.838-7.048a7.071,7.071,0,0,1,1.008-6.709c3.038-4.378,10.8-7.693,18.055-7.71,7.478,0,12.265,3.318,13.193,9.1a7.642,7.642,0,0,1-1.9,6.287c-3.078,3.618-9.691,6.059-16.456,6.075Zm5.284-20.393c-6.991.016-14.375,3.132-17.23,7.248a6.038,6.038,0,0,0-.884,5.724c1.475,3.974,6.271,6.347,12.83,6.347v.537l.063-.537c6.469-.015,12.756-2.3,15.641-5.7a6.6,6.6,0,0,0,1.654-5.422c-.834-5.212-5.235-8.2-12.074-8.2m-5.22,18.782c-6.39,0-11-2.242-12.39-6a5.455,5.455,0,0,1,.82-5.23c2.72-3.92,10.071-7,16.736-7.017h.047c3.1,0,10.43.755,11.551,7.748a6,6,0,0,1-1.534,4.989c-2.746,3.228-9.008,5.493-15.232,5.507m5.214-17.708-.045.537c-6.35.014-13.315,2.894-15.856,6.556a4.435,4.435,0,0,0-.7,4.244c1.231,3.316,5.462,5.3,11.32,5.3,5.991-.013,11.921-2.123,14.477-5.129a4.971,4.971,0,0,0,1.291-4.123c-.989-6.178-7.666-6.845-10.49-6.845Z" transform="translate(10.877 3.596)" fill="#ffe29d"/>
    <path id="Tracé_1894" data-name="Tracé 1894" d="M286.748,112.431c-4.43-6.6-17.649-12.58-27.733-12.556-7.093.016-11.382,2.941-12.075,8.237a14.092,14.092,0,0,0,3.817,11.278c4.862,5.526,13.617,9.227,21.788,9.209h0c7.476-.017,13.072-3.208,15.351-8.751.953-2.316.555-4.881-1.149-7.417m-.342,6.8c-2.763,6.724-9.872,7.743-13.863,7.753h0c-7.734.017-16-3.463-20.574-8.662a12.523,12.523,0,0,1-3.43-10c.738-5.632,6.107-6.826,10.483-6.836,9.633-.023,22.213,5.622,26.392,11.843,1.409,2.1,1.744,4.085,1,5.907" transform="translate(18.249 7.384)" fill="#ffe29d"/>
    <path id="Tracé_1895" data-name="Tracé 1895" d="M272.52,129.174c-8.3,0-17.188-3.775-22.129-9.393a14.605,14.605,0,0,1-3.947-11.7c.733-5.6,5.211-8.687,12.607-8.7,10.28,0,23.681,6.1,28.18,12.795,1.809,2.691,2.223,5.43,1.2,7.92-2.366,5.754-8.141,9.065-15.847,9.084Zm-13.41-28.726c-6.847.016-10.947,2.775-11.6,7.77a13.566,13.566,0,0,0,3.687,10.854c4.75,5.4,13.319,9.027,21.324,9.027v.537l.06-.537c7.25-.018,12.665-3.086,14.857-8.419.881-2.144.5-4.533-1.1-6.914-4.331-6.447-17.31-12.319-27.23-12.319m13.471,27.115c-7.92,0-16.328-3.555-20.981-8.845a13.055,13.055,0,0,1-3.56-10.43c.625-4.763,4.433-7.288,11.014-7.3h.059c9.77,0,22.533,5.758,26.78,12.082,1.516,2.255,1.869,4.412,1.048,6.409-2.884,7.013-10.235,8.076-14.36,8.087m-13.468-26.041-.057.537c-4.159.01-9.263,1.122-9.95,6.368a12.01,12.01,0,0,0,3.3,9.582c4.462,5.072,12.546,8.48,20.115,8.48,3.914-.01,10.781-.986,13.426-7.421.677-1.645.358-3.463-.945-5.4-4.079-6.075-16.419-11.607-25.888-11.607Z" transform="translate(18.212 7.347)" fill="#ffe29d"/>
    <path id="Tracé_1896" data-name="Tracé 1896" d="M305.939,103.972a4.7,4.7,0,0,0,3.462-1.341,5.042,5.042,0,0,0,1.183-5.853c-1.876-4.5-8.993-8.343-13.5-8.333-2.32.005-3.359,1.006-3.822,1.845-.855,1.545-.618,3.528.686,5.732,2.229,3.768,7.7,7.96,11.994,7.95m-11.271-12.9a2.669,2.669,0,0,1,2.417-1.014c3.9-.01,10.432,3.549,12.013,7.341a3.453,3.453,0,0,1-.839,4.1,3.159,3.159,0,0,1-2.325.867c-3.328.006-8.382-3.405-10.6-7.159-.568-.962-1.411-2.779-.664-4.132" transform="translate(21.644 6.539)" fill="#ffe29d"/>
    <path id="Tracé_1897" data-name="Tracé 1897" d="M305.962,104.546c-4.468,0-10.143-4.329-12.443-8.213-1.4-2.378-1.644-4.544-.694-6.264.532-.965,1.71-2.118,4.292-2.123,4.715,0,12,3.864,14,8.662a5.547,5.547,0,0,1-1.3,6.439,5.218,5.218,0,0,1-3.843,1.5Zm-8.823-15.527a3.565,3.565,0,0,0-3.373,1.568c-.756,1.369-.521,3.167.68,5.2,2.151,3.635,7.409,7.686,11.517,7.686v.537l.013-.537a4.185,4.185,0,0,0,3.083-1.182,4.491,4.491,0,0,0,1.069-5.269c-1.8-4.309-8.645-8-12.988-8m8.833,13.916c-3.56,0-8.726-3.468-11.064-7.423-.627-1.06-1.551-3.077-.672-4.664a3.057,3.057,0,0,1,2.885-1.292h.017c4.1,0,10.8,3.612,12.5,7.672a4,4,0,0,1-.955,4.682,3.681,3.681,0,0,1-2.706,1.025m-8.834-12.842-.014.537c-.7,0-1.614.131-1.948.738-.642,1.161.245,2.9.657,3.6,2.134,3.609,6.961,6.9,10.129,6.9a2.648,2.648,0,0,0,1.953-.709,2.927,2.927,0,0,0,.725-3.512c-1.479-3.544-7.836-7.011-11.5-7.011Z" transform="translate(21.607 6.502)" fill="#ffe29d"/>
    <path id="Tracé_1898" data-name="Tracé 1898" d="M46.029,97.264c-4.97.012-11.181,2.911-13.291,6.205a4.145,4.145,0,0,0-.463,4.1c1.105,2.417,4.135,3.854,8.1,3.846,4.259-.01,8.419-1.631,10.6-4.131a6.6,6.6,0,0,0,1.654-5.339c-.4-2.982-2.812-4.687-6.6-4.678m3.734,8.958c-1.858,2.132-5.631,3.571-9.386,3.579-3.321.008-5.8-1.078-6.637-2.9a2.583,2.583,0,0,1,.354-2.558c1.825-2.849,7.515-5.452,11.939-5.463,2.078-.005,4.632.561,5,3.283a4.956,4.956,0,0,1-1.272,4.064" transform="translate(2.36 7.191)" fill="#ffe29d"/>
    <path id="Tracé_1899" data-name="Tracé 1899" d="M40.382,111.986c-4.167,0-7.367-1.554-8.558-4.159a4.657,4.657,0,0,1,.5-4.609c2.194-3.426,8.615-6.441,13.742-6.453,4.1,0,6.691,1.875,7.134,5.143a7.109,7.109,0,0,1-1.78,5.763c-2.277,2.612-6.6,4.306-11,4.316Zm5.713-14.148c-4.841.011-10.841,2.8-12.867,5.958a3.632,3.632,0,0,0-.427,3.584c1.011,2.212,3.845,3.532,7.581,3.532v.537l.035-.537c4.11-.009,8.112-1.559,10.194-3.948a6.073,6.073,0,0,0,1.526-4.913c-.369-2.717-2.515-4.213-6.042-4.213m-5.68,12.537c-3.555,0-6.205-1.2-7.127-3.22a3.084,3.084,0,0,1,.391-3.069c1.908-2.978,7.813-5.7,12.39-5.711H46.1c3.224,0,5.181,1.332,5.508,3.748a5.471,5.471,0,0,1-1.4,4.489c-1.955,2.242-5.888,3.754-9.79,3.763M46.1,98.912l-.025.537c-4.194.01-9.776,2.545-11.488,5.216a2.062,2.062,0,0,0-.319,2.044c.743,1.624,3.028,2.592,6.116,2.592,3.642-.008,7.252-1.372,9.015-3.395a4.438,4.438,0,0,0,1.146-3.638c-.255-1.871-1.749-2.819-4.445-2.819Z" transform="translate(2.323 7.154)" fill="#ffe29d"/>
    <path id="Tracé_1900" data-name="Tracé 1900" d="M185.85,257.6c-16.109.036-35.7,5.157-37.914,19.467-.55,3.559.7,7.142,3.714,10.65,7.927,9.225,26.794,16.152,43.886,16.113h.006c16.409-.038,27.634-6.225,31.6-17.417,1.923-5.424,1.325-10.4-1.782-14.785-6.064-8.564-21.574-14.071-39.512-14.029m39.776,28.276c-5.024,14.172-21.006,16.324-30.088,16.344h-.005c-16.671.038-35.01-6.649-42.662-15.553-2.692-3.134-3.818-6.281-3.343-9.354,2.056-13.3,20.855-18.067,36.327-18.1,17.162-.04,32.511,5.325,38.194,13.349,2.785,3.933,3.315,8.413,1.578,13.316" transform="translate(10.928 19.044)" fill="#ffe29d"/>
    <path id="Tracé_1901" data-name="Tracé 1901" d="M195.431,304.4c-17.185,0-36.166-7.008-44.15-16.3-3.123-3.634-4.414-7.362-3.838-11.082,2.262-14.644,22.123-19.886,38.445-19.924h.2c18.015,0,33.619,5.6,39.753,14.255,3.212,4.536,3.834,9.675,1.848,15.275-4.049,11.424-15.451,17.737-32.106,17.776Zm-9.344-46.232h-.2c-15.9.038-35.227,5.039-37.385,19.013-.525,3.4.683,6.833,3.59,10.218,7.8,9.08,26.433,15.926,43.336,15.926h.142c16.172-.036,27.217-6.1,31.1-17.06,1.862-5.251,1.286-10.061-1.713-14.294-5.938-8.385-21.2-13.8-38.875-13.8m9.342,44.621c-16.762,0-35.216-6.767-42.927-15.74-2.8-3.259-3.967-6.552-3.467-9.786,2.107-13.64,21.171-18.523,36.855-18.559h.191c17.244,0,32.692,5.456,38.444,13.577,2.891,4.083,3.444,8.729,1.645,13.805-5.134,14.482-21.371,16.68-30.593,16.7Zm-9.348-43.01h-.189c-15.261.035-33.792,4.679-35.8,17.649-.45,2.91.634,5.91,3.22,8.92,7.528,8.761,25.632,15.367,42.113,15.367h.14c8.945-.022,24.675-2.125,29.589-15.987,1.676-4.729,1.168-9.045-1.51-12.826-5.558-7.85-20.655-13.123-37.566-13.123" transform="translate(10.891 19.007)" fill="#ffe29d"/>
    <path id="Tracé_1902" data-name="Tracé 1902" d="M296.456,192.61c-5.589.013-11.839,3-12.626,11.333a9.2,9.2,0,0,0,2.566,7.172c3.166,3.472,8.9,5.706,14.605,5.694h0c7.207-.017,11.963-3.606,12.41-9.367a11.826,11.826,0,0,0-3.35-9.1,18.988,18.988,0,0,0-13.608-5.73m15.351,14.707c-.566,7.289-8.413,7.875-10.807,7.881h0c-5.192.011-10.581-2.066-13.412-5.169a7.539,7.539,0,0,1-2.153-5.935c.584-6.168,4.7-9.859,11.027-9.874a17.57,17.57,0,0,1,12.423,5.215,10.249,10.249,0,0,1,2.924,7.882" transform="translate(20.981 14.24)" fill="#ffe29d"/>
    <path id="Tracé_1903" data-name="Tracé 1903" d="M300.994,217.383c-5.835,0-11.707-2.3-14.957-5.869a9.71,9.71,0,0,1-2.705-7.584c.82-8.693,7.336-11.806,13.16-11.82a19.568,19.568,0,0,1,14,5.9,12.348,12.348,0,0,1,3.492,9.508c-.471,6.067-5.433,9.846-12.945,9.863Zm-4.461-24.2c-5.391.013-11.378,2.868-12.131,10.847a8.674,8.674,0,0,0,2.428,6.76c3.057,3.353,8.616,5.518,14.164,5.518v.537l.043-.537c6.9-.016,11.453-3.416,11.88-8.873a11.313,11.313,0,0,0-3.209-8.693,18.441,18.441,0,0,0-13.175-5.559m4.505,22.588c-5.362,0-10.9-2.148-13.812-5.344a8.05,8.05,0,0,1-2.292-6.347c.613-6.472,4.934-10.345,11.561-10.36h.036a18.142,18.142,0,0,1,12.781,5.387,10.767,10.767,0,0,1,3.066,8.289c-.6,7.745-8.832,8.369-11.341,8.376m-4.506-21.514-.034.537c-6.016.014-9.939,3.524-10.493,9.387a7.019,7.019,0,0,0,2.015,5.522c2.725,2.987,7.941,4.994,12.977,4.994,2.314-.006,9.782-.555,10.313-7.385a9.732,9.732,0,0,0-2.783-7.476,17.023,17.023,0,0,0-11.995-5.042Z" transform="translate(20.944 14.203)" fill="#ffe29d"/>
    <path id="Tracé_1904" data-name="Tracé 1904" d="M263.364,212.965c-5.271.013-11.082,2.653-11.39,8.422a6.734,6.734,0,0,0,1.887,5.108c2.089,2.2,5.836,3.505,10.022,3.5h0c4.082-.01,7.7-1.275,9.679-3.383a6.178,6.178,0,0,0,1.713-4.7c-.378-6.158-6.439-8.95-11.912-8.937m9.025,12.54c-1.656,1.763-4.918,2.865-8.51,2.874-3.7.009-7.088-1.138-8.85-2.994a5.086,5.086,0,0,1-1.447-3.911c.251-4.724,5.248-6.887,9.785-6.9,4.741-.011,9.987,2.309,10.3,7.425a4.546,4.546,0,0,1-1.278,3.5" transform="translate(18.628 15.745)" fill="#ffe29d"/>
    <path id="Tracé_1905" data-name="Tracé 1905" d="M263.874,230.564c-4.311,0-8.187-1.37-10.366-3.663a7.256,7.256,0,0,1-2.034-5.5c.325-6.118,6.409-8.917,11.925-8.931,5.737,0,12.052,2.954,12.449,9.442a6.7,6.7,0,0,1-1.858,5.1c-2.076,2.214-5.841,3.543-10.069,3.553Zm-.437-17.025c-5.061.012-10.6,2.493-10.891,7.913a6.207,6.207,0,0,0,1.741,4.709c1.98,2.084,5.564,3.329,9.587,3.329v.537l.044-.537c3.938-.01,7.411-1.21,9.291-3.214a5.653,5.653,0,0,0,1.568-4.3c-.355-5.795-6.127-8.434-11.34-8.434m.479,15.414c-3.863,0-7.389-1.211-9.24-3.162a5.6,5.6,0,0,1-1.593-4.31c.268-5.072,5.538-7.394,10.32-7.406h.037c4.968,0,10.467,2.482,10.8,7.929a5.065,5.065,0,0,1-1.422,3.9c-1.754,1.869-5.165,3.035-8.9,3.044m-.476-14.34-.034.537c-4.293.01-9.018,2.014-9.251,6.389a4.569,4.569,0,0,0,1.3,3.513c1.656,1.744,4.883,2.828,8.422,2.828,3.489-.009,6.6-1.045,8.16-2.7a4.032,4.032,0,0,0,1.133-3.106c-.291-4.753-5.246-6.919-9.728-6.919Z" transform="translate(18.591 15.708)" fill="#ffe29d"/>
    <path id="Tracé_1906" data-name="Tracé 1906" d="M83.639,140.18c-5.477.013-10.909,2.228-14.175,5.782a11.481,11.481,0,0,0-3.148,8.882c.465,5.657,5.36,9.163,12.772,9.146h0c6.252-.014,12.293-2.551,15.391-6.462a9.952,9.952,0,0,0,1.949-8.707c-1.265-5.427-6.047-8.657-12.792-8.641m9.579,16.348c-2.761,3.487-8.44,5.838-14.131,5.851h0c-5.092.012-10.7-2-11.164-7.667a9.9,9.9,0,0,1,2.73-7.66c2.926-3.184,8.025-5.249,12.99-5.261,5.942-.014,10.137,2.751,11.22,7.4a8.294,8.294,0,0,1-1.644,7.342" transform="translate(4.9 10.364)" fill="#ffe29d"/>
    <path id="Tracé_1907" data-name="Tracé 1907" d="M79.072,164.564c-7.686,0-12.766-3.693-13.254-9.639a12,12,0,0,1,3.289-9.29c3.362-3.661,8.946-5.943,14.567-5.956,7.034,0,11.994,3.385,13.318,9.055a10.476,10.476,0,0,1-2.053,9.163c-3.194,4.035-9.4,6.651-15.809,6.666Zm4.652-23.81c-5.379.012-10.66,2.162-13.827,5.609a10.955,10.955,0,0,0-3.01,8.474c.439,5.336,5.109,8.653,12.185,8.653v.537l.053-.537c6.1-.014,11.973-2.47,14.973-6.259a9.43,9.43,0,0,0,1.847-8.251c-1.2-5.152-5.769-8.226-12.22-8.226m-4.6,22.2c-5.357,0-11.206-2.144-11.7-8.16a10.436,10.436,0,0,1,2.87-8.067c3.024-3.291,8.277-5.423,13.385-5.435h.045c6.185,0,10.558,2.92,11.7,7.81a8.8,8.8,0,0,1-1.746,7.8c-2.858,3.607-8.705,6.041-14.552,6.054m4.6-21.125-.043.537c-4.822.011-9.767,2.008-12.6,5.087a9.385,9.385,0,0,0-2.59,7.253c.436,5.289,5.753,7.174,10.585,7.174,5.58-.012,11.092-2.282,13.757-5.647a7.774,7.774,0,0,0,1.541-6.887c-1.019-4.371-5-6.981-10.652-6.981Z" transform="translate(4.863 10.327)" fill="#ffe29d"/>
    <path id="Tracé_1908" data-name="Tracé 1908" d="M192.673,52.291c3.87-.01,7.1-1.151,8.848-3.133a5.943,5.943,0,0,0,1.424-4.784c-.528-4.4-4.313-7.232-9.641-7.219-5.207.012-10.961,2.975-11.369,8.442a4.6,4.6,0,0,0,1.309,3.538c1.819,1.957,5.431,3.165,9.428,3.156m.635-13.525c3.548-.009,7.523,1.512,8.037,5.8a4.317,4.317,0,0,1-1.029,3.525c-1.429,1.613-4.286,2.581-7.646,2.589-3.509.008-6.745-1.029-8.246-2.642a3,3,0,0,1-.881-2.321c.335-4.5,5.281-6.941,9.764-6.952" transform="translate(13.45 2.747)" fill="#ffe29d"/>
    <path id="Tracé_1909" data-name="Tracé 1909" d="M192.665,52.865c-4.122,0-7.867-1.275-9.776-3.327a5.134,5.134,0,0,1-1.452-3.943c.433-5.79,6.455-8.927,11.9-8.939,5.634,0,9.615,3.02,10.175,7.693a6.47,6.47,0,0,1-1.556,5.2c-1.854,2.1-5.224,3.3-9.249,3.313Zm.711-15.136c-5,.012-10.483,2.8-10.867,7.945a4.082,4.082,0,0,0,1.166,3.133c1.713,1.841,5.157,2.984,8.99,2.984v.537l.044-.537c3.719-.009,6.8-1.084,8.448-2.951a5.426,5.426,0,0,0,1.294-4.364c-.493-4.1-4.055-6.746-9.075-6.746m-.667,13.525c-3.677,0-7.053-1.1-8.64-2.813a3.508,3.508,0,0,1-1.023-2.728c.359-4.823,5.574-7.437,10.3-7.448h.028c3.767,0,7.989,1.648,8.544,6.274a4.829,4.829,0,0,1-1.161,3.945c-1.528,1.726-4.537,2.761-8.046,2.77m.663-12.451-.026.537c-4.241.01-8.918,2.276-9.228,6.454a2.447,2.447,0,0,0,.737,1.916c1.4,1.5,4.462,2.47,7.811,2.47,3.25-.008,5.958-.907,7.287-2.408a3.8,3.8,0,0,0,.9-3.1c-.47-3.928-4.171-5.328-7.478-5.328Z" transform="translate(13.413 2.71)" fill="#ffe29d"/>
    <path id="Tracé_1910" data-name="Tracé 1910" d="M33.124,211.2a6.075,6.075,0,0,0-3.535,1.162c-3.512,2.476-4.631,7.349-2.922,12.719,1.791,5.63,6.751,11.32,12.763,11.307h0a9.977,9.977,0,0,0,3.766-.766c2.849-1.165,3.971-4.421,3.079-8.931-1.42-7.174-7.475-15.5-13.152-15.491m9.463,22.932a8.37,8.37,0,0,1-3.161.645c-5.239.011-9.612-5.115-11.226-10.184-1.51-4.748-.644-8.827,2.316-10.913a4.49,4.49,0,0,1,2.611-.869c4.85-.011,10.294,7.755,11.567,14.194.428,2.163.724,5.968-2.108,7.127" transform="translate(1.913 15.615)" fill="#ffe29d"/>
    <path id="Tracé_1911" data-name="Tracé 1911" d="M39.446,236.966c-6.262,0-11.408-5.877-13.256-11.681-1.783-5.6-.585-10.7,3.125-13.32A6.591,6.591,0,0,1,33.16,210.7c5.936,0,12.222,8.56,13.68,15.924.946,4.787-.293,8.261-3.4,9.532a10.523,10.523,0,0,1-3.969.805Zm-6.273-25.188a5.56,5.56,0,0,0-3.239,1.064c-3.314,2.336-4.356,6.978-2.72,12.117,1.729,5.433,6.485,10.933,12.232,10.933v.537l.018-.537a9.438,9.438,0,0,0,3.565-.726c2.589-1.058,3.593-4.094,2.756-8.33-1.378-6.963-7.188-15.058-12.612-15.058m6.292,23.577c-5.508,0-10.07-5.311-11.739-10.559-1.586-4.981-.645-9.285,2.517-11.515a5.01,5.01,0,0,1,2.919-.967h.011c5.175,0,10.747,7.862,12.085,14.627.795,4.015-.07,6.76-2.431,7.728a8.91,8.91,0,0,1-3.361.685m-6.292-22.5-.009.537a3.963,3.963,0,0,0-2.3.77c-2.76,1.945-3.55,5.8-2.113,10.312,1.551,4.876,5.723,9.81,10.7,9.81a7.864,7.864,0,0,0,2.973-.6c2.475-1.015,2.181-4.524,1.785-6.527-1.225-6.193-6.557-13.76-11.031-13.76Z" transform="translate(1.876 15.578)" fill="#ffe29d"/>
    <path id="Tracé_1912" data-name="Tracé 1912" d="M128.983,303.147c-6.073.014-10.992,1.473-13.156,3.9a5.016,5.016,0,0,0-1.308,4.047c.708,6.242,9.179,9.59,16.789,9.574h0c6.223-.015,13.3-2.393,14.486-9.021a4.529,4.529,0,0,0-1.084-3.8c-2.742-3.27-9.876-4.719-15.73-4.706m15.228,8.219c-1.014,5.652-7.331,7.681-12.905,7.694h0c-7.007.015-14.6-3.026-15.183-8.146a3.419,3.419,0,0,1,.91-2.792c1.836-2.062,6.418-3.351,11.957-3.364,6.48-.015,12.439,1.683,14.491,4.13a2.9,2.9,0,0,1,.733,2.478" transform="translate(8.464 22.412)" fill="#ffe29d"/>
    <path id="Tracé_1913" data-name="Tracé 1913" d="M131.288,321.243c-7.818,0-16.526-3.522-17.267-10.05a5.532,5.532,0,0,1,1.44-4.463c2.265-2.542,7.333-4.068,13.557-4.083,6.029,0,13.3,1.514,16.141,4.9a5.045,5.045,0,0,1,1.2,4.236c-1.248,6.954-8.573,9.448-15.014,9.461ZM129.1,303.721c-6,.015-10.766,1.407-12.831,3.723a4.5,4.5,0,0,0-1.175,3.628c.67,5.91,8.847,9.1,16.2,9.1v.537l.056-.537c6.008-.013,12.828-2.274,13.96-8.578a4.012,4.012,0,0,0-.965-3.356c-2.616-3.119-9.54-4.515-15.243-4.515m2.249,15.911c-7.276,0-15.109-3.225-15.721-8.62a3.979,3.979,0,0,1,1.043-3.211c1.934-2.172,6.668-3.529,12.357-3.543h.085c6.7,0,12.652,1.737,14.819,4.322a3.447,3.447,0,0,1,.851,2.918c-1.073,5.979-7.642,8.123-13.433,8.135m-2.237-14.837-.083.537c-5.392.014-9.82,1.233-11.558,3.184a2.872,2.872,0,0,0-.776,2.374c.543,4.8,7.849,7.668,14.6,7.668,5.41-.012,11.477-1.923,12.432-7.25a2.356,2.356,0,0,0-.615-2.038c-1.944-2.319-7.7-3.938-14-3.938Z" transform="translate(8.427 22.375)" fill="#ffe29d"/>
    <path id="Tracé_1914" data-name="Tracé 1914" d="M264.305,277.5c-4.835.011-10.71,5.186-12.539,9.63-1.006,2.446-.765,4.586.68,6.023a5.7,5.7,0,0,0,4.145,1.564h0c4.453-.01,10.049-3.709,12.22-8.079a6.53,6.53,0,0,0-.345-7.132,4.991,4.991,0,0,0-4.163-2.005m3.065,8.42c-1.865,3.752-7,7.177-10.781,7.186h0a4.073,4.073,0,0,1-3.006-1.094c-1.221-1.215-.852-2.992-.326-4.269,1.756-4.266,7.334-8.623,11.053-8.631a3.4,3.4,0,0,1,2.874,1.364,5.015,5.015,0,0,1,.188,5.445" transform="translate(18.568 20.516)" fill="#ffe29d"/>
    <path id="Tracé_1915" data-name="Tracé 1915" d="M256.61,295.288a6.213,6.213,0,0,1-4.505-1.719c-1.609-1.6-1.892-3.946-.8-6.608,1.892-4.6,8-9.951,13.034-9.963a5.523,5.523,0,0,1,4.594,2.219,7.043,7.043,0,0,1,.4,7.694c-2.251,4.53-8.067,8.367-12.7,8.378Zm7.748-17.216c-4.647.012-10.293,5.008-12.058,9.3-.918,2.233-.718,4.164.562,5.437a5.167,5.167,0,0,0,3.748,1.407v.537l.018-.537c4.272-.011,9.649-3.573,11.741-7.782a6.019,6.019,0,0,0-.292-6.569,4.474,4.474,0,0,0-3.719-1.791m-7.73,15.605a4.6,4.6,0,0,1-3.387-1.25c-1.133-1.128-1.287-2.805-.444-4.853,1.857-4.515,7.577-8.956,11.548-8.965h.014a3.908,3.908,0,0,1,3.291,1.579,5.514,5.514,0,0,1,.238,6.005c-1.942,3.908-7.309,7.476-11.26,7.484m7.731-14.531-.012.537c-3.474.008-8.9,4.273-10.557,8.3-.463,1.124-.8,2.677.207,3.683a3.559,3.559,0,0,0,2.612.938c3.618-.009,8.529-3.291,10.318-6.888a4.514,4.514,0,0,0-.136-4.882,2.85,2.85,0,0,0-2.432-1.15Z" transform="translate(18.531 20.479)" fill="#ffe29d"/>
    <path id="Tracé_1916" data-name="Tracé 1916" d="M314.36,114.412a7.458,7.458,0,0,0-2.073,8.67c1.2,3.222,3.967,5.647,6.437,5.641a3.433,3.433,0,0,0,1.729-.456c1.841-1.057,2.344-3.9,1.35-7.614-.9-3.369-3.032-6.991-5.574-6.986a2.836,2.836,0,0,0-1.87.745m5.888,6.657c.757,2.829.519,5.16-.6,5.8a1.855,1.855,0,0,1-.931.243c-1.77,0-3.978-2.055-4.924-4.592a5.91,5.91,0,0,1,1.615-6.888,1.264,1.264,0,0,1,.823-.354c1.356,0,3.157,2.595,4.014,5.792" transform="translate(23.045 8.404)" fill="#ffe29d"/>
    <path id="Tracé_1917" data-name="Tracé 1917" d="M318.753,129.3c-2.681,0-5.661-2.575-6.933-5.991a7.97,7.97,0,0,1,2.226-9.264,3.36,3.36,0,0,1,2.22-.875c2.847,0,5.109,3.708,6.094,7.384,1.061,3.961.463,7.033-1.6,8.219a3.974,3.974,0,0,1-2,.527Zm-2.48-15.057a2.314,2.314,0,0,0-1.526.615,6.943,6.943,0,0,0-1.92,8.075c1.124,3.017,3.671,5.292,5.926,5.292v.537l.008-.537a2.91,2.91,0,0,0,1.463-.386c1.616-.927,2.025-3.548,1.1-7.01-.875-3.273-2.891-6.587-5.047-6.587m2.485,13.446c-2.014,0-4.395-2.17-5.428-4.942a6.416,6.416,0,0,1,1.767-7.482,1.8,1.8,0,0,1,1.171-.484h0c1.865,0,3.729,3.19,4.532,6.19.833,3.115.5,5.63-.848,6.4a2.389,2.389,0,0,1-1.2.314m-2.486-12.372v.537a.706.706,0,0,0-.473.224,5.4,5.4,0,0,0-1.463,6.293c.858,2.3,2.88,4.243,4.416,4.243a1.336,1.336,0,0,0,.669-.172c.747-.43,1.106-2.352.345-5.2-.827-3.086-2.527-5.393-3.493-5.393Z" transform="translate(23.008 8.367)" fill="#ffe29d"/>
    <path id="Tracé_1918" data-name="Tracé 1918" d="M103.865,42.719h0c7.06-.016,16.915-4.806,20.675-10.048,1.5-2.091,1.967-4.165,1.352-6-.984-2.93-3.629-4.473-7.649-4.463-7.645.017-18.3,5.623-21.5,11.318A5.6,5.6,0,0,0,96.5,39.4c1.313,2.179,3.862,3.327,7.367,3.32m-5.72-8.4c2.919-5.184,13.064-10.482,20.1-10.5,3.306-.009,5.364,1.124,6.117,3.366.45,1.339.069,2.868-1.134,4.545-3.509,4.892-12.741,9.36-19.37,9.375-2.029,0-4.713-.433-5.985-2.541a4.035,4.035,0,0,1,.268-4.247" transform="translate(7.081 1.642)" fill="#ffe29d"/>
    <path id="Tracé_1919" data-name="Tracé 1919" d="M103.869,43.294c-3.687,0-6.382-1.238-7.794-3.58-1.142-1.891-1.06-4.108.235-6.41,3.284-5.831,14.166-11.574,21.97-11.592,4.288,0,7.1,1.67,8.158,4.829.673,2,.18,4.243-1.424,6.481-3.845,5.358-13.906,10.255-21.11,10.272Zm14.45-20.509c-7.523.017-17.943,5.489-21.073,11.045a5.092,5.092,0,0,0-.251,5.329c1.207,2,3.584,3.061,6.874,3.061v.537l.032-.537c6.917-.016,16.564-4.7,20.241-9.824,1.4-1.946,1.837-3.852,1.278-5.512-1.137-3.387-4.489-4.1-7.1-4.1M103.9,41.683c-2.187,0-5.05-.486-6.446-2.8-.837-1.386-.749-3,.261-4.789,3-5.319,13.376-10.754,20.57-10.772h.035c3.542,0,5.759,1.255,6.592,3.732.508,1.512.1,3.2-1.206,5.029-3.593,5.008-13.033,9.584-19.807,9.6M118.32,23.859l-.033.537c-6.884.016-16.794,5.176-19.637,10.224a3.54,3.54,0,0,0-.277,3.707c1.137,1.886,3.617,2.282,5.5,2.282,6.511-.015,15.538-4.378,18.962-9.152,1.1-1.528,1.453-2.9,1.061-4.062-.669-1.99-2.544-3-5.574-3Z" transform="translate(7.044 1.605)" fill="#ffe29d"/>
    <path id="Tracé_1920" data-name="Tracé 1920" d="M34.275,238.608a5.44,5.44,0,0,0-.949.088c-2.316.428-3.471,2.547-3.169,5.816.413,4.463,3.8,11.074,7.629,11.067h0a3.335,3.335,0,0,0,1.877-.593c2.431-1.629,3.216-5.256,2-9.241-1.086-3.559-3.792-7.146-7.389-7.137m4.492,15.04a1.738,1.738,0,0,1-.985.32c-2.4,0-5.606-5.111-6.022-9.6-.128-1.374-.055-3.731,1.858-4.083a3.713,3.713,0,0,1,.659-.062c2.757-.006,4.963,3.1,5.845,6,.764,2.5.866,5.943-1.356,7.433" transform="translate(2.226 17.641)" fill="#ffe29d"/>
    <path id="Tracé_1921" data-name="Tracé 1921" d="M37.815,256.153c-4.26,0-7.73-6.955-8.157-11.554-.326-3.526,1.021-5.916,3.607-6.393,4.369-.79,7.708,3.35,8.949,7.421,1.287,4.216.417,8.079-2.216,9.843a3.857,3.857,0,0,1-2.175.684Zm-3.491-16.971a4.9,4.9,0,0,0-.866.079c-2.75.508-2.891,3.5-2.73,5.239.386,4.161,3.6,10.579,7.087,10.579v.537l.006-.537a2.813,2.813,0,0,0,1.581-.5c2.231-1.495,2.931-4.885,1.785-8.638-1.026-3.365-3.546-6.758-6.863-6.758m3.5,15.36c-2.9,0-6.148-5.685-6.557-10.092-.247-2.687.568-4.342,2.3-4.661a4.267,4.267,0,0,1,.755-.071h.011c3.025,0,5.413,3.306,6.35,6.376.817,2.675.9,6.383-1.571,8.036a2.239,2.239,0,0,1-1.283.411m-3.5-14.286-.008.537a3.225,3.225,0,0,0-.562.054c-1.495.276-1.533,2.314-1.423,3.505.408,4.4,3.568,9.117,5.483,9.117a1.2,1.2,0,0,0,.689-.229c1.978-1.326,1.851-4.507,1.142-6.83-.826-2.705-2.843-5.617-5.322-5.617Z" transform="translate(2.189 17.604)" fill="#ffe29d"/>
    <path id="Tracé_1922" data-name="Tracé 1922" d="M158.332,171.5a7.906,7.906,0,0,0,1.873,6.727c3.928,4.82,13.5,8.3,22.753,8.282h0c5.031-.012,9.344-1.055,12.474-3.018a11.478,11.478,0,0,0,5.594-10.213c-.026-11.52-10.711-17.523-21.253-17.5-8.387.019-19.036,4.149-21.444,15.72m21.447-14.109c9.741-.023,19.615,5.428,19.639,15.892a9.821,9.821,0,0,1-4.838,8.845c-2.875,1.8-6.894,2.76-11.622,2.771h0c-8.812.019-17.855-3.214-21.5-7.69a6.272,6.272,0,0,1-1.544-5.381C162.12,161.2,172,157.408,179.779,157.39" transform="translate(11.694 11.517)" fill="#ffe29d"/>
    <path id="Tracé_1923" data-name="Tracé 1923" d="M182.914,187.081c-9.373,0-19.084-3.567-23.09-8.48a8.428,8.428,0,0,1-1.982-7.176c2.473-11.886,13.38-16.127,21.968-16.148,10.84,0,21.764,6.2,21.792,18.036a12,12,0,0,1-5.846,10.67c-3.213,2.015-7.625,3.086-12.757,3.1Zm-3.039-30.729c-8.248.019-18.638,4.036-20.981,15.293a7.388,7.388,0,0,0,1.763,6.278c3.818,4.684,13.178,8.085,22.257,8.085v.537l.079-.537c4.934-.012,9.149-1.026,12.192-2.935a10.966,10.966,0,0,0,5.343-9.757c-.026-11.137-10.41-16.964-20.654-16.964m3.12,29.119c-9.011,0-18.2-3.317-21.922-7.887a6.785,6.785,0,0,1-1.653-5.83c2.277-10.941,12.41-14.845,20.4-14.864h.061c9.978,0,20.091,5.642,20.116,16.428a10.33,10.33,0,0,1-5.09,9.3c-2.96,1.856-7.077,2.842-11.907,2.852m-3.119-28.045-.059.537c-7.582.018-17.2,3.7-19.346,14.009a5.757,5.757,0,0,0,1.435,4.933c3.538,4.341,12.373,7.492,21.007,7.492,4.707-.011,8.628-.94,11.418-2.689a9.312,9.312,0,0,0,4.587-8.388c-.023-10.081-9.6-15.356-19.042-15.356Z" transform="translate(11.657 11.48)" fill="#ffe29d"/>
    <path id="Tracé_1924" data-name="Tracé 1924" d="M199.2,155.589c.386,4.855,5.553,7.465,10.218,7.454,4.921-.012,8.263-2.735,8.516-6.939a6.073,6.073,0,0,0-1.617-4.649c-1.615-1.711-4.363-2.688-7.539-2.681-3.381.008-6.523,1.143-8.2,2.963a5,5,0,0,0-1.377,3.851m2.561-2.76c1.362-1.478,4.119-2.437,7.021-2.443,2.692-.006,5.071.807,6.363,2.176a4.431,4.431,0,0,1,1.18,3.445c-.239,3.989-3.728,5.418-6.911,5.426-4,.01-8.311-2.222-8.609-5.971a3.379,3.379,0,0,1,.955-2.632" transform="translate(14.726 10.999)" fill="#ffe29d"/>
    <path id="Tracé_1925" data-name="Tracé 1925" d="M209.426,163.616c-4.894,0-10.314-2.786-10.723-7.949a5.512,5.512,0,0,1,1.515-4.257c1.776-1.927,5.071-3.127,8.6-3.136,3.344,0,6.221,1.038,7.929,2.849a6.591,6.591,0,0,1,1.763,5.049c-.273,4.51-3.824,7.433-9.051,7.444Zm-.575-14.268c-3.271.008-6.263,1.077-7.844,2.79a4.467,4.467,0,0,0-1.235,3.444c.359,4.521,5.242,6.96,9.654,6.96v.537l.028-.537c4.613-.011,7.746-2.537,7.981-6.435a5.542,5.542,0,0,0-1.472-4.246c-1.507-1.6-4.1-2.513-7.112-2.513m.6,12.657c-4.257,0-8.824-2.419-9.146-6.465A3.9,3.9,0,0,1,201.4,152.5c1.461-1.583,4.371-2.61,7.417-2.617h.032c2.823,0,5.337.876,6.723,2.345a4.942,4.942,0,0,1,1.325,3.846c-.262,4.359-4.018,5.922-7.445,5.929m-.6-11.583-.03.537c-2.761.006-5.362.9-6.628,2.27a2.858,2.858,0,0,0-.814,2.225c.273,3.428,4.306,5.477,8.049,5.477,2.963-.006,6.182-1.3,6.4-4.921a3.915,3.915,0,0,0-1.034-3.044c-1.187-1.258-3.409-2.008-5.942-2.008Z" transform="translate(14.689 10.962)" fill="#ffe29d"/>
    <path id="Tracé_1926" data-name="Tracé 1926" d="M329.953,268.187c-3.71,2.928-7.631,5.952-12.288,6.76-5.121.89-10.439-1.041-15.541-.045-6.116,1.193-10.657,6.281-16.3,8.928-5.6,2.628-12.017,2.729-18.207,2.78-10.164.086-20.337.169-30.494-.129a15.53,15.53,0,0,1,.546,12.775c-3.994,11.184-15.234,17.344-31.642,17.344h-.006c-17.093,0-35.943-6.972-43.849-16.215-3.006-3.515-4.247-7.1-3.689-10.659.858-5.474,4.266-9.593,9.041-12.6q-4.747-.984-9.49-1.985c-8.439-1.778-17-3.6-24.652-7.567-8.859-4.592-16.028-11.808-23.015-18.932q-35.09-35.778-69.305-72.406c-5.679-6.08-11.408-12.272-15.27-19.641-4.729-9.021-6.4-19.335-7.012-29.5a156.156,156.156,0,0,1,3.157-41.67C-7.7,144.641-4.8,219.543,29.809,274.008c32.116,50.548,91.28,81.953,154.4,81.958h.015c62.74,0,117.686-30.286,150.756-83.1q4.749-7.582,8.68-15.5l-13.71,10.816m-288.389-2.21a3.345,3.345,0,0,1-1.879.589c-3.831,0-7.2-6.621-7.6-11.084-.3-3.27.866-5.387,3.183-5.809a5.342,5.342,0,0,1,.948-.087c3.6,0,6.3,3.593,7.374,7.156,1.207,3.986.413,7.612-2.022,9.236m3.27-21.379a9.969,9.969,0,0,1-3.767.756h0c-6.013,0-10.959-5.7-12.738-11.336-1.7-5.374-.565-10.244,2.952-12.712a6.077,6.077,0,0,1,3.539-1.153c5.677,0,11.712,8.344,13.116,15.522.882,4.513-.248,7.766-3.1,8.924m108.958,83.073c-1.2,6.625-8.283,8.988-14.507,8.988h0c-7.61,0-16.074-3.37-16.767-9.614A5.018,5.018,0,0,1,123.833,323c2.17-2.425,7.091-3.873,13.165-3.873,5.853,0,12.984,1.467,15.719,4.742a4.529,4.529,0,0,1,1.074,3.8m133.184-26.6c-2.182,4.364-7.787,8.051-12.238,8.051h0a5.7,5.7,0,0,1-4.143-1.573c-1.441-1.441-1.676-3.581-.665-6.024,1.839-4.441,7.726-9.6,12.561-9.6a5,5,0,0,1,4.158,2.015,6.531,6.531,0,0,1,.329,7.133" transform="translate(0.119 6.316)" fill="#ffe29d"/>
    <path id="Tracé_1927" data-name="Tracé 1927" d="M184.268,356.778h-.019c-63.3-.005-122.641-31.506-154.855-82.207-17-26.761-26.724-58.843-28.112-92.777A197.545,197.545,0,0,1,21.5,85.461l1.874-3.745-.869,4.1a155.486,155.486,0,0,0-3.148,41.526c.739,12.341,2.948,21.646,6.952,29.286,3.9,7.438,9.9,13.859,15.188,19.523,22.693,24.293,46.008,48.651,69.3,72.4,6.519,6.646,13.908,14.18,22.879,18.829,7.645,3.964,16.221,5.771,24.516,7.519q4.739,1,9.488,1.985l1.3.271-1.128.71c-5.065,3.184-8.024,7.3-8.8,12.226-.533,3.4.668,6.838,3.568,10.227,7.813,9.136,26.489,16.026,43.441,16.027,16.172,0,27.23-6.033,31.143-16.989a15.038,15.038,0,0,0-.517-12.35l-.417-.809.91.027c4.869.143,10.023.209,16.217.209,4.752,0,9.505-.04,14.256-.079,5.8-.049,12.384-.105,17.983-2.731a44.384,44.384,0,0,0,6.2-3.8c3.141-2.171,6.389-4.415,10.223-5.165a17.9,17.9,0,0,1,3.433-.3c1.542,0,3.109.149,4.626.292a30.407,30.407,0,0,0,7.492.055c4.633-.805,8.572-3.911,12.047-6.653l15.592-12.3-1.071,2.147c-2.667,5.35-5.6,10.58-8.7,15.545-33.168,52.967-88.286,83.349-151.207,83.349m0-.537V355.7c62.549,0,117.331-30.195,150.3-82.845,2.669-4.261,5.205-8.72,7.554-13.283l-11.8,9.307c-3.575,2.82-7.627,6.017-12.527,6.868a31.325,31.325,0,0,1-7.778-.043c-1.492-.142-3.032-.288-4.524-.288a16.64,16.64,0,0,0-3.228.285c-3.612.7-6.626,2.787-9.818,4.993a45.134,45.134,0,0,1-6.356,3.893c-5.812,2.725-12.516,2.782-18.431,2.832-4.752.04-9.509.079-14.264.079-5.834,0-10.747-.059-15.368-.185a16.19,16.19,0,0,1,.185,12.394c-4.077,11.415-15.494,17.7-32.147,17.7-17.241,0-36.268-7.054-44.263-16.4-3.112-3.64-4.4-7.37-3.812-11.09.766-4.882,3.524-9,8.2-12.251q-4.117-.855-8.23-1.724c-8.364-1.761-17.013-3.584-24.788-7.615C124.05,263.6,116.6,256,110.021,249.3,86.727,225.544,63.407,201.18,40.707,176.88c-5.337-5.714-11.387-12.191-15.354-19.758-4.078-7.778-6.323-17.223-7.072-29.72a156.128,156.128,0,0,1,2.359-37.732C-7.286,148.693-3.631,220.589,30.3,273.994c32.018,50.4,91.008,81.7,153.948,81.71Zm-44.943-18.772c-7.844,0-16.574-3.538-17.3-10.091a5.527,5.527,0,0,1,1.451-4.459c2.27-2.538,7.341-4.052,13.566-4.052,5.979,0,13.286,1.526,16.13,4.936a5.053,5.053,0,0,1,1.191,4.239c-1.264,6.95-8.6,9.427-15.036,9.427m-2.285-17.528c-5.924,0-10.7,1.38-12.765,3.693a4.5,4.5,0,0,0-1.185,3.626c.659,5.932,8.855,9.134,16.232,9.135,6.008,0,12.836-2.245,13.982-8.546a4.008,4.008,0,0,0-.959-3.358c-2.623-3.142-9.577-4.549-15.306-4.549m137.736-10.01a6.23,6.23,0,0,1-4.523-1.73c-1.6-1.6-1.882-3.951-.78-6.61,1.9-4.593,8.02-9.933,13.057-9.933a5.514,5.514,0,0,1,4.588,2.229,7.041,7.041,0,0,1,.379,7.695c-2.262,4.526-8.088,8.349-12.721,8.349m7.754-17.2c-4.633,0-10.29,4.983-12.065,9.27-.925,2.231-.729,4.161.547,5.439a5.181,5.181,0,0,0,3.764,1.415c4.273,0,9.659-3.552,11.761-7.755a6.02,6.02,0,0,0-.278-6.57,4.477,4.477,0,0,0-3.729-1.8m-242.8-25.356c-4.265,0-7.724-6.968-8.139-11.574-.318-3.527,1.036-5.913,3.622-6.386a5.954,5.954,0,0,1,1.045-.095c3.872,0,6.751,3.786,7.887,7.537,1.277,4.219.4,8.08-2.238,9.838a3.874,3.874,0,0,1-2.177.679M36.25,250.4a4.9,4.9,0,0,0-.853.077c-2.754.5-2.9,3.493-2.745,5.233.376,4.167,3.58,10.594,7.069,10.6a2.816,2.816,0,0,0,1.582-.5c2.234-1.49,2.943-4.878,1.806-8.634-1.021-3.371-3.538-6.773-6.859-6.773m4.853-4.231c-6.272,0-11.414-5.893-13.25-11.711-1.77-5.6-.561-10.706,3.155-13.314a6.6,6.6,0,0,1,3.847-1.251c5.927,0,12.2,8.576,13.642,15.955.936,4.789-.311,8.261-3.424,9.525a10.5,10.5,0,0,1-3.97.8m-6.248-25.2a5.552,5.552,0,0,0-3.23,1.056c-3.318,2.328-4.371,6.97-2.747,12.112,1.718,5.446,6.469,10.959,12.225,10.961a9.446,9.446,0,0,0,3.567-.716c2.592-1.054,3.6-4.087,2.776-8.324-1.365-6.977-7.161-15.088-12.59-15.088" transform="translate(0.082 6.041)" fill="#ffe29d"/>
    <path id="Tracé_1928" data-name="Tracé 1928" d="M264.062,258.374a36.065,36.065,0,0,0-14.7-1.346,16.338,16.338,0,0,0-6.782,2.062,7.9,7.9,0,0,0-3.877,5.7c5.428,2.47,11.692,2.135,17.591,1.264,3.69-.546,8.045-1.894,8.973-5.507a1.81,1.81,0,0,0-.229-1.67,2.109,2.109,0,0,0-.974-.507" transform="translate(17.648 18.985)" fill="#ffe29d"/>
    <path id="Tracé_1929" data-name="Tracé 1929" d="M248.672,267.277h0a24.123,24.123,0,0,1-10.153-1.958l-.349-.159.036-.381a8.4,8.4,0,0,1,4.129-6.11,16.621,16.621,0,0,1,7-2.138,36.636,36.636,0,0,1,14.921,1.367,2.586,2.586,0,0,1,1.212.656,2.286,2.286,0,0,1,.353,2.166c-.8,3.114-3.967,5.1-9.414,5.9a52.442,52.442,0,0,1-7.739.652m-9.346-2.775a23.4,23.4,0,0,0,9.346,1.7,51.358,51.358,0,0,0,7.582-.641c4.979-.733,7.848-2.453,8.53-5.109.064-.248.181-.86-.105-1.174a1.718,1.718,0,0,0-.736-.355,35.561,35.561,0,0,0-14.482-1.325,15.617,15.617,0,0,0-6.561,1.984,7.466,7.466,0,0,0-3.575,4.92" transform="translate(17.608 18.948)" fill="#ffe29d"/>
    <path id="Tracé_1930" data-name="Tracé 1930" d="M120.669,241.573a5.108,5.108,0,0,0,2.656-4.232,11.316,11.316,0,0,0-1-5.086,41.379,41.379,0,0,0-6.23-10.31c-2.949-3.709-6.874-7.359-11.612-7.284a4.208,4.208,0,0,0-2.954,1.025c-1.656,1.667-.571,4.465.593,6.507q2.3,4.037,4.614,8.066c2.082,3.625,4.256,7.342,7.571,9.886,1.817,1.4,4.293,2.4,6.366,1.429" transform="translate(7.443 15.87)" fill="#ffe29d"/>
    <path id="Tracé_1931" data-name="Tracé 1931" d="M118.918,242.533h0a8.6,8.6,0,0,1-4.906-1.927c-3.469-2.662-5.722-6.583-7.71-10.044q-2.313-4.029-4.616-8.065c-2.292-4.025-1.54-6.113-.5-7.153a4.668,4.668,0,0,1,3.326-1.182h.151c4,0,7.886,2.45,11.889,7.489a41.657,41.657,0,0,1,6.308,10.445,11.9,11.9,0,0,1,1.038,5.331,5.58,5.58,0,0,1-2.963,4.673,4.72,4.72,0,0,1-2.015.436m-14.259-27.3h-.134a3.761,3.761,0,0,0-2.582.866c-1.4,1.408-.4,3.966.678,5.865q2.3,4.032,4.614,8.062c1.936,3.373,4.132,7.2,7.432,9.728a7.541,7.541,0,0,0,4.252,1.7,3.651,3.651,0,0,0,1.56-.336,4.569,4.569,0,0,0,2.348-3.791,10.924,10.924,0,0,0-.967-4.842,40.614,40.614,0,0,0-6.151-10.172c-3.787-4.767-7.4-7.084-11.049-7.084" transform="translate(7.407 15.833)" fill="#ffe29d"/>
    <path id="Tracé_1932" data-name="Tracé 1932" d="M129.2,247.158c1.661.944,2.679,2.8,4.389,3.65a4.72,4.72,0,0,0,6.489-3.9c.078-3.008-2.705-5.2-5.2-6.881a11.445,11.445,0,0,0-3.26-1.71c-3.222-.88-7.042,2.068-6.5,5.364a3.316,3.316,0,0,0,.707,1.626c.841.987,2.256,1.208,3.384,1.848" transform="translate(9.246 17.608)" fill="#ffe29d"/>
    <path id="Tracé_1933" data-name="Tracé 1933" d="M135.356,251.779h0a4.365,4.365,0,0,1-1.971-.453,9.413,9.413,0,0,1-2.442-1.984,9.378,9.378,0,0,0-1.973-1.681,9.863,9.863,0,0,0-1.183-.537,5.6,5.6,0,0,1-2.344-1.43,3.838,3.838,0,0,1-.826-1.886,4.838,4.838,0,0,1,1.2-3.938,6.113,6.113,0,0,1,5.978-2.032,12,12,0,0,1,3.418,1.782c2.739,1.835,5.524,4.144,5.443,7.34a5.3,5.3,0,0,1-5.3,4.819m-4.9-13.043a5.184,5.184,0,0,0-3.826,1.829,3.787,3.787,0,0,0-.955,3.069,2.788,2.788,0,0,0,.585,1.364,4.745,4.745,0,0,0,1.927,1.131,10.859,10.859,0,0,1,1.313.6,10.326,10.326,0,0,1,2.209,1.863,8.511,8.511,0,0,0,2.155,1.774,3.3,3.3,0,0,0,1.491.34c1.947,0,4.165-1.613,4.222-3.772.07-2.676-2.472-4.748-4.967-6.422a11.01,11.01,0,0,0-3.1-1.637,4.01,4.01,0,0,0-1.051-.139" transform="translate(9.209 17.571)" fill="#ffe29d"/>
    <path id="Tracé_1934" data-name="Tracé 1934" d="M49.339,161.259c.454-5.4-4.344-9.732-5.827-14.939-.612-2.148-.659-4.469-1.622-6.484-1.734-3.629-5.972-5.342-9.955-5.907a3.576,3.576,0,0,0-2.962.511,3.549,3.549,0,0,0-.849,2.432A29.187,29.187,0,0,0,46.17,165.32c.663.258,1.495.462,2.02-.018a2,2,0,0,0,.481-.968,16.226,16.226,0,0,0,.668-3.076" transform="translate(2.075 9.895)" fill="#ffe29d"/>
    <path id="Tracé_1935" data-name="Tracé 1935" d="M47.4,166.166h0a3.9,3.9,0,0,1-1.383-.308A29.53,29.53,0,0,1,27.625,136.87a4.038,4.038,0,0,1,1.021-2.789,3.136,3.136,0,0,1,2.232-.742,8.249,8.249,0,0,1,1.17.095c2.964.42,8.252,1.785,10.365,6.207a15.891,15.891,0,0,1,1.132,4.122c.146.814.3,1.655.521,2.446a26.829,26.829,0,0,0,2.725,5.75c1.677,2.923,3.411,5.945,3.122,9.382a16.57,16.57,0,0,1-.686,3.178,2.483,2.483,0,0,1-.637,1.217,1.7,1.7,0,0,1-1.191.431M30.877,134.413a2.128,2.128,0,0,0-1.5.456,3.091,3.091,0,0,0-.679,2.076c-.82,11.677,6.792,23.677,17.7,27.911.727.281,1.214.316,1.462.086a1.577,1.577,0,0,0,.33-.72,15.757,15.757,0,0,0,.649-2.973c.261-3.1-1.316-5.849-2.983-8.757a27.576,27.576,0,0,1-2.826-5.99,25.875,25.875,0,0,1-.546-2.552,14.935,14.935,0,0,0-1.044-3.849c-1.9-3.969-6.795-5.216-9.547-5.606a7.23,7.23,0,0,0-1.018-.084" transform="translate(2.037 9.858)" fill="#ffe29d"/>
    <path id="Tracé_1936" data-name="Tracé 1936" d="M41.717,125c-.518,6.222,5.027,12.27,11.273,12.291a8.893,8.893,0,0,0,.156-7.744A26.238,26.238,0,0,0,48.7,122.9c-.915-1.1-2.011-2.3-3.443-2.338-2.088-.058-3.364,2.349-3.535,4.43" transform="translate(3.082 8.914)" fill="#ffe29d"/>
    <path id="Tracé_1937" data-name="Tracé 1937" d="M53.332,137.86h-.308a12.359,12.359,0,0,1-11.8-12.872c.2-2.387,1.666-4.924,4-4.924,1.734.047,2.934,1.333,3.93,2.533a26.623,26.623,0,0,1,4.535,6.78,9.4,9.4,0,0,1-.192,8.219Zm-8.059-16.722c-1.685,0-2.823,2-2.984,3.938a11.315,11.315,0,0,0,10.424,11.7,8.483,8.483,0,0,0-.027-7,25.867,25.867,0,0,0-4.367-6.5c-.885-1.067-1.849-2.111-3.045-2.145Z" transform="translate(3.045 8.876)" fill="#ffe29d"/>
    <path id="Tracé_1938" data-name="Tracé 1938" d="M213.622,206.242c-3.345-2.992-7.818-4.317-12.131-5.558-4.693-1.349-9.775-2.688-14.352-.989a11.969,11.969,0,0,0-6.9,14.541,27.031,27.031,0,0,0,23.289,7.621,15.31,15.31,0,0,0,4.354-1.3,21.431,21.431,0,0,0,3.83-2.662c2.26-1.827,4.737-4.121,4.561-7.021a7.113,7.113,0,0,0-2.654-4.627" transform="translate(13.285 14.705)" fill="#ffe29d"/>
    <path id="Tracé_1939" data-name="Tracé 1939" d="M199.432,222.767h0a27.474,27.474,0,0,1-19.538-8.118l-.124-.2a12.452,12.452,0,0,1,7.219-15.219,13.921,13.921,0,0,1,4.933-.832,35.99,35.99,0,0,1,9.753,1.81c4.144,1.191,8.841,2.541,12.342,5.672a7.555,7.555,0,0,1,2.831,4.995c.185,3.036-2.178,5.385-4.759,7.471a21.89,21.89,0,0,1-3.928,2.725,15.584,15.584,0,0,1-4.506,1.354,26.021,26.021,0,0,1-4.223.343m-18.684-8.782a26.767,26.767,0,0,0,18.684,7.708,25.086,25.086,0,0,0,4.049-.328,14.618,14.618,0,0,0,4.2-1.257,21.109,21.109,0,0,0,3.731-2.6c2.357-1.905,4.518-4.021,4.362-6.571a6.7,6.7,0,0,0-2.475-4.258c-3.317-2.968-7.888-4.283-11.921-5.442a35.179,35.179,0,0,0-9.458-1.768,12.9,12.9,0,0,0-4.56.765,11.506,11.506,0,0,0-6.614,13.75" transform="translate(13.247 14.668)" fill="#ffe29d"/>
    <path id="Tracé_1940" data-name="Tracé 1940" d="M238.975,193.831a10.036,10.036,0,0,0-19.265,4.546,5.753,5.753,0,0,0,1.069,3.206,6.216,6.216,0,0,0,3.469,1.966,13.772,13.772,0,0,0,14.319-5.407,4.74,4.74,0,0,0,.815-1.71,4.5,4.5,0,0,0-.406-2.6" transform="translate(16.242 13.878)" fill="#ffe29d"/>
    <path id="Tracé_1941" data-name="Tracé 1941" d="M227.364,204.5h0a13.244,13.244,0,0,1-3.211-.391,6.593,6.593,0,0,1-3.76-2.156,6.22,6.22,0,0,1-1.181-3.5,10.953,10.953,0,0,1,8.121-10.979,9.731,9.731,0,0,1,2.235-.257,10.97,10.97,0,0,1,9.939,6.445,4.953,4.953,0,0,1,.438,2.916,5.325,5.325,0,0,1-.9,1.907,14.307,14.307,0,0,1-11.681,6.016m2.2-16.21a8.659,8.659,0,0,0-1.988.228,9.841,9.841,0,0,0-7.3,9.863,5.191,5.191,0,0,0,.955,2.909,5.584,5.584,0,0,0,3.177,1.776,12.112,12.112,0,0,0,2.949.36,13.22,13.22,0,0,0,10.8-5.551,4.293,4.293,0,0,0,.731-1.511,3.936,3.936,0,0,0-.376-2.285,9.868,9.868,0,0,0-8.949-5.788" transform="translate(16.205 13.841)" fill="#ffe29d"/>
    <path id="Tracé_1942" data-name="Tracé 1942" d="M228.671,73.736a37.044,37.044,0,0,0-14.526-8.018,17.35,17.35,0,0,0-8.186-.656,8.519,8.519,0,0,0-6.305,4.851c-1.105,2.8-.151,6.1,1.735,8.443a20.639,20.639,0,0,0,7.279,5.223,60.668,60.668,0,0,0,13.882,4.85c3.229.688,7.051.918,9.371-1.433a7.058,7.058,0,0,0,1.248-7.163,15.155,15.155,0,0,0-4.5-6.1" transform="translate(14.726 4.792)" fill="#ffe29d"/>
    <path id="Tracé_1943" data-name="Tracé 1943" d="M226.543,89.473h0a19.535,19.535,0,0,1-4.069-.482,61.17,61.17,0,0,1-14-4.893,21.257,21.257,0,0,1-7.463-5.368c-2.182-2.716-2.9-6.24-1.816-8.978a9.026,9.026,0,0,1,6.7-5.178,17.553,17.553,0,0,1,8.44.666,37.622,37.622,0,0,1,14.738,8.134,15.921,15.921,0,0,1,4.648,6.321,7.533,7.533,0,0,1-1.372,7.716,7.818,7.818,0,0,1-5.8,2.062M208.523,65.389a12.039,12.039,0,0,0-2.42.236,7.951,7.951,0,0,0-5.914,4.522,8.235,8.235,0,0,0,1.655,7.91,20.3,20.3,0,0,0,7.1,5.076A60.16,60.16,0,0,0,222.7,87.94a18.509,18.509,0,0,0,3.845.459,6.8,6.8,0,0,0,5.032-1.742c1.74-1.764,1.816-4.592,1.122-6.613a14.938,14.938,0,0,0-4.35-5.871,36.558,36.558,0,0,0-14.313-7.9,20.2,20.2,0,0,0-5.511-.884" transform="translate(14.69 4.755)" fill="#ffe29d"/>
    <path id="Tracé_1944" data-name="Tracé 1944" d="M260.143,76.641a34.577,34.577,0,0,0-18.376-6.97,4.8,4.8,0,0,0-3.517.728c-1.388,1.185-1.119,3.4-.433,5.093a15.967,15.967,0,0,0,10.138,9.168,11.156,11.156,0,0,0,8.557-.639c2.557-1.447,4.283-4.515,3.631-7.38" transform="translate(17.541 5.148)" fill="#ffe29d"/>
    <path id="Tracé_1945" data-name="Tracé 1945" d="M251.72,85.786h0a13.793,13.793,0,0,1-3.879-.573,16.61,16.61,0,0,1-10.485-9.481c-.368-.907-1.414-4,.581-5.7a4.36,4.36,0,0,1,2.977-.892c.313,0,.624.016.928.038a35.276,35.276,0,0,1,18.664,7.078l.155.118.043.19a7.59,7.59,0,0,1-3.89,7.966,10.215,10.215,0,0,1-5.094,1.26M240.915,70.21a3.373,3.373,0,0,0-2.28.636c-1.15.983-.9,2.96-.284,4.483a15.511,15.511,0,0,0,9.793,8.854,10.636,10.636,0,0,0,8.141-.59,6.636,6.636,0,0,0,3.409-6.608,34.2,34.2,0,0,0-17.929-6.74c-.279-.019-.564-.034-.851-.034" transform="translate(17.504 5.111)" fill="#ffe29d"/>
    <path id="Tracé_1946" data-name="Tracé 1946" d="M123.428,67.489a14.8,14.8,0,0,0,7.749.378c2.522-.706,4.809-2.758,5.1-5.36a10.453,10.453,0,0,0-1.029-4.854,11.052,11.052,0,0,0-2.69-4.571,11.034,11.034,0,0,0-4.236-1.931l-8.844-2.592c-3.488-1.022-7.657-1.917-10.427.436-2.337,1.984-2.594,5.686-1.27,8.452s3.881,4.736,6.535,6.27a37.685,37.685,0,0,0,9.108,3.773" transform="translate(7.91 3.512)" fill="#ffe29d"/>
    <path id="Tracé_1947" data-name="Tracé 1947" d="M128.373,68.81h0a19.4,19.4,0,0,1-5.047-.766,38.169,38.169,0,0,1-9.237-3.826c-3.434-1.985-5.579-4.051-6.751-6.5-1.336-2.791-1.281-6.812,1.407-9.094a7.291,7.291,0,0,1,4.932-1.616,21.969,21.969,0,0,1,5.994,1.075l8.844,2.592a11.514,11.514,0,0,1,4.436,2.039,11.647,11.647,0,0,1,2.838,4.783,10.9,10.9,0,0,1,1.063,5.11c-.346,3.053-3.008,5.121-5.492,5.815a11.063,11.063,0,0,1-2.987.39m-14.7-20.731a6.269,6.269,0,0,0-4.237,1.361c-2.249,1.911-2.263,5.451-1.133,7.813,1.075,2.247,3.082,4.165,6.319,6.035a37.115,37.115,0,0,0,8.977,3.719,18.38,18.38,0,0,0,4.77.729,10,10,0,0,0,2.7-.35,6.269,6.269,0,0,0,4.715-4.9,10.076,10.076,0,0,0-1-4.6,10.682,10.682,0,0,0-2.54-4.358,10.7,10.7,0,0,0-4.036-1.821l-8.844-2.592a21.026,21.026,0,0,0-5.692-1.032" transform="translate(7.872 3.475)" fill="#ffe29d"/>
    <path id="Tracé_1948" data-name="Tracé 1948" d="M140.007,86.509c2.514.532,5.628.857,7.181-1.19,1.839-2.423-.209-5.9-2.6-7.783a21.164,21.164,0,0,0-7.246-3.7c-2.171-.621-4.727-.816-6.482.6-2.476,2.005-1.834,6.221.45,8.442s5.58,2.972,8.7,3.63" transform="translate(9.558 5.424)" fill="#ffe29d"/>
    <path id="Tracé_1949" data-name="Tracé 1949" d="M143.285,87.482h0a16.157,16.157,0,0,1-3.351-.411c-2.892-.611-6.493-1.372-8.96-3.771a7.442,7.442,0,0,1-2.189-5.512,4.991,4.991,0,0,1,1.776-3.732c1.608-1.3,4.044-1.539,6.969-.7a21.877,21.877,0,0,1,7.431,3.8c2.781,2.19,4.672,5.923,2.693,8.528a5.153,5.153,0,0,1-4.369,1.8m-8.949-13.548a4.8,4.8,0,0,0-3.1.957,3.923,3.923,0,0,0-1.379,2.945,6.429,6.429,0,0,0,1.864,4.694c2.245,2.182,5.677,2.907,8.434,3.489a15.091,15.091,0,0,0,3.128.389h0a4.1,4.1,0,0,0,3.514-1.378c1.659-2.188-.464-5.432-2.5-7.035a20.742,20.742,0,0,0-7.061-3.611,10.655,10.655,0,0,0-2.9-.45" transform="translate(9.521 5.387)" fill="#ffe29d"/>
    <path id="Tracé_1950" data-name="Tracé 1950" d="M297.436,178.29q6.819,1.265,13.721,2c2.374.252,5,.391,6.905-1.052a6.169,6.169,0,0,0,2.159-3.572c.8-3.491-.825-7.2-3.361-9.726s-5.871-4.077-9.2-5.408c-3.965-1.588-8.252-2.963-12.45-2.171s-8.138,4.463-7.789,8.721a13.44,13.44,0,0,0,1.891,5.1,12.236,12.236,0,0,0,3.387,4.486,11.813,11.813,0,0,0,4.734,1.626" transform="translate(21.248 11.691)" fill="#ffe29d"/>
    <path id="Tracé_1951" data-name="Tracé 1951" d="M313.7,181.022h0a24.475,24.475,0,0,1-2.557-.163c-4.6-.489-9.227-1.162-13.762-2a12.264,12.264,0,0,1-4.944-1.715,12.676,12.676,0,0,1-3.551-4.672,13.929,13.929,0,0,1-1.952-5.31c-.388-4.709,3.967-8.489,8.223-9.292a14.22,14.22,0,0,1,2.639-.241,28.037,28.037,0,0,1,10.111,2.439c3.329,1.334,6.768,2.926,9.376,5.529,2.933,2.924,4.276,6.842,3.505,10.224a6.69,6.69,0,0,1-2.358,3.881,7.473,7.473,0,0,1-4.727,1.322M297.788,158.7a13.183,13.183,0,0,0-2.439.221c-3.8.716-7.69,4.036-7.353,8.149a13.138,13.138,0,0,0,1.829,4.891,11.889,11.889,0,0,0,3.222,4.3,11.254,11.254,0,0,0,4.523,1.538c4.508.836,9.11,1.506,13.68,1.991a23.568,23.568,0,0,0,2.444.157,6.479,6.479,0,0,0,4.08-1.1,5.625,5.625,0,0,0,1.961-3.264c.688-3.024-.543-6.56-3.219-9.225-2.47-2.466-5.794-4-9.016-5.291a27.091,27.091,0,0,0-9.713-2.363" transform="translate(21.211 11.654)" fill="#ffe29d"/>
    <path id="Tracé_1952" data-name="Tracé 1952" d="M319.412,156.085c-1.342,2.027-.3,4.983,1.713,6.345s4.649,1.433,7.04.987c2.04-.38,4.344-1.479,4.609-3.539.32-2.489-2.482-4.131-4.865-4.922-2.925-.97-6.795-1.441-8.5,1.129" transform="translate(23.57 11.399)" fill="#ffe29d"/>
    <path id="Tracé_1953" data-name="Tracé 1953" d="M325.687,164.236h0a8.456,8.456,0,0,1-4.826-1.323c-2.141-1.448-3.431-4.713-1.86-7.086a5.226,5.226,0,0,1,4.688-2.145,14.659,14.659,0,0,1,4.426.8c3.564,1.183,5.52,3.239,5.229,5.5-.374,2.907-3.955,3.8-5.044,4a14.333,14.333,0,0,1-2.612.253m-2-9.48a4.223,4.223,0,0,0-3.792,1.664c-1.191,1.8-.155,4.44,1.567,5.6a7.416,7.416,0,0,0,4.224,1.138,13.128,13.128,0,0,0,2.414-.236c1.873-.348,3.953-1.34,4.177-3.078.326-2.537-3.364-3.966-4.5-4.344a13.622,13.622,0,0,0-4.088-.747" transform="translate(23.533 11.362)" fill="#ffe29d"/>
    <path id="Tracé_1954" data-name="Tracé 1954" d="M56.34,68.845a15.934,15.934,0,0,0,6.135,1,6.066,6.066,0,0,0,5.056-3.178C69,63.433,66.25,59.741,63.1,58.088a15.982,15.982,0,0,0-7.931-1.812c-2.667.091-5.659,1.179-6.571,3.687-.754,2.074.235,4.466,1.861,5.958a15.184,15.184,0,0,0,5.879,2.923" transform="translate(3.574 4.16)" fill="#ffe29d"/>
    <path id="Tracé_1955" data-name="Tracé 1955" d="M61.685,70.458h0a18.653,18.653,0,0,1-5.47-1.064,15.616,15.616,0,0,1-6.081-3.04c-1.635-1.5-2.888-4.1-2-6.537,1.031-2.836,4.322-3.946,7.058-4.039a16.561,16.561,0,0,1,8.2,1.872c3.527,1.851,6.238,5.829,4.669,9.279a6.531,6.531,0,0,1-5.5,3.49c-.293.027-.584.04-.876.04M55.744,56.842c-.172,0-.344,0-.515.009-2.386.082-5.238,1-6.086,3.333-.716,1.969.347,4.12,1.718,5.379a14.717,14.717,0,0,0,5.676,2.805,17.7,17.7,0,0,0,5.148,1.016c.259,0,.52-.012.78-.035a5.538,5.538,0,0,0,4.616-2.864c1.289-2.835-1.173-6.3-4.192-7.884a15.421,15.421,0,0,0-7.145-1.759" transform="translate(3.537 4.123)" fill="#ffe29d"/>
    <path id="Tracé_1956" data-name="Tracé 1956" d="M134.862,294.487a14.324,14.324,0,0,0-1.972-18.316c-5.8-5.246-14.647-4.684-22.4-3.613-.755,4.475.853,9.106,3.506,12.787s6.277,6.542,9.977,9.17c2.514,1.784,5.747,3.546,8.508,2.175a6.727,6.727,0,0,0,2.377-2.2" transform="translate(8.155 20.098)" fill="#ffd289"/>
    <path id="Tracé_1957" data-name="Tracé 1957" d="M101.835,297.667a7.194,7.194,0,0,0,7.306-5.846,8.936,8.936,0,0,0-4.056-8.793,11.884,11.884,0,0,0-9.88-1.105,14.542,14.542,0,0,0-.518,8.445c.853,3.536,3.526,6.971,7.148,7.3" transform="translate(6.971 20.799)" fill="#ffd289"/>
    <path id="Tracé_1958" data-name="Tracé 1958" d="M63.494,208.558a30.4,30.4,0,0,0-23.1-14.128c-1.455,3.269.438,7.032,2.632,9.86a76.546,76.546,0,0,0,9.332,9.605c1.769,1.6,3.635,3.231,5.927,3.892s5.133.049,6.324-2.017c1.278-2.217.226-5.034-1.116-7.213" transform="translate(2.949 14.375)" fill="#ffd289"/>
    <path id="Tracé_1959" data-name="Tracé 1959" d="M246.464,302.909a5.675,5.675,0,0,0-2.916-3.756,13.312,13.312,0,0,0-7.016-1.229,19.316,19.316,0,0,0-8.23,1.767,8.974,8.974,0,0,0-4.988,6.46c3.763,4.5,10.468,5.538,16.164,4.149,3.638-.889,7.658-3.705,6.986-7.391" transform="translate(16.51 22.025)" fill="#fff8b5"/>
    <path id="Tracé_1960" data-name="Tracé 1960" d="M307.3,252.172c-4.23.954-8.188,4.128-11.494,6.89-.641.535.174,1.389.833,1.08,3.884-1.818,8.392-3.531,11.592-6.373.757-.671-.053-1.8-.931-1.6" transform="translate(21.852 18.642)" fill="#ffe29d"/>
    <path id="Tracé_1961" data-name="Tracé 1961" d="M296.377,260.782a1.354,1.354,0,0,1-1.242-.858,1.085,1.085,0,0,1,.359-1.237c3.618-3.022,7.5-6.051,11.72-7a1.6,1.6,0,0,1,1.792.99,1.346,1.346,0,0,1-.387,1.534c-2.674,2.374-6.163,3.945-9.538,5.462-.74.333-1.472.663-2.182.994a1.221,1.221,0,0,1-.522.116m11.161-8.059c-4.072.907-7.84,3.85-11.357,6.787-.043.1.135.248.262.183.715-.334,1.452-.666,2.2-1,3.3-1.485,6.714-3.021,9.266-5.286a.288.288,0,0,0,.1-.349.53.53,0,0,0-.464-.334" transform="translate(21.815 18.605)" fill="#ffe29d"/>
    <path id="Tracé_1962" data-name="Tracé 1962" d="M314.076,245.866c-.525.243-1.077.384-1.611.624a3.646,3.646,0,0,0-.738.623c-.265.233-.506.5-.755.751a1.1,1.1,0,0,0,1.322,1.714c.5-.282.982-.571,1.458-.885.584-.386.845-1.071,1.279-1.588a.792.792,0,0,0-.956-1.238" transform="translate(22.967 18.171)" fill="#ffe29d"/>
    <path id="Tracé_1963" data-name="Tracé 1963" d="M311.8,250.3a1.676,1.676,0,0,1-1.514-1.045,1.547,1.547,0,0,1,.348-1.731l.213-.218c.184-.192.368-.383.567-.557.056-.049.115-.107.176-.169a2.478,2.478,0,0,1,.7-.542c.271-.121.547-.22.824-.318.262-.093.524-.186.781-.3a1.367,1.367,0,0,1,1.809.623,1.336,1.336,0,0,1-.216,1.449,5.16,5.16,0,0,0-.378.536,3.67,3.67,0,0,1-1.018,1.154c-.488.322-.983.614-1.488.9a1.614,1.614,0,0,1-.8.218m2.7-3.948a.39.39,0,0,0-.161.04c-.287.131-.578.236-.872.34-.249.088-.5.176-.745.286a1.952,1.952,0,0,0-.381.325c-.077.076-.151.149-.222.212-.175.155-.339.325-.5.5l-.223.231a.483.483,0,0,0-.117.562.554.554,0,0,0,.79.306c.488-.276.963-.558,1.429-.866a2.78,2.78,0,0,0,.709-.842,6.245,6.245,0,0,1,.455-.643.279.279,0,0,0,.068-.3.248.248,0,0,0-.226-.142" transform="translate(22.93 18.134)" fill="#ffe29d"/>
    <path id="Tracé_1964" data-name="Tracé 1964" d="M82,205.265c-2.791-4-6.94-7.091-10.339-10.591a106.979,106.979,0,0,1-12.15-15.066,1.007,1.007,0,0,0-1.738,1.016A106.994,106.994,0,0,0,66.7,194.578c3.606,4.642,7.629,10.293,12.942,13.051,1.425.74,3.424-.847,2.366-2.365" transform="translate(4.261 13.244)" fill="#ffe29d"/>
    <path id="Tracé_1965" data-name="Tracé 1965" d="M80.454,208.392h0a2.207,2.207,0,0,1-1.027-.249c-4.925-2.557-8.739-7.511-12.1-11.883l-1.016-1.316a107.692,107.692,0,0,1-8.965-14.023,1.482,1.482,0,0,1-.01-1.5,1.626,1.626,0,0,1,1.38-.782,1.533,1.533,0,0,1,1.284.709,106.274,106.274,0,0,0,12.088,14.99c1.136,1.171,2.385,2.32,3.593,3.43a46.163,46.163,0,0,1,6.8,7.228,1.974,1.974,0,0,1,.165,2.1,2.52,2.52,0,0,1-2.192,1.3m-21.741-28.68a.547.547,0,0,0-.454.252.415.415,0,0,0,.024.437,106.57,106.57,0,0,0,8.873,13.885l1.02,1.319c3.3,4.284,7.032,9.137,11.747,11.586a1.429,1.429,0,0,0,1.772-.6.9.9,0,0,0-.094-.985,45.269,45.269,0,0,0-6.649-7.053c-1.219-1.121-2.478-2.281-3.635-3.472A107.475,107.475,0,0,1,59.1,179.943a.458.458,0,0,0-.391-.231" transform="translate(4.224 13.207)" fill="#ffe29d"/>
    <path id="Tracé_1966" data-name="Tracé 1966" d="M89.255,210.948a8.806,8.806,0,0,0-1.76-1.472,11.841,11.841,0,0,0-2.395-1.058,1.148,1.148,0,0,0-1.109,1.906,10.353,10.353,0,0,0,1.9,1.334,9.516,9.516,0,0,0,2.438.889.963.963,0,0,0,.931-1.6" transform="translate(6.184 15.406)" fill="#ffe29d"/>
    <path id="Tracé_1967" data-name="Tracé 1967" d="M88.608,213.155a1.474,1.474,0,0,1-.391-.055l-.321-.089a8.6,8.6,0,0,1-2.251-.857,10.778,10.778,0,0,1-1.988-1.4,1.591,1.591,0,0,1-.386-1.772,1.724,1.724,0,0,1,2-1.044,10.338,10.338,0,0,1,2.16.921l.345.179a6.394,6.394,0,0,1,1.493,1.187c.129.125.257.249.384.366a1.4,1.4,0,0,1,.357,1.572,1.536,1.536,0,0,1-1.4.994m-3.758-4.2a.659.659,0,0,0-.581.425.507.507,0,0,0,.128.594,9.562,9.562,0,0,0,1.719,1.212,7.712,7.712,0,0,0,2.064.791l.427.105a.465.465,0,0,0,.4-.31.327.327,0,0,0-.083-.391c-.135-.126-.271-.257-.406-.39a5.624,5.624,0,0,0-1.235-1l-.351-.183A9.363,9.363,0,0,0,85,208.973a.611.611,0,0,0-.15-.02" transform="translate(6.148 15.369)" fill="#ffe29d"/>
    <path id="Tracé_1968" data-name="Tracé 1968" d="M21.241,156.882c-1.054-3.126-2.379-6.142-3.365-9.293a104.6,104.6,0,0,1-2.333-11.035c-.231-1.163-1.921-.817-1.977.268a36.96,36.96,0,0,0,5.435,21c.733,1.114,2.7.43,2.239-.944" transform="translate(1 10.042)" fill="#fff8b5"/>
    <path id="Tracé_1969" data-name="Tracé 1969" d="M28.675,169.728a26.055,26.055,0,0,0-1.9-2.7,26.59,26.59,0,0,0-2.431-2.4c-.8-.715-2.232.235-1.554,1.2a27.594,27.594,0,0,0,2.011,2.64,25.452,25.452,0,0,0,2.529,2.3c.7.6,1.914-.179,1.345-1.037" transform="translate(1.672 12.152)" fill="#fff8b5"/>
    <path id="Tracé_1970" data-name="Tracé 1970" d="M139.046,265.167a56.127,56.127,0,0,0-9.6-2.41,1.058,1.058,0,0,0-.562,2.039,57.538,57.538,0,0,0,9.884,2.414c1.255.148,1.28-1.654.277-2.044" transform="translate(9.473 19.424)" fill="#fff8b5"/>
    <path id="Tracé_1971" data-name="Tracé 1971" d="M244.108,275.41a91.656,91.656,0,0,0-13.961-.032.956.956,0,0,0,0,1.912,91.935,91.935,0,0,0,13.961-.032.924.924,0,0,0,0-1.847" transform="translate(16.947 20.34)" fill="#fff8b5"/>
  </g>
</svg>
