<?xml version="1.0" encoding="utf-8"?>
<!-- Generator: Adobe Illustrator 26.3.1, SVG Export Plug-In . SVG Version: 6.00 Build 0)  -->
<svg version="1.1" id="Calque_1" xmlns="http://www.w3.org/2000/svg" xmlns:xlink="http://www.w3.org/1999/xlink" x="0px" y="0px"
	 viewBox="0 0 151.4 151.2" style="enable-background:new 0 0 151.4 151.2;" xml:space="preserve">
<style type="text/css">
	.st0{fill:#27231F;}
	.st1{fill:#322C29;}
	.st2{fill:#E8E8E6;}
	.st3{fill:#898888;}
</style>
<g>
	<path id="Tracé_2181_00000123402355999621557860000006058883909957966507_" class="st0" d="M42.9,75c0,29.4,23.8,53.2,53.2,53.2
		c29.4,0,53.2-23.8,53.2-53.2c0-29.4-23.8-53.2-53.2-53.2C66.7,21.8,42.9,45.6,42.9,75"/>
	<path id="Tracé_2182_00000045594930251283603160000006824113461529256576_" class="st0" d="M47.2,75c0,27,21.9,49,49,49
		s49-21.9,49-49c0-27-21.9-49-49-49h0C69.1,26.1,47.2,48,47.2,75"/>
	<path id="Tracé_2183_00000062909978236378537420000006205474725443709092_" class="st0" d="M76.6,75c0,10.8,8.8,19.6,19.6,19.6
		s19.6-8.8,19.6-19.6c0-10.8-8.8-19.6-19.6-19.6c0,0,0,0,0,0C85.3,55.5,76.6,64.2,76.6,75"/>
	<path id="Tracé_2184_00000175305674843981013280000016504156574932403093_" class="st0" d="M90.5,75c0,3.1,2.5,5.7,5.7,5.7
		s5.7-2.5,5.7-5.7c0-3.1-2.5-5.7-5.7-5.7C93,69.3,90.5,71.9,90.5,75C90.5,75,90.5,75,90.5,75"/>
	<path id="Tracé_2185_00000075856473364661234110000004810333668012956318_" class="st0" d="M93.3,62.8c0,1.6,1.3,2.9,2.9,2.9
		s2.9-1.3,2.9-2.9c0-1.6-1.3-2.9-2.9-2.9C94.6,60,93.3,61.3,93.3,62.8L93.3,62.8"/>
	<path id="Tracé_2186_00000129196660605637572010000001920215562726583721_" class="st0" d="M93.3,87.2c0,1.6,1.3,2.9,2.9,2.9
		s2.9-1.3,2.9-2.9c0-1.6-1.3-2.9-2.9-2.9C94.6,84.3,93.3,85.6,93.3,87.2C93.3,87.2,93.3,87.2,93.3,87.2"/>
	<path id="Tracé_2187_00000076587201323366779670000003614608276704332443_" class="st0" d="M84,77.9c1.6,0,2.9-1.3,2.9-2.9
		c0-1.6-1.3-2.9-2.9-2.9c-1.6,0-2.9,1.3-2.9,2.9c0,0,0,0,0,0C81.1,76.6,82.4,77.9,84,77.9"/>
	<path id="Tracé_2188_00000092434456210415819800000007109674770779985299_" class="st0" d="M108.3,77.9c1.6,0,2.9-1.3,2.9-2.9
		s-1.3-2.9-2.9-2.9c-1.6,0-2.9,1.3-2.9,2.9c0,0,0,0,0,0C105.5,76.6,106.8,77.9,108.3,77.9"/>
	
		<rect id="Rectangle_340_00000084509013622402696810000010720720174819573425_" x="94.7" y="30.9" class="st0" width="2.9" height="16.7"/>
	
		<rect id="Rectangle_341_00000159452910040949512750000006152908757595789723_" x="94.7" y="102.4" class="st0" width="2.9" height="16.7"/>
	
		<rect id="Rectangle_342_00000075871684325591418480000002524874166802096004_" x="123.6" y="73.5" class="st0" width="16.7" height="2.9"/>
	
		<rect id="Rectangle_343_00000018228294843765212680000009875804955693794953_" x="52" y="73.5" class="st0" width="16.7" height="2.9"/>
	
		<rect id="Rectangle_344_00000112592647333673625070000002978142703841310609_" x="113.1" y="48.3" transform="matrix(0.7071 -0.7071 0.7071 0.7071 0.401 100.4327)" class="st0" width="16.7" height="2.9"/>
	
		<rect id="Rectangle_345_00000132785211957972118160000018277454742481951902_" x="62.5" y="98.8" transform="matrix(0.7071 -0.7071 0.7071 0.7071 -50.1662 79.4892)" class="st0" width="16.7" height="2.9"/>
	
		<rect id="Rectangle_346_00000071555811023663214820000011677002237629291657_" x="120" y="91.9" transform="matrix(0.7069 -0.7073 0.7073 0.7069 -35.3512 115.2837)" class="st0" width="2.9" height="16.7"/>
	
		<rect id="Rectangle_347_00000166672587086097005310000010155064356454352309_" x="69.4" y="41.4" transform="matrix(0.7068 -0.7074 0.7074 0.7068 -14.4032 64.719)" class="st0" width="2.9" height="16.7"/>
	
		<rect id="Rectangle_348_00000090258196703135908380000005814351957336940447_" x="101.2" y="40.4" transform="matrix(0.3759 -0.9267 0.9267 0.3759 29.5922 127.6994)" class="st0" width="16.7" height="2.9"/>
	
		<rect id="Rectangle_349_00000126301433278878215640000002759301179216793520_" x="74.4" y="106.7" transform="matrix(0.3759 -0.9267 0.9267 0.3759 -48.5937 144.144)" class="st0" width="16.7" height="2.9"/>
	
		<rect id="Rectangle_350_00000180338422278843504940000014511800897265081226_" x="127.8" y="80.1" transform="matrix(0.3758 -0.9267 0.9267 0.3758 -1.2741 175.0265)" class="st0" width="2.9" height="16.7"/>
	
		<rect id="Rectangle_351_00000119836232560016783790000014817893874025157547_" x="61.6" y="53.2" transform="matrix(0.3761 -0.9266 0.9266 0.3761 -17.735 96.8104)" class="st0" width="2.9" height="16.7"/>
	
		<rect id="Rectangle_352_00000028324440027067086710000005630729188176210087_" x="120.7" y="59.6" transform="matrix(0.921 -0.3895 0.3895 0.921 -13.6013 55.1002)" class="st0" width="16.7" height="2.9"/>
	
		<rect id="Rectangle_353_00000165206693817082824350000014792587595424907685_" x="54.9" y="87.5" transform="matrix(0.9211 -0.3893 0.3893 0.9211 -29.6399 31.6325)" class="st0" width="16.7" height="2.9"/>
	
		<rect id="Rectangle_354_00000176014343164670313340000015262201411013883817_" x="108.6" y="99.6" transform="matrix(0.921 -0.3895 0.3895 0.921 -33.352 51.3964)" class="st0" width="2.9" height="16.7"/>
	
		<rect id="Rectangle_355_00000057111437076390607000000017472729923372350142_" x="80.8" y="33.7" transform="matrix(0.921 -0.3895 0.3895 0.921 -9.8975 35.3494)" class="st0" width="2.9" height="16.7"/>
	<path id="Tracé_2207_00000176009566401875844330000014140600997992890267_" class="st0" d="M1.9,75c0,41,33.2,74.2,74.2,74.2
		c41,0,74.2-33.2,74.2-74.2c0-41-33.2-74.2-74.2-74.2S1.9,34,1.9,75L1.9,75"/>
	<path id="Tracé_2208_00000114058756863358434540000014097934753171040404_" class="st1" d="M7.9,75c0,37.7,30.6,68.2,68.2,68.2
		c37.7,0,68.2-30.6,68.2-68.2c0-37.7-30.6-68.2-68.2-68.2l0,0C38.5,6.8,7.9,37.3,7.9,75"/>
	<path id="Tracé_2209_00000122703647845024591690000016787794916838269117_" class="st2" d="M22.9,75c0,29.4,23.8,53.2,53.2,53.2
		c29.4,0,53.2-23.8,53.2-53.2c0-29.4-23.8-53.2-53.2-53.2C46.7,21.8,22.9,45.6,22.9,75"/>
	<path id="Tracé_2210_00000016794214208171671020000001492958981980233091_" class="st3" d="M27.2,75c0,27,21.9,49,49,49
		c27,0,49-21.9,49-49c0-27-21.9-49-49-49C49.1,26.1,27.2,48,27.2,75"/>
	<path id="Tracé_2211_00000030465909920534007410000007862968658975082397_" class="st2" d="M56.6,75c0,10.8,8.8,19.6,19.6,19.6
		c10.8,0,19.6-8.8,19.6-19.6c0-10.8-8.8-19.6-19.6-19.6C65.3,55.5,56.6,64.2,56.6,75"/>
	<path id="Tracé_2212_00000100357229293227391730000015938698938475418501_" class="st1" d="M70.5,75c0,3.1,2.5,5.7,5.7,5.7
		s5.7-2.5,5.7-5.7c0-3.1-2.5-5.7-5.7-5.7C73,69.3,70.5,71.9,70.5,75C70.5,75,70.5,75,70.5,75"/>
	<path id="Tracé_2213_00000124858553032620985940000009933171378456393637_" class="st1" d="M73.3,62.8c0,1.6,1.3,2.9,2.9,2.9
		c1.6,0,2.9-1.3,2.9-2.9c0-1.6-1.3-2.9-2.9-2.9C74.6,60,73.3,61.3,73.3,62.8"/>
	<path id="Tracé_2214_00000090996169243027112810000009688348645622487996_" class="st1" d="M73.3,87.2c0,1.6,1.3,2.9,2.9,2.9
		s2.9-1.3,2.9-2.9c0-1.6-1.3-2.9-2.9-2.9C74.6,84.3,73.3,85.6,73.3,87.2"/>
	<path id="Tracé_2215_00000177482966001011055700000007544819667503445944_" class="st1" d="M64,77.9c1.6,0,2.9-1.3,2.9-2.9
		c0-1.6-1.3-2.9-2.9-2.9c-1.6,0-2.9,1.3-2.9,2.9c0,0,0,0,0,0C61.1,76.6,62.4,77.9,64,77.9"/>
	<path id="Tracé_2216_00000153665479256128486670000012102221401913806979_" class="st1" d="M88.3,77.9c1.6,0,2.9-1.3,2.9-2.9
		c0-1.6-1.3-2.9-2.9-2.9c-1.6,0-2.9,1.3-2.9,2.9c0,0,0,0,0,0C85.5,76.6,86.7,77.9,88.3,77.9"/>
	
		<rect id="Rectangle_382_00000179640216752279313750000000216691602370450329_" x="74.7" y="30.9" class="st1" width="2.9" height="16.7"/>
	
		<rect id="Rectangle_383_00000138546457515982373390000013934498542249110432_" x="74.7" y="102.4" class="st1" width="2.9" height="16.7"/>
	
		<rect id="Rectangle_384_00000021823098298583362850000003572582272390567828_" x="103.5" y="73.5" class="st1" width="16.7" height="2.9"/>
	
		<rect id="Rectangle_385_00000121272948835321510400000005012566249856310207_" x="32" y="73.5" class="st1" width="16.7" height="2.9"/>
	
		<rect id="Rectangle_386_00000137821143801580092890000010025552009621974167_" x="93.1" y="48.3" transform="matrix(0.7071 -0.7071 0.7071 0.7071 -5.4574 86.2891)" class="st1" width="16.7" height="2.9"/>
	
		<rect id="Rectangle_387_00000107585935727122320720000015586272207824028327_" x="42.5" y="98.8" transform="matrix(0.7071 -0.7071 0.7071 0.7071 -56.0247 65.3456)" class="st1" width="16.7" height="2.9"/>
	
		<rect id="Rectangle_388_00000160178673367711509440000010885822865064905150_" x="100" y="91.9" transform="matrix(0.7069 -0.7073 0.7073 0.7069 -41.2131 101.1367)" class="st1" width="2.9" height="16.7"/>
	
		<rect id="Rectangle_389_00000111169989334727188550000010016581165186939819_" x="49.4" y="41.4" transform="matrix(0.7068 -0.7074 0.7074 0.7068 -20.2684 50.5688)" class="st1" width="2.9" height="16.7"/>
	
		<rect id="Rectangle_390_00000142882237254814766340000009778497932950659513_" x="81.2" y="40.4" transform="matrix(0.3759 -0.9267 0.9267 0.3759 17.1083 109.1641)" class="st1" width="16.7" height="2.9"/>
	
		<rect id="Rectangle_391_00000008132924676961047910000017748763792279089547_" x="54.3" y="106.7" transform="matrix(0.3759 -0.9267 0.9267 0.3759 -61.0776 125.6087)" class="st1" width="16.7" height="2.9"/>
	
		<rect id="Rectangle_392_00000119113280830218031450000002492267184811758232_" x="107.8" y="80.1" transform="matrix(0.3761 -0.9266 0.9266 0.3761 -13.7819 156.4518)" class="st1" width="2.9" height="16.7"/>
	
		<rect id="Rectangle_393_00000160163355987908438570000009220137248495728262_" x="41.5" y="53.2" transform="matrix(0.3761 -0.9266 0.9266 0.3761 -30.2147 78.2768)" class="st1" width="2.9" height="16.7"/>
	
		<rect id="Rectangle_394_00000166643494105237614040000011837732027257143201_" x="100.7" y="59.6" transform="matrix(0.921 -0.3895 0.3895 0.921 -15.1806 47.3101)" class="st1" width="16.7" height="2.9"/>
	
		<rect id="Rectangle_395_00000108287568591869635650000001584504756755196056_" x="34.9" y="87.5" transform="matrix(0.9211 -0.3893 0.3893 0.9211 -31.2182 23.8447)" class="st1" width="16.7" height="2.9"/>
	
		<rect id="Rectangle_396_00000009570360971798889830000014534011815642605736_" x="88.6" y="99.6" transform="matrix(0.921 -0.3895 0.3895 0.921 -34.9314 43.606)" class="st1" width="2.9" height="16.7"/>
	
		<rect id="Rectangle_397_00000152261102564500076520000017516677349383226559_" x="60.8" y="33.7" transform="matrix(0.921 -0.3895 0.3895 0.921 -11.4769 27.5591)" class="st1" width="2.9" height="16.7"/>
</g>
</svg>
