<?xml version="1.0" encoding="UTF-8"?><svg id="Calque_2" xmlns="http://www.w3.org/2000/svg" viewBox="0 0 36.74 241.45"><defs><style>.cls-1{fill:#325ca7;}.cls-2{fill:#f6f6f6;}.cls-3{fill:#050607;}.cls-4{fill:#ededed;}</style></defs><g id="Calque_3"><g><path class="cls-3" d="M31.72,224.17H5.22v8.27c0,3.35,1.99,6.41,5.1,7.64,1.98,.78,4.63,1.37,8.14,1.37s6.17-.59,8.14-1.37c3.11-1.23,5.1-4.3,5.1-7.64v-8.27Z"/><path class="cls-4" d="M7.45,231.19H29.49c3.75,0,6.78-3.04,6.78-6.78V111.24c0-5.79-.67-11.56-2.01-17.2L13.17,4.88C12.49,2.02,9.94,0,7,0h0C3.5,0,.66,2.84,.66,6.34V224.41c0,3.75,3.04,6.78,6.78,6.78Z"/><g><path class="cls-1" d="M27.81,78.96L11.1,1.52h0c-.28-.24-.58-.46-.9-.64l-.02-.02c-.32-.19-.66-.35-1.02-.48h0l14.04,85.37c1.4,8.5,2.16,17.1,2.28,25.72l1.58,119.72h2.44c1.38,0,2.66-.41,3.73-1.12l-1.54-116.97c-.15-11.48-1.45-22.91-3.87-34.13Z"/><polygon class="cls-1" points="11.1 1.52 11.1 1.52 11.1 1.52 11.1 1.52"/></g><rect class="cls-3" x=".66" y="102.51" width="35.44" height="5.37"/><rect class="cls-2" y="101.75" width="36.74" height="5.37"/><rect class="cls-3" x=".66" y="211.94" width="35.61" height="5.37"/><rect class="cls-2" y="211.18" width="36.74" height="5.37"/><polygon class="cls-3" points="31.61 82.8 .66 85.91 .66 80.54 30.37 77.55 31.61 82.8"/><polygon class="cls-2" points="32.55 82.15 0 85.42 0 80.05 31.27 76.91 32.55 82.15"/></g></g></svg>