<svg xmlns="http://www.w3.org/2000/svg" xmlns:xlink="http://www.w3.org/1999/xlink" width="441.673" height="441.672"
     viewBox="0 0 441.673 441.672">
    <defs>
        <clipPath id="clip-path">
            <path id="Tracé_1863" data-name="Tracé 1863"
                  d="M350.139,570.8l-26.528-22.09,27.131-9.227a18.524,18.524,0,0,1,11.863,0l32.89,11.188L374.44,570.158a18.469,18.469,0,0,1-24.3.64m-86.556-21.181L250.91,523.878l34.713,1.337a18.509,18.509,0,0,1,11.08,4.253L318.725,547.8l-32.678,11.118a18.442,18.442,0,0,1-22.463-9.305m163.72,9.305-27.163-9.242,25.493-23.6a18.536,18.536,0,0,1,10.841-4.828l28.535-2.606-15.247,30.967a18.445,18.445,0,0,1-22.459,9.305M298.256,527.6a20.947,20.947,0,0,0-12.538-4.813L249.691,521.4l-13.818-28.062a51.7,51.7,0,0,0,34.9,13.613h.167l18.388-.057h.159a49.655,49.655,0,0,1,30,10.144L334.091,528.2a51.389,51.389,0,0,0,17.31,8.615c-.478.126-.973.2-1.445.361l-28.537,9.71Zm69.594,11.1a51.679,51.679,0,0,0,34.479-15.145l12.96-13.044a49.68,49.68,0,0,1,28.5-14.149l18.225-2.435a51.454,51.454,0,0,0,18.313-6.112c-.245.419-.533.807-.745,1.242l-13.315,27.04-30.016,2.743a20.958,20.958,0,0,0-12.271,5.464L397.522,548.79ZM218.259,520.186a18.473,18.473,0,0,1-17.637-16.736l-3.141-34.375,25.708,12.659a18.5,18.5,0,0,1,8.392,8.39l15.344,31.166Zm263.507-30.062a18.506,18.506,0,0,1,8.392-8.392l31.166-15.344-1.1,28.67a18.469,18.469,0,0,1-16.734,17.633l-34.377,3.139ZM163.7,449.73a18.464,18.464,0,0,1-9.3-22.461l9.238-27.16,23.6,25.493a18.489,18.489,0,0,1,4.826,10.838l2.607,28.537Zm361.55-22.039a18.5,18.5,0,0,1,4.253-11.079l18.335-22.02,11.117,32.677a18.469,18.469,0,0,1-9.3,22.461L523.911,462.4ZM224.266,479.552l-27.042-13.317-2.743-30.017a20.976,20.976,0,0,0-5.463-12.271l-24.5-26.458L174.6,367.873A51.709,51.709,0,0,0,189.765,402.3l13.044,12.958a49.651,49.651,0,0,1,14.146,28.5l2.437,18.227a51.43,51.43,0,0,0,6.115,18.311c-.417-.242-.807-.532-1.242-.743M506.98,442.377l-.057-18.388a49.628,49.628,0,0,1,10.147-30.154l11.166-14.611a51.409,51.409,0,0,0,8.624-17.274c.123.468.2.945.352,1.407l9.706,28.534-19.286,23.165a20.93,20.93,0,0,0-4.812,12.54l-1.39,36.029-28.07,13.818a51.7,51.7,0,0,0,13.619-35.066M143.157,374.408a18.471,18.471,0,0,1-.64-24.3l22.09-26.525,9.226,27.128a18.534,18.534,0,0,1,0,11.866l-11.187,32.89Zm396.356-11.835a18.508,18.508,0,0,1,0-11.865L550.7,317.817l19.491,21.054a18.471,18.471,0,0,1,.637,24.3L548.743,389.7ZM154.395,286.011a18.467,18.467,0,0,1,9.3-22.461l25.737-12.673L188.1,285.591a18.491,18.491,0,0,1-4.25,11.077l-18.335,22.02Zm371.721,1.668a18.5,18.5,0,0,1-4.828-10.84L518.682,248.3,549.65,263.55a18.47,18.47,0,0,1,9.3,22.461l-9.24,27.161ZM176.136,349.923l-9.708-28.535,19.287-23.165a20.929,20.929,0,0,0,4.812-12.538l1.391-36.027,28.067-13.821A51.7,51.7,0,0,0,206.367,270.9l.059,18.386a49.644,49.644,0,0,1-10.147,30.157l-11.166,14.609a51.45,51.45,0,0,0-8.626,17.272c-.123-.468-.2-.945-.35-1.406m347.445-38.939-13.043-12.962a49.64,49.64,0,0,1-14.147-28.5L493.956,251.3a51.469,51.469,0,0,0-6.117-18.315c.417.242.809.532,1.243.745l27.044,13.313,2.739,30.02a20.954,20.954,0,0,0,5.466,12.269l24.492,26.456L538.75,345.41a51.718,51.718,0,0,0-15.168-34.426m-330.45-92.76a18.473,18.473,0,0,1,16.732-17.636l34.375-3.137-12.658,25.707a18.532,18.532,0,0,1-8.392,8.393l-31.165,15.343Zm297.025,13.324a18.514,18.514,0,0,1-8.392-8.392l-15.343-31.165,28.666,1.106a18.471,18.471,0,0,1,17.638,16.734l3.139,34.374ZM221.8,461.663l-2.437-18.225a52.1,52.1,0,0,0-14.843-29.906l-13.044-12.958a49.526,49.526,0,0,1-4.435-65.04l11.166-14.609a52.117,52.117,0,0,0,10.649-31.642l-.06-18.388a49.526,49.526,0,0,1,42.854-49.124l18.224-2.435a52.119,52.119,0,0,0,29.906-14.845l12.958-13.046a49.531,49.531,0,0,1,65.04-4.431l14.609,11.163a52.106,52.106,0,0,0,31.473,10.65h.169l18.386-.06h.166a49.527,49.527,0,0,1,48.96,42.853l2.435,18.227a52.106,52.106,0,0,0,14.845,29.9l13.044,12.96a49.529,49.529,0,0,1,4.435,65.039l-11.166,14.612A52.091,52.091,0,0,0,504.489,424l.06,18.389a49.525,49.525,0,0,1-42.854,49.123l-18.225,2.437a52.118,52.118,0,0,0-29.9,14.843l-12.958,13.046a49.524,49.524,0,0,1-65.039,4.433L320.958,515.1a52.128,52.128,0,0,0-31.475-10.647h-.167l-18.389.06h-.158A49.532,49.532,0,0,1,221.8,461.663M393.866,196.245,379.259,185.08a51.412,51.412,0,0,0-17.274-8.626c.468-.124.947-.2,1.406-.353l28.537-9.706,23.163,19.284a20.925,20.925,0,0,0,12.54,4.817l36.028,1.39,13.816,28.061a51.7,51.7,0,0,0-34.889-13.613h-.172l-18.388.059-.154,0a49.6,49.6,0,0,1-30-10.149m-160.1,27.986,13.313-27.04,30.017-2.743a20.942,20.942,0,0,0,12.269-5.464l26.46-24.492,29.621,10.074a51.7,51.7,0,0,0-34.428,15.168l-12.958,13.043a49.669,49.669,0,0,1-28.5,14.147l-18.229,2.435a51.517,51.517,0,0,0-18.313,6.112c.245-.417.532-.805.747-1.24m29.82-60.566a18.443,18.443,0,0,1,22.463-9.3l27.16,9.24-25.495,23.6a18.494,18.494,0,0,1-10.835,4.826l-28.542,2.607Zm164.139,24.4a18.483,18.483,0,0,1-11.075-4.253l-22.023-18.334,32.68-11.117a18.466,18.466,0,0,1,22.459,9.3L462.437,189.4ZM350.743,173.8l-32.892-11.185,21.056-19.491a18.473,18.473,0,0,1,24.3-.637l26.525,22.085-27.13,9.227a18.461,18.461,0,0,1-11.863,0m-13.488-32.46-22.02,20.382-28.4-9.662A20.912,20.912,0,0,0,261.4,162.589l-15.9,32.3-35.856,3.274A20.913,20.913,0,0,0,190.7,218.129l-1.156,29.984-26.921,13.256a20.9,20.9,0,0,0-10.529,25.423l11.594,34.087-23.04,27.668a20.91,20.91,0,0,0,.726,27.513l20.384,22.019-9.663,28.406a20.906,20.906,0,0,0,10.529,25.426l32.3,15.9,3.276,35.854a20.91,20.91,0,0,0,19.964,18.945l29.985,1.154L261.4,550.69a20.918,20.918,0,0,0,18.749,11.639,20.694,20.694,0,0,0,6.679-1.108l34.084-11.594,27.669,23.039a20.91,20.91,0,0,0,27.508-.723l22.022-20.385,28.406,9.664a20.9,20.9,0,0,0,25.427-10.531l15.9-32.3,35.857-3.277a20.9,20.9,0,0,0,18.94-19.962l1.159-29.985,26.919-13.254a20.906,20.906,0,0,0,10.533-25.426l-11.6-34.084L572.7,364.732a20.907,20.907,0,0,0-.723-27.512L551.593,315.2l9.663-28.406a20.906,20.906,0,0,0-10.533-25.423l-32.3-15.9-3.276-35.854a20.907,20.907,0,0,0-19.964-18.943L465.2,189.51l-13.256-26.921a20.907,20.907,0,0,0-25.427-10.531l-34.086,11.593-27.668-23.036a20.9,20.9,0,0,0-27.512.723"
                  transform="translate(-135.837 -135.803)" fill="none"/>
        </clipPath>
        <clipPath id="clip-path-2">
            <path id="Tracé_1865" data-name="Tracé 1865"
                  d="M252.608,233.5a90.267,90.267,0,0,0,0,127.659l39.709-39.706a17.776,17.776,0,0,1,24.33-24.331L380.27,233.5a90.269,90.269,0,0,0-127.662,0"
                  transform="translate(-226.169 -207.063)" fill="none"/>
        </clipPath>
        <clipPath id="clip-path-3">
            <path id="Tracé_1867" data-name="Tracé 1867"
                  d="M322.243,279.393a17.776,17.776,0,0,1-24.33,24.33L226.17,375.466A90.27,90.27,0,0,0,353.832,247.8Z"
                  transform="translate(-226.17 -247.805)" fill="none"/>
        </clipPath>
    </defs>
    <g id="Groupe_130" data-name="Groupe 130" transform="translate(-739.164 -288.163)">
        <g id="Groupe_127" data-name="Groupe 127" transform="translate(739.164 288.163)">
            <g id="Groupe_110" data-name="Groupe 110" clip-path="url(#clip-path)">
                <rect id="Rectangle_222" data-name="Rectangle 222" width="622.961" height="622.319"
                      transform="matrix(0.788, -0.616, 0.616, 0.788, -216.218, 167.704)" fill="#fff"/>
            </g>
        </g>
        <g id="Groupe_128" data-name="Groupe 128" transform="translate(882.948 401.591)">
            <g id="Groupe_114" data-name="Groupe 114" clip-path="url(#clip-path-2)">
                <rect id="Rectangle_224" data-name="Rectangle 224" width="223.266" height="221.755"
                      transform="translate(-83.599 58.512) rotate(-38.039)" fill="#fff"/>
            </g>
        </g>
        <g id="Groupe_129" data-name="Groupe 129" transform="translate(882.949 466.442)">
            <g id="Groupe_118" data-name="Groupe 118" clip-path="url(#clip-path-3)">
                <rect id="Rectangle_226" data-name="Rectangle 226" width="228.696" height="228.696"
                      transform="translate(-79.063 61.858) rotate(-38.039)" fill="#fff"/>
            </g>
        </g>
    </g>
</svg>
