<svg xmlns="http://www.w3.org/2000/svg" xmlns:xlink="http://www.w3.org/1999/xlink" width="249.646" height="381.1" viewBox="0 0 249.646 381.1">
  <defs>
    <clipPath id="clip-path">
      <rect id="Rectangle_35" data-name="Rectangle 35" width="249.646" height="381.1" transform="translate(0 0)" fill="none"/>
    </clipPath>
  </defs>
  <g id="Groupe_45" data-name="Groupe 45" transform="translate(0 -0.004)">
    <g id="Groupe_43" data-name="Groupe 43" transform="translate(0 0.004)" clip-path="url(#clip-path)">
      <path id="Tracé_40" data-name="Tracé 40" d="M220.024,437.837c1.106-.79,19.905-41.39,19.905-41.39s13.9-41.864,14.06-42.338-1.422-17.377-1.422-17.377,29.068-.158,29.858,0,33.965-9.795,33.965-9.795l-3.318-14.376-5.529,2.528s-4.9,9.321-5.371,9.479-11.69,2.686-11.69,2.686l-5.845-14.692-31.753,10.9-21.8-55.766-6.477-14.534s1.738-10.9,1.422-11.69-12.164-9.163-12.164-9.163l17.377,3.318,36.177-3.318,26.066-5.371-7.741-33.017h3.791l-1.9-5.055s9.479-29.384,9.479-29.858-2.054-1.9-2.054-1.9,6-30.648,6.477-31.122,5.371-14.692,5.371-14.692l-2.37-9.321-9,1.106L237.4,78.912l2.054-8.373-11.374-2.054.79,3.949-19.431.316-1.106,4.265s-15.324,6.951-15.64,6.477-5.371-5.213-5.371-5.213V72.751l-2.844-2.528-16.272,1.422-6.319-4.265L141.509,84.126,134.558,109.4v33.175l3.949,11.532s6,1.106,6.319,1.58,4.9,10.742,4.9,10.742l-2.528,1.738,2.212,12.8-1.9,1.9,5.845,9.321-.948,26.54,1.738.158,1.58,9.795-46.287,13.9,3,14.06,4.739,8.057,5.371,2.054-3.791,5.845-2.054.316-.948,39.178s1.9,1.106,1.422,1.738-17.693,17.694-17.693,17.694l2.37,18.641L79.266,355.53v4.9l8.215,4.581.632,4.107,22.749,14.376,9,.316,19.431-6.161.632,5.529,5.371-.158-.316,4.739,25.276-1.58,1.9-2.844,7.109-2.212,3.475,13.744,12.8,4.739,8.531-2.37,7.425,34.123Z" transform="translate(-66.744 -56.736)" fill="#fff"/>
      <path id="Tracé_41" data-name="Tracé 41" d="M140.758,370.46c1.106-.79,19.905-41.39,19.905-41.39s13.9-41.864,14.06-42.338-1.422-17.377-1.422-17.377,29.068-.158,29.858,0,33.965-9.795,33.965-9.795l-3.318-14.376-5.529,2.528s-4.9,9.321-5.371,9.479-11.69,2.686-11.69,2.686l-5.845-14.692-31.753,10.9-21.8-55.766-6.477-14.534s1.738-10.9,1.422-11.69-12.164-9.163-12.164-9.163l17.377,3.318,36.177-3.318,26.066-5.371-7.741-33.017h3.791l-1.9-5.055s9.479-29.384,9.479-29.858-2.054-1.9-2.054-1.9,6-30.648,6.477-31.122,5.371-14.692,5.371-14.692l-2.37-9.321-9,1.106L158.135,11.536l2.054-8.373L148.814,1.11l.79,3.949-19.431.316-1.106,4.265s-15.324,6.951-15.64,6.477-5.371-5.213-5.371-5.213V5.375l-2.844-2.528L88.941,4.269,82.622,0,62.243,16.75,55.292,42.026V75.2l3.949,11.532s6,1.106,6.319,1.58,4.9,10.742,4.9,10.742l-2.528,1.738,2.212,12.8-1.9,1.9,5.845,9.321-.948,26.54,1.738.158,1.58,9.795L30.174,175.2l3,14.06,4.739,8.057,5.371,2.054-3.791,5.845-2.054.316-.948,39.178s1.9,1.106,1.422,1.738-17.693,17.693-17.693,17.693l2.37,18.641L0,288.154v4.9l8.215,4.581.632,4.107L31.6,316.116l9,.316,19.431-6.161.632,5.529,5.371-.158-.316,4.739,25.276-1.58,1.9-2.844L100,313.747l3.475,13.744,12.8,4.739,8.531-2.37,7.425,34.123Z" transform="translate(0 -0.004)" fill="#00a2ec"/>
      <path id="Tracé_42" data-name="Tracé 42" d="M790.064,1605.45c0,1.9-4.835,3.443-10.8,3.443s-10.8-1.542-10.8-3.443,4.835-3.443,10.8-3.443,10.8,1.542,10.8,3.443" transform="translate(-647.064 -1348.927)" fill="#0052ec"/>
      <path id="Tracé_43" data-name="Tracé 43" d="M772.282,1393.147h0a12.5,12.5,0,0,0-10.755,18.879l10.755,18.145,10.756-18.145a12.5,12.5,0,0,0-10.756-18.879m0,16.48a5.094,5.094,0,1,1,5.094-5.094,5.094,5.094,0,0,1-5.094,5.094" transform="translate(-639.735 -1173.062)" fill="#ec0025"/>
    </g>
  </g>
</svg>
