<svg id="Groupe_368" data-name="Groupe 368" xmlns="http://www.w3.org/2000/svg" xmlns:xlink="http://www.w3.org/1999/xlink" width="325.211" height="318.637" viewBox="0 0 325.211 318.637">
  <defs>
    <clipPath id="clip-path">
      <rect id="Rectangle_418" data-name="Rectangle 418" width="325.211" height="318.637" fill="none"/>
    </clipPath>
  </defs>
  <g id="Groupe_367" data-name="Groupe 367" clip-path="url(#clip-path)">
    <path id="Tracé_2251" data-name="Tracé 2251" d="M306.131,311.665c-2.84-1.723-5.262-6.123-8.422-8.872a8.2,8.2,0,0,0-5.552-2.344c-6.362.1-13.091-.547-14.643-8.915s-6.146-8.292-9.669-7.471-5.7-2.577-6.854-8.28-22.413-8.406-21.171,2.637-2.205,16.44-9.666,14.274-2.075-18.66-9.573-23.114-6.375-.658-6.134-7.529c.144-4.1-2.987-7.326-7.709-9.553a38.64,38.64,0,0,0-11.239-3.107c-10.276-1.357-4.9,2.751-13.754,2.134-4.883-.341-13.7-4.577-19.835-14.459-4.987-8.029-8.209-19.782-6.1-36.235,4.7-36.7,21.775-30.5,27.815-28.687s4.892-3.514,6.591-7.739,5.5-9.627,14.7-9.015,10.743,8.216,11.384,4.2-6.491-7.711,1.285-7.839,41.27-6.019,50.635-38.6c4.034-14.034-.671-24.519-7.752-31.91-9.357-9.769-22.868-14.129-25.886-14.08-5.3.088-3.913-1.462-9.019-10.915s-16.72-6.21-16.72-6.21,2.418-3.473-1.621-12.563-20.83,1.868-20.83,1.868,11.849-10.5,4.623-19.914-27.009-8.33-27.009-8.33-.742-23.64-46.7-1.9-27.045,75.6-27.045,75.6-25.451.418-20.267,36.194c3.387,23.367,32.966,26.544,11.92,36.808s-5.2,27.935-2.693,29.8,18.391,21.825-2.377,27.507-21.162-18.346-15.979-25.68-.51-9.529-2.031-15.989.1-15.261,3.563-19.9-8.731,6.629-10.007,15.043-2.677,9.2-6.062,18.411,3.7,9.858-2.868,19.122-5.549,6.576-7.235,11.563,1.665,15.232,2.062,17.9c.364,2.441-11.436,3.82,7.411,30.532,1.723,2.443,3.68,5.079,5.95,7.967,27.084,34.459,79.34,8.428,79.34,8.428s-1.686,4.987,3.716,11,17.959-4.491,17.959-4.491-1.623,8.8,6.316,18.589,17.371,2.767,26.586,4.142,19.045-2.984,27.144.317,14.239.529,8.887-2.435-7.8-1.4-8.957-7.1,7.765-.891,13.774-.99,11.487,10.493,12.553,10.857,7.765-.89,23.324-.764,16.007,5.841,33.34,6.319l.853.026c16.7.488,23.646,1.447,28.133-.5,4.564-1.983-18.482-5.8-18.482-5.8M192.685,67.912a1.7,1.7,0,0,1-.161.32,1.772,1.772,0,0,0,.161-.32m-33.9.908c-.243-.008-.485-.026-.728-.022.245,0,.487,0,.728.022m-36.351,86.27a7.961,7.961,0,0,1,.4,1.854c.009-.954-1.72-1.151-.4-1.854" fill="#fff"/>
    <path id="Tracé_2252" data-name="Tracé 2252" d="M223.488,202.243c-1.582-3.88-1.678-2.858-3.5-3.49s-4.583,6.961-7.009,8.9-2.128,9.978-.06,14.3,3.158.817,4.106,2.311,3.523,2.888,5.03,4.409,5.648,9.917,8.877,14.737c1.827,2.728,11.249,7.065,12.364,5.731s-3.863-2.783-3.863-2.783c-5.977-4.515-9.1-16.257-9.779-18.825s-3.054-4.053-5.493-5.458c-1.376-.793-4.459-5.435-4.091-10.452.269-3.68,4.038-7.857,3.417-9.38" fill="#e6e6e6"/>
    <path id="Tracé_2253" data-name="Tracé 2253" d="M29.335,121.269c.657-3.063,5.221-5.045,7.21-13.089s-.138-8.391-.163-9.916,3-11.113,6.131-14.216,7.116-18.81,7.116-18.81c-.01-.024-.024-.039-.034-.061C48.05,62.031,40.588,75.7,37.811,77.64c-2.8,1.953-1.387.751,1.315-6.924s-4.23,1.631-6.958,2.82-1,8.79-6.938,6.217-13.441-2.746-21.171,9.5c-12.406,19.66,7.589,31.539,7.589,31.539s-4.216,1.6-4.37,13.747c-.007.554.031,1.055.067,1.558.745,10.562,10.385,10.537,10.385,10.537s-1.989,8.044-1.914,12.62,3.8,37.325,6.171,42.11,1.569-1.417-.19-22.37,9.319-34.495,11.476-38.163c5.769-9.807-4.595-16.5-3.938-19.566" fill="#fff"/>
    <path id="Tracé_2254" data-name="Tracé 2254" d="M306.131,311.664c-2.84-1.723-5.263-6.123-8.422-8.872l-1.23,15.174c16.7.488,23.647,1.447,28.133-.5,4.564-1.982-18.481-5.8-18.481-5.8" fill="#e6e6e6"/>
    <path id="Tracé_2255" data-name="Tracé 2255" d="M292.157,300.449c-6.363.1-13.091-.548-14.643-8.915s-6.147-8.292-9.669-7.471-5.7-2.577-6.854-8.281-22.414-8.406-21.171,2.637-2.206,16.441-9.666,14.274-2.075-18.659-9.573-23.114-6.375-.658-6.134-7.529c.143-4.1-2.987-7.325-7.71-9.553C209.75,266.058,202.461,288.129,183,285c-4.589-.737-18.848-4.234-23.1-7.179-6-4.155-9.319-11.348-9.77-13.573-.769-3.8-10.6.174-13.041,2.5s-9.234-2.518-12.512-2.465-4.53-1.833-9.479-1.751-8,7.761-12.464,16.119-27.911,1.329-36.823-3.1c-4.324-2.15-12.669-6.029-20.118-9.454,1.724,2.443,3.681,5.079,5.951,7.967,27.084,34.458,79.339,8.427,79.339,8.427s-1.686,4.988,3.717,11,17.958-4.491,17.958-4.491-1.623,8.8,6.317,18.589,17.37,2.766,26.586,4.141,19.044-2.983,27.143.317,14.24.529,8.887-2.435-7.8-1.4-8.956-7.1,7.764-.89,13.773-.989,11.487,10.493,12.554,10.857,7.764-.891,23.323-.765,16.008,5.842,33.341,6.32l.852.026,1.23-15.174a8.193,8.193,0,0,0-5.552-2.344" fill="#e6e6e6"/>
    <path id="Tracé_2256" data-name="Tracé 2256" d="M243.3,249.141c1.115-1.334-3.864-2.783-3.864-2.783-5.976-4.515-9.1-16.257-9.778-18.825s-3.056-4.053-5.493-5.458c-1.377-.793-4.459-5.435-4.091-10.452.268-3.68,4.037-7.856,3.416-9.38-1.582-3.879-1.677-2.858-3.5-3.49s-4.582,6.961-7.009,8.9-2.126,9.978-.058,14.3,3.158.817,4.106,2.312,3.522,2.887,5.03,4.408,5.647,9.917,8.875,14.737c1.828,2.728,11.25,7.065,12.366,5.731" fill="#e6e6e6"/>
    <path id="Tracé_2257" data-name="Tracé 2257" d="M260.468,81.238c.76,20.945-15.958,39.239-32.392,41.916-18.809,3.065-17.355-1.813-26.541-1.408s-20.523-6.1-24.3-15.331c-5.516-13.468.842-23.391,2.377-28.053,3.031-9.206,10.5-6.276,12.916-10.131s-16.549,4.213-17.947,5.213-8.918-4.772-16.518-4.647-12.9,21.576-27.044,21.808,1.583,10.274,15.622,3.94c12.109-5.464,47.151,50.685-12.556,53.574-16.624.8-10.844,7.086-11.263,9s11.186,7.827,12.29,10.48S133.9,180.208,123.3,186.486c-3.956,2.343-3.191,4.955-7.561,7.372-7.34,4.061,5.7,2.344,6.133,7.413s25.31-3.375,24.8,2.761c-1.774,21.179,15.235,33.036,15.235,33.036l.007,0c-4.988-8.03-8.209-19.783-6.1-36.236,4.7-36.7,21.775-30.495,27.815-28.687s4.892-3.514,6.591-7.738,5.5-9.628,14.7-9.016,10.742,8.216,11.383,4.2-6.491-7.711,1.286-7.838,41.27-6.019,50.635-38.6c4.034-14.034-.671-24.519-7.752-31.91" fill="#e6e6e6"/>
    <path id="Tracé_2258" data-name="Tracé 2258" d="M17.73,146.638s-1.989,8.044-1.914,12.62,3.8,37.324,6.171,42.11,1.569-1.417-.19-22.37,9.319-34.495,11.476-38.163c5.769-9.807-4.595-16.5-3.938-19.566s5.221-5.046,7.21-13.089-.138-8.391-.163-9.917,3-11.112,6.131-14.215,7.116-18.811,7.116-18.811c-.01-.024-.024-.038-.034-.06-4.125,6.747-10.666,16.649-14.858,19-6.5,3.645-.028,19.838-9.409,30.674-5.841,6.747-4.287,15.76-7.45,19.246-4.049,4.462-7.8,3.782-10.533,2.006.745,10.562,10.385,10.537,10.385,10.537" fill="#e6e6e6"/>
  </g>
</svg>
