<svg id="Groupe_365" data-name="Groupe 365" xmlns="http://www.w3.org/2000/svg" xmlns:xlink="http://www.w3.org/1999/xlink" width="1042.375" height="332.744" viewBox="0 0 1042.375 332.744">
  <defs>
    <clipPath id="clip-path">
      <rect id="Rectangle_417" data-name="Rectangle 417" width="1042.375" height="332.744" fill="none"/>
    </clipPath>
  </defs>
  <g id="Groupe_364" data-name="Groupe 364" clip-path="url(#clip-path)">
    <path id="Tracé_2166" data-name="Tracé 2166" d="M313.041,55.723s-36.492-41.893-150.08,12.75" fill="none" stroke="#999998" stroke-width="9"/>
    <path id="Tracé_2167" data-name="Tracé 2167" d="M313.041,68.724s-36.492-41.893-150.08,12.75" fill="none" stroke="#999998" stroke-width="9"/>
    <rect id="Rectangle_323" data-name="Rectangle 323" width="52.998" height="11.02" transform="translate(27.375 251.114)" fill="#27231f"/>
    <path id="Tracé_2168" data-name="Tracé 2168" d="M322.375,49.5,195.453,70.472V88L329.375,67.807Z" fill="#cececc"/>
    <path id="Tracé_2169" data-name="Tracé 2169" d="M732.959,258.5a74.247,74.247,0,1,0,74.248-74.246A74.247,74.247,0,0,0,732.959,258.5" fill="#27231f"/>
    <path id="Tracé_2170" data-name="Tracé 2170" d="M738.959,258.5a68.247,68.247,0,1,0,68.248-68.246A68.248,68.248,0,0,0,738.959,258.5" fill="#27231f"/>
    <path id="Tracé_2171" data-name="Tracé 2171" d="M753.959,258.5a53.247,53.247,0,1,0,53.248-53.247A53.248,53.248,0,0,0,753.959,258.5" fill="#27231f"/>
    <path id="Tracé_2172" data-name="Tracé 2172" d="M758.236,258.5a48.969,48.969,0,1,0,48.971-48.969A48.972,48.972,0,0,0,758.236,258.5" fill="#27231f"/>
    <path id="Tracé_2173" data-name="Tracé 2173" d="M787.639,258.5a19.568,19.568,0,1,0,19.568-19.567A19.568,19.568,0,0,0,787.639,258.5" fill="#27231f"/>
    <path id="Tracé_2174" data-name="Tracé 2174" d="M801.535,258.5a5.671,5.671,0,1,0,5.672-5.671,5.671,5.671,0,0,0-5.672,5.671" fill="#27231f"/>
    <path id="Tracé_2175" data-name="Tracé 2175" d="M804.35,246.323a2.857,2.857,0,1,0,2.857-2.856,2.857,2.857,0,0,0-2.857,2.856" fill="#27231f"/>
    <path id="Tracé_2176" data-name="Tracé 2176" d="M804.35,270.671a2.857,2.857,0,1,0,2.857-2.857,2.857,2.857,0,0,0-2.857,2.857" fill="#27231f"/>
    <path id="Tracé_2177" data-name="Tracé 2177" d="M795.033,261.353a2.856,2.856,0,1,0-2.855-2.856,2.856,2.856,0,0,0,2.855,2.856" fill="#27231f"/>
    <path id="Tracé_2178" data-name="Tracé 2178" d="M819.381,261.353a2.856,2.856,0,1,0-2.856-2.856,2.856,2.856,0,0,0,2.856,2.856" fill="#27231f"/>
    <rect id="Rectangle_324" data-name="Rectangle 324" width="2.934" height="16.715" transform="translate(805.74 214.383)" fill="#27231f"/>
    <rect id="Rectangle_325" data-name="Rectangle 325" width="2.934" height="16.716" transform="translate(805.74 285.895)" fill="#27231f"/>
    <rect id="Rectangle_326" data-name="Rectangle 326" width="16.715" height="2.936" transform="translate(834.606 257.03)" fill="#27231f"/>
    <rect id="Rectangle_327" data-name="Rectangle 327" width="16.715" height="2.936" transform="translate(763.094 257.03)" fill="#27231f"/>
    <rect id="Rectangle_328" data-name="Rectangle 328" width="16.715" height="2.934" transform="translate(825.541 238.084) rotate(-44.986)" fill="#27231f"/>
    <rect id="Rectangle_329" data-name="Rectangle 329" width="16.714" height="2.934" transform="translate(774.976 288.653) rotate(-45)" fill="#27231f"/>
    <rect id="Rectangle_330" data-name="Rectangle 330" width="2.934" height="16.714" transform="matrix(0.707, -0.707, 0.707, 0.707, 825.542, 278.91)" fill="#27231f"/>
    <rect id="Rectangle_331" data-name="Rectangle 331" width="2.934" height="16.714" transform="translate(774.974 228.346) rotate(-45.028)" fill="#27231f"/>
    <rect id="Rectangle_332" data-name="Rectangle 332" width="16.716" height="2.935" transform="matrix(0.376, -0.927, 0.927, 0.376, 816.147, 232.558)" fill="#27231f"/>
    <rect id="Rectangle_333" data-name="Rectangle 333" width="16.716" height="2.935" transform="translate(789.262 298.823) rotate(-67.916)" fill="#27231f"/>
    <rect id="Rectangle_334" data-name="Rectangle 334" width="2.935" height="16.714" transform="matrix(0.376, -0.927, 0.927, 0.376, 832.043, 270.159)" fill="#27231f"/>
    <rect id="Rectangle_335" data-name="Rectangle 335" width="2.936" height="16.715" transform="translate(765.777 243.272) rotate(-67.909)" fill="#27231f"/>
    <rect id="Rectangle_336" data-name="Rectangle 336" width="16.715" height="2.935" transform="translate(831.871 246.477) rotate(-22.922)" fill="#27231f"/>
    <rect id="Rectangle_337" data-name="Rectangle 337" width="16.714" height="2.935" transform="translate(766.004 274.323) rotate(-22.914)" fill="#27231f"/>
    <rect id="Rectangle_338" data-name="Rectangle 338" width="2.936" height="16.714" transform="translate(816.523 284.305) rotate(-22.922)" fill="#27231f"/>
    <rect id="Rectangle_339" data-name="Rectangle 339" width="2.935" height="16.715" transform="translate(788.676 218.438) rotate(-22.922)" fill="#27231f"/>
    <path id="Tracé_2179" data-name="Tracé 2179" d="M176.963,258.5a74.247,74.247,0,1,0,74.248-74.246A74.247,74.247,0,0,0,176.963,258.5" fill="#27231f"/>
    <path id="Tracé_2180" data-name="Tracé 2180" d="M182.963,258.5a68.247,68.247,0,1,0,68.248-68.246A68.248,68.248,0,0,0,182.963,258.5" fill="#27231f"/>
    <path id="Tracé_2181" data-name="Tracé 2181" d="M197.963,258.5a53.247,53.247,0,1,0,53.248-53.247A53.248,53.248,0,0,0,197.963,258.5" fill="#27231f"/>
    <path id="Tracé_2182" data-name="Tracé 2182" d="M202.24,258.5a48.97,48.97,0,1,0,48.971-48.969A48.972,48.972,0,0,0,202.24,258.5" fill="#27231f"/>
    <path id="Tracé_2183" data-name="Tracé 2183" d="M231.643,258.5a19.568,19.568,0,1,0,19.568-19.567A19.568,19.568,0,0,0,231.643,258.5" fill="#27231f"/>
    <path id="Tracé_2184" data-name="Tracé 2184" d="M245.539,258.5a5.671,5.671,0,1,0,5.672-5.671,5.671,5.671,0,0,0-5.672,5.671" fill="#27231f"/>
    <path id="Tracé_2185" data-name="Tracé 2185" d="M248.354,246.323a2.856,2.856,0,1,0,2.856-2.856,2.856,2.856,0,0,0-2.856,2.856" fill="#27231f"/>
    <path id="Tracé_2186" data-name="Tracé 2186" d="M248.354,270.671a2.856,2.856,0,1,0,2.856-2.857,2.856,2.856,0,0,0-2.856,2.857" fill="#27231f"/>
    <path id="Tracé_2187" data-name="Tracé 2187" d="M239.037,261.353a2.856,2.856,0,1,0-2.855-2.856,2.856,2.856,0,0,0,2.855,2.856" fill="#27231f"/>
    <path id="Tracé_2188" data-name="Tracé 2188" d="M263.385,261.353a2.856,2.856,0,1,0-2.855-2.856,2.856,2.856,0,0,0,2.855,2.856" fill="#27231f"/>
    <rect id="Rectangle_340" data-name="Rectangle 340" width="2.934" height="16.715" transform="translate(249.744 214.383)" fill="#27231f"/>
    <rect id="Rectangle_341" data-name="Rectangle 341" width="2.934" height="16.716" transform="translate(249.744 285.895)" fill="#27231f"/>
    <rect id="Rectangle_342" data-name="Rectangle 342" width="16.715" height="2.936" transform="translate(278.609 257.03)" fill="#27231f"/>
    <rect id="Rectangle_343" data-name="Rectangle 343" width="16.715" height="2.936" transform="translate(207.098 257.03)" fill="#27231f"/>
    <rect id="Rectangle_344" data-name="Rectangle 344" width="16.715" height="2.935" transform="matrix(0.707, -0.707, 0.707, 0.707, 269.545, 238.084)" fill="#27231f"/>
    <rect id="Rectangle_345" data-name="Rectangle 345" width="16.714" height="2.934" transform="translate(218.98 288.653) rotate(-45)" fill="#27231f"/>
    <rect id="Rectangle_346" data-name="Rectangle 346" width="2.934" height="16.714" transform="translate(269.546 278.91) rotate(-45.014)" fill="#27231f"/>
    <rect id="Rectangle_347" data-name="Rectangle 347" width="2.934" height="16.714" transform="translate(218.978 228.346) rotate(-45.027)" fill="#27231f"/>
    <rect id="Rectangle_348" data-name="Rectangle 348" width="16.716" height="2.935" transform="matrix(0.376, -0.927, 0.927, 0.376, 260.151, 232.558)" fill="#27231f"/>
    <rect id="Rectangle_349" data-name="Rectangle 349" width="16.716" height="2.935" transform="matrix(0.376, -0.927, 0.927, 0.376, 233.266, 298.823)" fill="#27231f"/>
    <rect id="Rectangle_350" data-name="Rectangle 350" width="2.935" height="16.714" transform="translate(276.047 270.159) rotate(-67.927)" fill="#27231f"/>
    <rect id="Rectangle_351" data-name="Rectangle 351" width="2.936" height="16.715" transform="translate(209.781 243.272) rotate(-67.909)" fill="#27231f"/>
    <rect id="Rectangle_352" data-name="Rectangle 352" width="16.714" height="2.935" transform="translate(275.875 246.477) rotate(-22.922)" fill="#27231f"/>
    <rect id="Rectangle_353" data-name="Rectangle 353" width="16.714" height="2.935" transform="translate(210.008 274.322) rotate(-22.914)" fill="#27231f"/>
    <rect id="Rectangle_354" data-name="Rectangle 354" width="2.936" height="16.714" transform="translate(260.527 284.305) rotate(-22.922)" fill="#27231f"/>
    <rect id="Rectangle_355" data-name="Rectangle 355" width="2.935" height="16.715" transform="translate(232.68 218.438) rotate(-22.922)" fill="#27231f"/>
    <path id="Tracé_2189" data-name="Tracé 2189" d="M317.484,293.69H145.923l-45.451-72.423L170.99,149.2H348.375Z" fill="#27231f"/>
    <path id="Rectangle_356" data-name="Rectangle 356" d="M5.67,0H28.752A5.668,5.668,0,0,1,34.42,5.668V73.33A5.67,5.67,0,0,1,28.75,79H5.67A5.67,5.67,0,0,1,0,73.33V5.67A5.67,5.67,0,0,1,5.67,0Z" transform="translate(124.531 0)" fill="#bbbbba"/>
    <path id="Tracé_2190" data-name="Tracé 2190" d="M28.764,20.064,19.5,77.661,24.131,129.9l39.459,8.037L182.239,100.43Z" fill="#322c29"/>
    <rect id="Rectangle_357" data-name="Rectangle 357" width="58.496" height="52.116" transform="translate(112.494 61.942)" fill="#322c29"/>
    <rect id="Rectangle_358" data-name="Rectangle 358" width="5.328" height="20.807" transform="translate(147.047 70.473)" fill="#27231f"/>
    <rect id="Rectangle_359" data-name="Rectangle 359" width="5.328" height="20.807" transform="translate(136.414 70.473)" fill="#27231f"/>
    <rect id="Rectangle_360" data-name="Rectangle 360" width="5.328" height="20.807" transform="translate(126.08 70.473)" fill="#27231f"/>
    <rect id="Rectangle_361" data-name="Rectangle 361" width="36.502" height="24.977" transform="translate(158.951 70.472)" fill="#bbbbba"/>
    <path id="Tracé_2191" data-name="Tracé 2191" d="M10.375,22,0,86.5,5.188,145l44.187,9,132.863-42Z" fill="#27231f"/>
    <rect id="Rectangle_362" data-name="Rectangle 362" width="50" height="23.479" transform="translate(983.375 209.528)" fill="#bbbbba"/>
    <rect id="Rectangle_363" data-name="Rectangle 363" width="59" height="8.773" transform="translate(983.375 204.251)" fill="#999"/>
    <rect id="Rectangle_364" data-name="Rectangle 364" width="59" height="8.773" transform="translate(983.375 224.234)" fill="#999"/>
    <path id="Tracé_2192" data-name="Tracé 2192" d="M709.375,130.117l288,31.38-333-15.381Z" fill="#cececc"/>
    <path id="Tracé_2193" data-name="Tracé 2193" d="M709.375,130.117l-154.4-71.435-27.6-9.185V76.116l172,70Z" fill="#163545"/>
    <path id="Tracé_2194" data-name="Tracé 2194" d="M995.707,164.251l18.666,3.333,24,36.667H990.707Z" fill="#cececc"/>
    <path id="Tracé_2195" data-name="Tracé 2195" d="M915.375,263v23h107V274.5h-15V250l35-10v-9h-127Z" fill="#27231f"/>
    <rect id="Rectangle_365" data-name="Rectangle 365" width="193.91" height="90.946" transform="translate(139.924 167.551)" fill="#27231f"/>
    <path id="Tracé_2196" data-name="Tracé 2196" d="M721.465,167.551h203.91L915.375,286l-174.414,7.693Z" fill="#27231f"/>
    <path id="Tracé_2197" data-name="Tracé 2197" d="M752.961,258.5a74.247,74.247,0,1,0,74.248-74.246A74.247,74.247,0,0,0,752.961,258.5" fill="#27231f"/>
    <path id="Tracé_2198" data-name="Tracé 2198" d="M758.961,258.5a68.247,68.247,0,1,0,68.248-68.246A68.248,68.248,0,0,0,758.961,258.5" fill="#322c29"/>
    <path id="Tracé_2199" data-name="Tracé 2199" d="M773.961,258.5a53.247,53.247,0,1,0,53.248-53.247A53.248,53.248,0,0,0,773.961,258.5" fill="#e8e8e6"/>
    <path id="Tracé_2200" data-name="Tracé 2200" d="M778.238,258.5a48.97,48.97,0,1,0,48.971-48.969A48.972,48.972,0,0,0,778.238,258.5" fill="#898888"/>
    <path id="Tracé_2201" data-name="Tracé 2201" d="M807.641,258.5a19.568,19.568,0,1,0,19.568-19.567A19.568,19.568,0,0,0,807.641,258.5" fill="#e8e8e6"/>
    <path id="Tracé_2202" data-name="Tracé 2202" d="M821.537,258.5a5.671,5.671,0,1,0,5.672-5.671,5.671,5.671,0,0,0-5.672,5.671" fill="#322c29"/>
    <path id="Tracé_2203" data-name="Tracé 2203" d="M824.352,246.323a2.857,2.857,0,1,0,2.857-2.856,2.857,2.857,0,0,0-2.857,2.856" fill="#322c29"/>
    <path id="Tracé_2204" data-name="Tracé 2204" d="M824.352,270.671a2.857,2.857,0,1,0,2.857-2.857,2.857,2.857,0,0,0-2.857,2.857" fill="#322c29"/>
    <path id="Tracé_2205" data-name="Tracé 2205" d="M815.035,261.353a2.856,2.856,0,1,0-2.856-2.856,2.856,2.856,0,0,0,2.856,2.856" fill="#322c29"/>
    <path id="Tracé_2206" data-name="Tracé 2206" d="M839.383,261.353a2.856,2.856,0,1,0-2.856-2.856,2.856,2.856,0,0,0,2.856,2.856" fill="#322c29"/>
    <rect id="Rectangle_366" data-name="Rectangle 366" width="2.934" height="16.715" transform="translate(825.742 214.383)" fill="#322c29"/>
    <rect id="Rectangle_367" data-name="Rectangle 367" width="2.934" height="16.716" transform="translate(825.742 285.895)" fill="#322c29"/>
    <rect id="Rectangle_368" data-name="Rectangle 368" width="16.715" height="2.936" transform="translate(854.607 257.03)" fill="#322c29"/>
    <rect id="Rectangle_369" data-name="Rectangle 369" width="16.715" height="2.936" transform="translate(783.096 257.03)" fill="#322c29"/>
    <rect id="Rectangle_370" data-name="Rectangle 370" width="16.715" height="2.935" transform="translate(845.543 238.084) rotate(-44.986)" fill="#322c29"/>
    <rect id="Rectangle_371" data-name="Rectangle 371" width="16.714" height="2.934" transform="translate(794.978 288.653) rotate(-45)" fill="#322c29"/>
    <rect id="Rectangle_372" data-name="Rectangle 372" width="2.934" height="16.714" transform="matrix(0.707, -0.707, 0.707, 0.707, 845.544, 278.91)" fill="#322c29"/>
    <rect id="Rectangle_373" data-name="Rectangle 373" width="2.934" height="16.714" transform="translate(794.976 228.346) rotate(-45.028)" fill="#322c29"/>
    <rect id="Rectangle_374" data-name="Rectangle 374" width="16.716" height="2.935" transform="matrix(0.376, -0.927, 0.927, 0.376, 836.149, 232.558)" fill="#322c29"/>
    <rect id="Rectangle_375" data-name="Rectangle 375" width="16.716" height="2.935" transform="translate(809.264 298.823) rotate(-67.916)" fill="#322c29"/>
    <rect id="Rectangle_376" data-name="Rectangle 376" width="2.935" height="16.714" transform="translate(852.045 270.157) rotate(-67.909)" fill="#322c29"/>
    <rect id="Rectangle_377" data-name="Rectangle 377" width="2.936" height="16.715" transform="translate(785.779 243.272) rotate(-67.909)" fill="#322c29"/>
    <rect id="Rectangle_378" data-name="Rectangle 378" width="16.715" height="2.935" transform="translate(851.873 246.477) rotate(-22.922)" fill="#322c29"/>
    <rect id="Rectangle_379" data-name="Rectangle 379" width="16.714" height="2.936" transform="translate(786.006 274.322) rotate(-22.914)" fill="#322c29"/>
    <rect id="Rectangle_380" data-name="Rectangle 380" width="2.936" height="16.714" transform="translate(836.525 284.305) rotate(-22.922)" fill="#322c29"/>
    <rect id="Rectangle_381" data-name="Rectangle 381" width="2.935" height="16.715" transform="translate(808.678 218.438) rotate(-22.922)" fill="#322c29"/>
    <path id="Tracé_2207" data-name="Tracé 2207" d="M156.961,258.5a74.247,74.247,0,1,0,74.248-74.246A74.247,74.247,0,0,0,156.961,258.5" fill="#27231f"/>
    <path id="Tracé_2208" data-name="Tracé 2208" d="M162.961,258.5a68.247,68.247,0,1,0,68.248-68.246A68.248,68.248,0,0,0,162.961,258.5" fill="#322c29"/>
    <path id="Tracé_2209" data-name="Tracé 2209" d="M177.961,258.5a53.247,53.247,0,1,0,53.248-53.247A53.248,53.248,0,0,0,177.961,258.5" fill="#e8e8e6"/>
    <path id="Tracé_2210" data-name="Tracé 2210" d="M182.238,258.5a48.969,48.969,0,1,0,48.971-48.969A48.972,48.972,0,0,0,182.238,258.5" fill="#898888"/>
    <path id="Tracé_2211" data-name="Tracé 2211" d="M211.641,258.5a19.567,19.567,0,1,0,19.568-19.567A19.568,19.568,0,0,0,211.641,258.5" fill="#e8e8e6"/>
    <path id="Tracé_2212" data-name="Tracé 2212" d="M225.537,258.5a5.671,5.671,0,1,0,5.672-5.671,5.671,5.671,0,0,0-5.672,5.671" fill="#322c29"/>
    <path id="Tracé_2213" data-name="Tracé 2213" d="M228.352,246.323a2.856,2.856,0,1,0,2.857-2.856,2.857,2.857,0,0,0-2.857,2.856" fill="#322c29"/>
    <path id="Tracé_2214" data-name="Tracé 2214" d="M228.352,270.671a2.856,2.856,0,1,0,2.857-2.857,2.857,2.857,0,0,0-2.857,2.857" fill="#322c29"/>
    <path id="Tracé_2215" data-name="Tracé 2215" d="M219.035,261.353a2.856,2.856,0,1,0-2.855-2.856,2.856,2.856,0,0,0,2.855,2.856" fill="#322c29"/>
    <path id="Tracé_2216" data-name="Tracé 2216" d="M243.383,261.353a2.856,2.856,0,1,0-2.855-2.856,2.856,2.856,0,0,0,2.855,2.856" fill="#322c29"/>
    <rect id="Rectangle_382" data-name="Rectangle 382" width="2.934" height="16.715" transform="translate(229.742 214.383)" fill="#322c29"/>
    <rect id="Rectangle_383" data-name="Rectangle 383" width="2.934" height="16.716" transform="translate(229.742 285.895)" fill="#322c29"/>
    <rect id="Rectangle_384" data-name="Rectangle 384" width="16.715" height="2.936" transform="translate(258.607 257.03)" fill="#322c29"/>
    <rect id="Rectangle_385" data-name="Rectangle 385" width="16.715" height="2.936" transform="translate(187.096 257.03)" fill="#322c29"/>
    <rect id="Rectangle_386" data-name="Rectangle 386" width="16.715" height="2.935" transform="matrix(0.707, -0.707, 0.707, 0.707, 249.543, 238.084)" fill="#322c29"/>
    <rect id="Rectangle_387" data-name="Rectangle 387" width="16.714" height="2.934" transform="translate(198.978 288.653) rotate(-45)" fill="#322c29"/>
    <rect id="Rectangle_388" data-name="Rectangle 388" width="2.934" height="16.714" transform="translate(249.544 278.91) rotate(-45.014)" fill="#322c29"/>
    <rect id="Rectangle_389" data-name="Rectangle 389" width="2.934" height="16.714" transform="translate(198.976 228.346) rotate(-45.027)" fill="#322c29"/>
    <rect id="Rectangle_390" data-name="Rectangle 390" width="16.716" height="2.935" transform="matrix(0.376, -0.927, 0.927, 0.376, 240.149, 232.558)" fill="#322c29"/>
    <rect id="Rectangle_391" data-name="Rectangle 391" width="16.716" height="2.935" transform="matrix(0.376, -0.927, 0.927, 0.376, 213.264, 298.823)" fill="#322c29"/>
    <rect id="Rectangle_392" data-name="Rectangle 392" width="2.935" height="16.714" transform="translate(256.045 270.157) rotate(-67.909)" fill="#322c29"/>
    <rect id="Rectangle_393" data-name="Rectangle 393" width="2.936" height="16.715" transform="translate(189.779 243.272) rotate(-67.909)" fill="#322c29"/>
    <rect id="Rectangle_394" data-name="Rectangle 394" width="16.715" height="2.935" transform="translate(255.873 246.477) rotate(-22.922)" fill="#322c29"/>
    <rect id="Rectangle_395" data-name="Rectangle 395" width="16.714" height="2.935" transform="translate(190.006 274.322) rotate(-22.914)" fill="#322c29"/>
    <rect id="Rectangle_396" data-name="Rectangle 396" width="2.936" height="16.714" transform="translate(240.525 284.305) rotate(-22.922)" fill="#322c29"/>
    <rect id="Rectangle_397" data-name="Rectangle 397" width="2.935" height="16.715" transform="translate(212.678 218.438) rotate(-22.922)" fill="#322c29"/>
    <path id="Tracé_2217" data-name="Tracé 2217" d="M20.375,126.5c55-27,302-69,302-69v-8h205l173,87,297,25v81l-69.129,16H913.455a86.247,86.247,0,0,0-172.494,0H317.455a86.247,86.247,0,0,0-172.494,0h-8.586l-88-20v-54h-38Z" fill="#bbbbba"/>
    <path id="Tracé_2218" data-name="Tracé 2218" d="M49.375,188.251l109.576,2-21.015,53.216L48.375,219.116Z" fill="#adadac"/>
    <path id="Tracé_2219" data-name="Tracé 2219" d="M737.336,235.594l-4.969,22.9H324.375l-14.73-45.806Z" fill="#adadac"/>
    <rect id="Rectangle_398" data-name="Rectangle 398" width="6.168" height="29.615" transform="translate(269.154 137.936)" fill="#27231f"/>
    <rect id="Rectangle_399" data-name="Rectangle 399" width="28" height="9.365" transform="translate(427.873 188.251)" fill="#cececc"/>
    <rect id="Rectangle_400" data-name="Rectangle 400" width="469.615" height="7" transform="translate(299.455 182.69)" fill="#27231f"/>
    <rect id="Rectangle_401" data-name="Rectangle 401" width="423.477" height="36.66" transform="translate(317.484 257.03)" fill="#27231f"/>
    <path id="Tracé_2220" data-name="Tracé 2220" d="M145.924,293.69l-118.549-53v-28l118.549,33Z" fill="#27231f"/>
    <path id="Tracé_2221" data-name="Tracé 2221" d="M8.375,182.69l5,40,36,20v-60Z" fill="#27231f"/>
    <rect id="Rectangle_402" data-name="Rectangle 402" width="130.615" height="7" transform="translate(40.375 182.69)" fill="#27231f"/>
    <rect id="Rectangle_403" data-name="Rectangle 403" width="51.197" height="7.561" transform="translate(58.041 182.69)" fill="#c7493f"/>
    <path id="Tracé_2222" data-name="Tracé 2222" d="M105.746,179.885,91.707,199.532l-29.318-5.641L75.312,171.4Z" fill="#bbbbba"/>
    <path id="Tracé_2223" data-name="Tracé 2223" d="M317.455,258.5a86.247,86.247,0,0,0-172.494,0h-8.586l-6.2-1.408A101.042,101.042,0,0,1,332.254,258.5h-14.8Z" fill="#cececc"/>
    <path id="Tracé_2224" data-name="Tracé 2224" d="M913.447,258.5a86.247,86.247,0,0,0-172.494,0h-8.586l-6.2-1.408A101.042,101.042,0,0,1,928.246,258.5h-14.8Z" fill="#cececc"/>
    <path id="Tracé_2225" data-name="Tracé 2225" d="M379.375,67.806v67l278,6v-6l-130-67Z" fill="#163545"/>
    <rect id="Rectangle_404" data-name="Rectangle 404" width="17.5" height="26.369" transform="translate(979.875 204.251)" fill="#999"/>
    <rect id="Rectangle_405" data-name="Rectangle 405" width="51.629" height="26.369" transform="translate(928.246 204.251)" fill="#322c29"/>
    <rect id="Rectangle_406" data-name="Rectangle 406" width="32.629" height="19.982" transform="translate(937.746 204.251)" fill="#999"/>
    <rect id="Rectangle_407" data-name="Rectangle 407" width="21.916" height="5.856" transform="translate(943.125 213.024)" fill="#fdf467"/>
    <rect id="Rectangle_408" data-name="Rectangle 408" width="10.935" height="10.801" transform="translate(943.125 193.45)" fill="#322c29"/>
    <rect id="Rectangle_409" data-name="Rectangle 409" width="5.469" height="5.4" transform="translate(932.277 198.851)" fill="#322c29"/>
    <path id="Tracé_2226" data-name="Tracé 2226" d="M1007.375,274.5H954.06l53.315-13.145Z" fill="#322c29"/>
    <path id="Tracé_2227" data-name="Tracé 2227" d="M313.041,70.473l-15.334,61.333h-206v-14Z" fill="#27231f"/>
    <rect id="Rectangle_410" data-name="Rectangle 410" width="63" height="28.48" transform="translate(226.041 97.806)" fill="#322c29"/>
    <rect id="Rectangle_411" data-name="Rectangle 411" width="29.875" height="25.498" transform="translate(19.5 57.724)" fill="#fdf467"/>
    <path id="Tracé_2228" data-name="Tracé 2228" d="M49.375,115.708V182.69h-41l12-56.193Z" fill="#cececc"/>
    <path id="Tracé_2229" data-name="Tracé 2229" d="M157.795,111.979c0,1.751,2.014,3.17,4.5,3.17H289.789c2.485,0,4.5-1.419,4.5-3.17s-2.015-3.17-4.5-3.17H162.295c-2.486,0-4.5,1.419-4.5,3.17" fill="#4d9b8d"/>
    <path id="Tracé_2230" data-name="Tracé 2230" d="M157.795,123.116c0,1.751,2.014,3.17,4.5,3.17H289.789c2.485,0,4.5-1.419,4.5-3.17s-2.015-3.17-4.5-3.17H162.295c-2.486,0-4.5,1.419-4.5,3.17" fill="#4d9b8d"/>
    <path id="Tracé_2231" data-name="Tracé 2231" d="M124.531,11.616s41.658,35,0,35Z" fill="#322c29"/>
    <path id="Tracé_2232" data-name="Tracé 2232" d="M147.047,10.113a2.664,2.664,0,1,0,2.664-2.664,2.662,2.662,0,0,0-2.664,2.664" fill="#322c29"/>
    <path id="Tracé_2233" data-name="Tracé 2233" d="M124.531,49.5h34.42L170.99,61.941h-58.5Z" fill="#bbbbba"/>
    <path id="Tracé_2234" data-name="Tracé 2234" d="M700.375,136.5l-43,122-2.668-.049,44.316-122.632Z" fill="#2a231f"/>
    <rect id="Rectangle_412" data-name="Rectangle 412" width="1.918" height="86.32" transform="translate(361.457 49.497)" fill="#2a231f"/>
    <path id="Tracé_2235" data-name="Tracé 2235" d="M363.375,135.817,446.75,257.866l-2.258.33L361.457,135.817Z" fill="#2a231f"/>
    <path id="Tracé_2236" data-name="Tracé 2236" d="M628.871,120.116l-7.162,19.921,35.666.769v-6Z" fill="#322c29"/>
    <rect id="Rectangle_413" data-name="Rectangle 413" width="9.828" height="13.36" transform="translate(236.879 95.45)" fill="#c7493f"/>
    <rect id="Rectangle_414" data-name="Rectangle 414" width="4.914" height="13.36" transform="translate(265.127 95.45)" fill="#c7493f"/>
    <path id="Tracé_2237" data-name="Tracé 2237" d="M109.238,114.057l-17.531,3.749v14h17.531Z" fill="#322c29"/>
    <path id="Tracé_2238" data-name="Tracé 2238" d="M335.375,67.806h-6l-16.334,64,12.852,1.893,11.48-7.412Z" fill="#322c29"/>
    <path id="Tracé_2239" data-name="Tracé 2239" d="M379.375,278.063a5.249,5.249,0,0,0,5.25,5.25h310.5a5.249,5.249,0,1,0,0-10.5h-310.5a5.25,5.25,0,0,0-5.25,5.249" fill="#898888"/>
    <rect id="Rectangle_415" data-name="Rectangle 415" width="16.5" height="14.311" transform="translate(607.875 130.496)" fill="#27231f"/>
    <path id="Tracé_2240" data-name="Tracé 2240" d="M591.375,130.159a5.669,5.669,0,0,0,5.668,5.67h26.662a5.671,5.671,0,0,0,5.67-5.67V119.073a5.67,5.67,0,0,0-5.67-5.669l-26.662-3a5.668,5.668,0,0,0-5.668,5.669Z" fill="#27231f"/>
    <path id="Tracé_2241" data-name="Tracé 2241" d="M105.746,266.48l-26.078,20L55,266.48l14.666-17.333Z" fill="#27231f"/>
    <path id="Tracé_2242" data-name="Tracé 2242" d="M272.412,166.21s59.842,24.04,59.842,92.287c0,0-5.879,19.567,47.121,19.567" fill="none" stroke="#c7493f" stroke-linecap="round" stroke-linejoin="round" stroke-width="4"/>
    <path id="Tracé_2243" data-name="Tracé 2243" d="M357.375,49.5v95.311s-1,12.642-18,12.642H156.961s-26.291-2.765-47.723,18.666-46.222,80.508-46.222,80.508" fill="none" stroke="#cececc" stroke-linecap="round" stroke-linejoin="round" stroke-width="4"/>
    <path id="Tracé_2244" data-name="Tracé 2244" d="M337.373,49.5v72.309s-1,12.642-18,12.642H136.959s-26.291-2.765-47.723,18.666-50.465,92.672-50.465,92.672" fill="none" stroke="#cececc" stroke-linecap="round" stroke-linejoin="round" stroke-width="4"/>
    <path id="Rectangle_416" data-name="Rectangle 416" d="M5.67,0H52.83A5.67,5.67,0,0,1,58.5,5.67v.66A5.67,5.67,0,0,1,52.83,12H5.668A5.668,5.668,0,0,1,0,6.332V5.67A5.67,5.67,0,0,1,5.67,0Z" transform="translate(320.875 31.616)" fill="#cececc"/>
    <path id="Tracé_2245" data-name="Tracé 2245" d="M294.289,95.449s-27.92-23-87.918,6.681-100.625-9.473-100.625-9.473" fill="none" stroke="#999998" stroke-linecap="round" stroke-linejoin="round" stroke-width="6"/>
    <path id="Tracé_2246" data-name="Tracé 2246" d="M294.289,85.448s-27.92-23-87.918,6.681-100.625-9.473-100.625-9.473" fill="none" stroke="#999998" stroke-linecap="round" stroke-linejoin="round" stroke-width="6"/>
    <path id="Tracé_2247" data-name="Tracé 2247" d="M948.592,198.85s5.621-12.38-20.346-12.38S866.027,157.451,827.2,157.451s-101.029,29.983-101.029,99.637c0,0-.8,20.975-25.8,20.975" fill="none" stroke="#999998" stroke-linecap="round" stroke-linejoin="round" stroke-width="6"/>
    <path id="Tracé_2248" data-name="Tracé 2248" d="M379.375,101.139s20.611-1.7,24.728,9.265c4.772,12.712,9.262,25.135,9.262,25.135l-33.99-.733Z" fill="#27231f"/>
    <path id="Tracé_2249" data-name="Tracé 2249" d="M426.215,135.817s12.158-31.511,28.824-31.511h66.668l48.346,34.616" fill="none" stroke="#285060" stroke-linecap="round" stroke-linejoin="round" stroke-width="2"/>
    <path id="Tracé_2250" data-name="Tracé 2250" d="M928.246,209.528s-11.539.825-11.539,7.54,11.539,7.165,11.539,7.165" fill="none" stroke="#999998" stroke-linecap="round" stroke-linejoin="round" stroke-width="6"/>
  </g>
</svg>
