<?xml version="1.0" encoding="utf-8"?>
<!-- Generator: Adobe Illustrator 26.3.1, SVG Export Plug-In . SVG Version: 6.00 Build 0)  -->
<svg version="1.1" id="Calque_1" xmlns="http://www.w3.org/2000/svg" xmlns:xlink="http://www.w3.org/1999/xlink" x="0px" y="0px"
	 viewBox="0 0 124.5 106.1" style="enable-background:new 0 0 124.5 106.1;" xml:space="preserve">
<style type="text/css">
	.st0{clip-path:url(#SVGID_00000085930710747803193120000010719777260560374963_);}
	.st1{fill:#FFFFFF;}
	.st2{fill:none;stroke:#141414;stroke-miterlimit:10;}
	.st3{fill:#141414;}
</style>
<g>
	<defs>
		<rect id="SVGID_1_" width="124.5" height="106.1"/>
	</defs>
	<clipPath id="SVGID_00000029763836138400972880000015803344534357250719_">
		<use xlink:href="#SVGID_1_"  style="overflow:visible;"/>
	</clipPath>
	<g id="Groupe_8" style="clip-path:url(#SVGID_00000029763836138400972880000015803344534357250719_);">
		<path id="Tracé_18" class="st1" d="M48,59.9c0,0,55.2-0.3,55.2-59.6h21c0,0,5.7,85.6-74.1,85.6v19.8L0.5,73l47.8-31.5L48,59.9z"
			/>
		<path id="Tracé_19" class="st2" d="M48,59.9c0,0,55.2-0.3,55.2-59.6h20.9c0,0,5.7,85.6-74.1,85.6v19.8L0.5,73l47.8-31.5L48,59.9z
			"/>
		<path id="Tracé_20" class="st3" d="M50.4,55.9c0,0,52.6,3.7,52.6-55.7h21.1c0,0,5.9,80.2-73.9,80.2v19.8L0.5,67.6l49.8-32.8
			L50.4,55.9z"/>
	</g>
</g>
</svg>
