<?xml version="1.0" encoding="UTF-8"?><svg id="Calque_2" xmlns="http://www.w3.org/2000/svg" viewBox="0 0 36.74 241.45"><defs><style>.cls-1{fill:#325ca7;}.cls-2{fill:#f6f6f6;}.cls-3{fill:#050607;}.cls-4{fill:#ededed;}</style></defs><g id="Calque_4"><path class="cls-3" d="M5.02,224.17H31.52v8.27c0,3.35-1.99,6.41-5.1,7.64-1.98,.78-4.63,1.37-8.14,1.37-3.51,0-6.17-.59-8.14-1.37-3.11-1.23-5.1-4.3-5.1-7.64v-8.27Z"/><path class="cls-4" d="M29.29,231.19H7.25c-3.75,0-6.78-3.04-6.78-6.78V111.24c0-5.79,.67-11.56,2.01-17.2L23.57,4.88c.68-2.86,3.23-4.88,6.17-4.88h0c3.5,0,6.34,2.84,6.34,6.34V224.41c0,3.75-3.04,6.78-6.78,6.78Z"/><g><path class="cls-1" d="M8.93,78.96L25.64,1.52h0c.28-.24,.58-.46,.9-.64l.02-.02c.32-.19,.66-.35,1.02-.48h0L13.54,85.75c-1.4,8.5-2.16,17.1-2.28,25.72l-1.58,119.72h-2.44c-1.38,0-2.66-.41-3.73-1.12l1.54-116.97c.15-11.48,1.45-22.91,3.87-34.13Z"/><polygon class="cls-1" points="25.64 1.52 25.64 1.52 25.64 1.52 25.64 1.52"/></g><rect class="cls-3" x=".64" y="102.51" width="35.44" height="5.37" transform="translate(36.71 210.38) rotate(-180)"/><rect class="cls-2" x="0" y="101.75" width="36.74" height="5.37" transform="translate(36.74 208.86) rotate(-180)"/><rect class="cls-3" x=".47" y="211.94" width="35.61" height="5.37" transform="translate(36.54 429.25) rotate(-180)"/><rect class="cls-2" x="0" y="211.18" width="36.74" height="5.37" transform="translate(36.74 427.73) rotate(-180)"/><polygon class="cls-3" points="5.13 82.8 36.08 85.91 36.08 80.54 6.37 77.55 5.13 82.8"/><polygon class="cls-2" points="4.19 82.15 36.74 85.42 36.74 80.05 5.47 76.91 4.19 82.15"/></g></svg>