<svg xmlns="http://www.w3.org/2000/svg" width="818.626" height="1278.007" viewBox="0 0 818.626 1278.007">
  <path id="Tracé_40" data-name="Tracé 40" d="M563.909,1342.9c3.807-2.72,68.535-142.51,68.535-142.51s47.866-144.142,48.41-145.774-4.9-59.832-4.9-59.832,100.083-.544,102.8,0,116.945-33.724,116.945-33.724l-11.423-49.5-19.038,8.7s-16.862,32.092-18.494,32.636-40.251,9.247-40.251,9.247l-20.126-50.586-109.33,37.531L601.984,757.085l-22.3-50.042s5.983-37.531,4.9-40.251S542.7,635.244,542.7,635.244l59.833,11.422,124.56-11.422,89.749-18.494L790.184,503.069h13.054l-6.527-17.406s32.636-101.171,32.636-102.8-7.071-6.527-7.071-6.527,20.67-105.523,22.3-107.155,18.494-50.586,18.494-50.586L854.912,186.5l-31,3.808L623.741,107.087l7.071-28.828-39.163-7.071,2.72,13.6-66.9,1.088-3.808,14.686s-52.761,23.933-53.849,22.3-18.494-17.95-18.494-17.95V85.874l-9.791-8.7-56.025,4.9L363.742,67.38l-70.167,57.657-23.933,87.029V326.291L283.24,366s20.669,3.808,21.757,5.439,16.862,36.987,16.862,36.987l-8.7,5.983,7.615,44.058-6.527,6.527,20.125,32.092-3.264,91.38,5.983.544,5.439,33.724L183.157,670.6l10.335,48.41,16.318,27.74,18.494,7.071-13.054,20.125-7.071,1.088-3.263,134.9s6.527,3.808,4.9,5.983-60.92,60.92-60.92,60.92l8.159,64.184-77.782,18.494v16.862l28.284,15.774,2.176,14.142,78.326,49.5,31,1.088,66.9-21.213,2.176,19.037,18.494-.544-1.088,16.318,87.029-5.439,6.527-9.791,24.477-7.615,11.966,47.322,44.058,16.318,29.372-8.159,25.565,117.49Z" transform="translate(-78.266 -66.134)" fill="none" stroke="#fff" stroke-width="2"/>
</svg>
