<svg xmlns="http://www.w3.org/2000/svg" width="86.231" height="137.314" viewBox="0 0 86.231 137.314">
  <g id="Groupe_832" data-name="Groupe 832" transform="translate(-1555.559 -427.352)">
    <path id="Tracé_42" data-name="Tracé 42" d="M842.837,1613.862c0,6.546-16.649,11.853-37.186,11.853s-37.186-5.307-37.186-11.853,16.649-11.855,37.186-11.855,37.186,5.308,37.186,11.855" transform="translate(791.829 -1061.049)" fill="#0052ec"/>
    <path id="Tracé_43" data-name="Tracé 43" d="M802.875,1393.147h0c-33.359,0-54.042,36.3-37.032,65l37.032,62.474,37.033-62.474c17.01-28.7-3.673-65-37.033-65m0,56.742a17.54,17.54,0,1,1,17.541-17.54,17.541,17.541,0,0,1-17.541,17.54" transform="translate(795.799 -965.795)" fill="#ec0025"/>
  </g>
</svg>
