<svg xmlns="http://www.w3.org/2000/svg" xmlns:xlink="http://www.w3.org/1999/xlink" width="47.54" height="54.828" viewBox="0 0 47.54 54.828">
  <defs>
    <clipPath id="clip-path">
      <rect id="Rectangle_46" data-name="Rectangle 46" width="28.304" height="46.999" fill="none"/>
    </clipPath>
  </defs>
  <g id="Groupe_52" data-name="Groupe 52" transform="matrix(0.875, 0.485, -0.485, 0.875, 22.786, 0)">
    <g id="Groupe_51" data-name="Groupe 51" clip-path="url(#clip-path)">
      <path id="Tracé_62" data-name="Tracé 62" d="M0,1.487A1.405,1.405,0,0,1,1.487,0H26.772a1.546,1.546,0,0,1,1.041,2.677l-7.139,6.1,6.991,6.1a1.47,1.47,0,0,1-.892,2.677H2.976V45.512A1.405,1.405,0,0,1,1.488,47,1.491,1.491,0,0,1,0,45.512V1.487ZM2.974,2.975v11.6H22.756L17.4,9.965a1.548,1.548,0,0,1,0-2.38l5.354-4.611H2.974Z" fill="#fff"/>
    </g>
  </g>
</svg>
