<?xml version="1.0" encoding="utf-8"?>
<!-- Generator: Adobe Illustrator 26.3.1, SVG Export Plug-In . SVG Version: 6.00 Build 0)  -->
<svg version="1.1" id="Calque_1" xmlns="http://www.w3.org/2000/svg" xmlns:xlink="http://www.w3.org/1999/xlink" x="0px" y="0px"
	 viewBox="0 0 1042.4 335.3" style="enable-background:new 0 0 1042.4 335.3;" xml:space="preserve">
<style type="text/css">
	.st0{fill:#999998;}
	.st1{fill:#27231F;}
	.st2{fill:none;stroke:#999998;stroke-width:9;stroke-miterlimit:10;}
	.st3{fill:#CECECC;}
	.st4{fill:#BBBBBA;}
	.st5{fill:#322C29;}
	.st6{fill:#999999;}
	.st7{fill:#163545;}
	.st8{fill:#ADADAC;}
	.st9{fill:#C7493F;}
	.st10{fill:#FDF467;}
	.st11{fill:#4D9B8D;}
	.st12{fill:#2A231F;}
	.st13{fill:#898888;}
	.st14{fill:none;stroke:#C7493F;stroke-width:4;stroke-linecap:round;stroke-linejoin:round;}
	.st15{fill:none;stroke:#CECECC;stroke-width:4;stroke-linecap:round;stroke-linejoin:round;}
	.st16{fill:none;stroke:#999998;stroke-width:6;stroke-linecap:round;stroke-linejoin:round;}
	.st17{fill:none;stroke:#285060;stroke-width:2;stroke-linecap:round;stroke-linejoin:round;}
</style>
<rect id="Rectangle_322" x="329.4" y="40.4" class="st0" width="39.7" height="17.3"/>
<g>
	<path id="Tracé_2179" class="st1" d="M177,258.5c0,41,33.2,74.2,74.2,74.2c41,0,74.2-33.2,74.2-74.2s-33.2-74.2-74.2-74.2
		S177,217.5,177,258.5L177,258.5"/>
	<path id="Tracé_2180" class="st1" d="M183,258.5c0,37.7,30.6,68.2,68.2,68.2c37.7,0,68.2-30.6,68.2-68.2s-30.6-68.2-68.2-68.2l0,0
		C213.5,190.3,183,220.8,183,258.5"/>
	<path id="Tracé_2166" class="st2" d="M313,55.7c0,0-36.5-41.9-150.1,12.8"/>
	<path id="Tracé_2167" class="st2" d="M313,68.7c0,0-36.5-41.9-150.1,12.8"/>
	<rect id="Rectangle_323" x="27.4" y="251.1" class="st1" width="53" height="11"/>
	<path id="Tracé_2168" class="st3" d="M322.4,49.5l-126.9,21V88l133.9-20.2L322.4,49.5z"/>
	<path id="Tracé_2169" class="st1" d="M733,258.5c0,41,33.2,74.2,74.2,74.2c41,0,74.2-33.2,74.2-74.2s-33.2-74.2-74.2-74.2l0,0
		C766.2,184.3,733,217.5,733,258.5"/>
	<path id="Tracé_2170" class="st1" d="M739,258.5c0,37.7,30.6,68.2,68.2,68.2c37.7,0,68.2-30.6,68.2-68.2s-30.6-68.2-68.2-68.2l0,0
		C769.5,190.3,739,220.8,739,258.5"/>
	<path id="Tracé_2189" class="st1" d="M317.5,293.7H145.9l-45.5-72.4l70.5-72.1h177.4L317.5,293.7z"/>
	<path id="Rectangle_356" class="st4" d="M130.2,0h23.1c3.1,0,5.7,2.5,5.7,5.7v67.7c0,3.1-2.5,5.7-5.7,5.7h-23.1
		c-3.1,0-5.7-2.5-5.7-5.7V5.7C124.5,2.5,127.1,0,130.2,0C130.2,0,130.2,0,130.2,0z"/>
	<path id="Tracé_2190" class="st5" d="M28.8,20.1l-9.3,57.6l4.6,52.2l39.5,8l118.6-37.5L28.8,20.1z"/>
	<rect id="Rectangle_357" x="112.5" y="61.9" class="st5" width="58.5" height="52.1"/>
	<rect id="Rectangle_358" x="147" y="70.5" class="st1" width="5.3" height="20.8"/>
	<rect id="Rectangle_359" x="136.4" y="70.5" class="st1" width="5.3" height="20.8"/>
	<rect id="Rectangle_360" x="126.1" y="70.5" class="st1" width="5.3" height="20.8"/>
	<rect id="Rectangle_361" x="159" y="70.5" class="st4" width="36.5" height="25"/>
	<path id="Tracé_2191" class="st1" d="M10.4,22L0,86.5L5.2,145l44.2,9l132.9-42L10.4,22z"/>
	<rect id="Rectangle_362" x="983.4" y="209.5" class="st4" width="50" height="23.5"/>
	<rect id="Rectangle_363" x="983.4" y="204.3" class="st6" width="59" height="8.8"/>
	<rect id="Rectangle_364" x="983.4" y="224.2" class="st6" width="59" height="8.8"/>
	<path id="Tracé_2192" class="st3" d="M709.4,130.1l288,31.4l-333-15.4L709.4,130.1z"/>
	<path id="Tracé_2193" class="st7" d="M709.4,130.1L555,58.7l-27.6-9.2v26.6l172,70L709.4,130.1z"/>
	<path id="Tracé_2194" class="st3" d="M995.7,164.3l18.7,3.3l24,36.7h-47.7L995.7,164.3z"/>
	<path id="Tracé_2195" class="st1" d="M915.4,263v23h107v-11.5h-15V250l35-10v-9h-127V263z"/>
	<rect id="Rectangle_365" x="139.9" y="167.6" class="st1" width="193.9" height="90.9"/>
	<path id="Tracé_2196" class="st1" d="M721.5,167.6h203.9l-10,118.4L741,293.7L721.5,167.6z"/>
	<path id="Tracé_2197" class="st1" d="M753,258.5c0,41,33.2,74.2,74.2,74.2c41,0,74.2-33.2,74.2-74.2s-33.2-74.2-74.2-74.2l0,0
		C786.2,184.3,753,217.5,753,258.5"/>
	<path id="Tracé_2217" class="st4" d="M20.4,126.5c55-27,302-69,302-69v-8h205l173,87l297,25v81l-69.1,16h-14.8
		c0-47.6-38.6-86.2-86.2-86.2S741,210.9,741,258.5H317.5c0-47.6-38.6-86.2-86.3-86.2c-47.6,0-86.2,38.6-86.2,86.2h-8.6l-88-20v-54
		h-38L20.4,126.5z"/>
	<path id="Tracé_2218" class="st8" d="M49.4,188.3l109.6,2l-21,53.2l-89.6-24.4L49.4,188.3z"/>
	<path id="Tracé_2219" class="st8" d="M737.3,235.6l-5,22.9h-408l-14.7-45.8L737.3,235.6z"/>
	<rect id="Rectangle_398" x="269.2" y="137.9" class="st1" width="6.2" height="29.6"/>
	<rect id="Rectangle_399" x="427.9" y="188.3" class="st3" width="28" height="9.4"/>
	<rect id="Rectangle_400" x="299.5" y="182.7" class="st1" width="469.6" height="7"/>
	<rect id="Rectangle_401" x="317.5" y="257" class="st1" width="423.5" height="36.7"/>
	<path id="Tracé_2220" class="st1" d="M145.9,293.7l-118.5-53v-28l118.5,33V293.7z"/>
	<path id="Tracé_2221" class="st1" d="M8.4,182.7l5,40l36,20v-60H8.4z"/>
	<rect id="Rectangle_402" x="40.4" y="182.7" class="st1" width="130.6" height="7"/>
	<rect id="Rectangle_403" x="58" y="182.7" class="st9" width="51.2" height="7.6"/>
	<path id="Tracé_2222" class="st4" d="M105.7,179.9l-14,19.6l-29.3-5.6l12.9-22.5L105.7,179.9z"/>
	<path id="Tracé_2223" class="st3" d="M317.5,258.5c0-47.6-38.6-86.2-86.3-86.2c-47.6,0-86.2,38.6-86.2,86.2h-8.6l-6.2-1.4
		c0.4-55.8,46-100.7,101.8-100.2c55.7,0.4,100.6,45.9,100.2,101.7H317.5L317.5,258.5z"/>
	<path id="Tracé_2224" class="st3" d="M913.4,258.5c0-47.6-38.6-86.2-86.2-86.2S741,210.9,741,258.5h-8.6l-6.2-1.4
		c0.4-55.8,46-100.7,101.8-100.2c55.7,0.4,100.6,45.9,100.2,101.6H913.4L913.4,258.5z"/>
	<path id="Tracé_2225" class="st7" d="M379.4,67.8v67l278,6v-6l-130-67H379.4z"/>
	<rect id="Rectangle_404" x="979.9" y="204.3" class="st6" width="17.5" height="26.4"/>
	<rect id="Rectangle_405" x="928.2" y="204.3" class="st5" width="51.6" height="26.4"/>
	<rect id="Rectangle_406" x="937.7" y="204.3" class="st6" width="32.6" height="20"/>
	<rect id="Rectangle_407" x="943.1" y="213" class="st10" width="21.9" height="5.9"/>
	<rect id="Rectangle_408" x="943.1" y="193.4" class="st5" width="10.9" height="10.8"/>
	<rect id="Rectangle_409" x="932.3" y="198.9" class="st5" width="5.5" height="5.4"/>
	<path id="Tracé_2226" class="st5" d="M1007.4,274.5h-53.3l53.3-13.1V274.5z"/>
	<path id="Tracé_2227" class="st1" d="M313,70.5l-15.3,61.3h-206v-14L313,70.5z"/>
	<rect id="Rectangle_410" x="226" y="97.8" class="st5" width="63" height="28.5"/>
	<rect id="Rectangle_411" x="19.5" y="57.7" class="st10" width="29.9" height="25.5"/>
	<path id="Tracé_2228" class="st3" d="M49.4,115.7v67h-41l12-56.2L49.4,115.7z"/>
	<path id="Tracé_2229" class="st11" d="M157.8,112c0,1.8,2,3.2,4.5,3.2h127.5c2.5,0,4.5-1.4,4.5-3.2s-2-3.2-4.5-3.2H162.3
		C159.8,108.8,157.8,110.2,157.8,112"/>
	<path id="Tracé_2230" class="st11" d="M157.8,123.1c0,1.8,2,3.2,4.5,3.2h127.5c2.5,0,4.5-1.4,4.5-3.2s-2-3.2-4.5-3.2H162.3
		C159.8,119.9,157.8,121.4,157.8,123.1"/>
	<path id="Tracé_2231" class="st5" d="M124.5,11.6c0,0,41.7,35,0,35V11.6z"/>
	<path id="Tracé_2232" class="st5" d="M147,10.1c0,1.5,1.2,2.7,2.7,2.7s2.7-1.2,2.7-2.7s-1.2-2.7-2.7-2.7
		C148.2,7.4,147,8.6,147,10.1C147,10.1,147,10.1,147,10.1"/>
	<path id="Tracé_2233" class="st4" d="M124.5,49.5H159l12,12.4h-58.5L124.5,49.5z"/>
	<path id="Tracé_2234" class="st12" d="M700.4,136.5l-43,122l-2.7,0L699,135.8L700.4,136.5z"/>
	<rect id="Rectangle_412" x="361.5" y="49.5" class="st12" width="1.9" height="86.3"/>
	<path id="Tracé_2235" class="st12" d="M363.4,135.8l83.4,122l-2.3,0.3l-83-122.4H363.4z"/>
	<path id="Tracé_2236" class="st5" d="M628.9,120.1l-7.2,19.9l35.7,0.8v-6L628.9,120.1z"/>
	<rect id="Rectangle_413" x="236.9" y="95.4" class="st9" width="9.8" height="13.4"/>
	<rect id="Rectangle_414" x="265.1" y="95.4" class="st9" width="4.9" height="13.4"/>
	<path id="Tracé_2237" class="st5" d="M109.2,114.1l-17.5,3.7v14h17.5V114.1z"/>
	<path id="Tracé_2238" class="st5" d="M335.4,67.8h-6l-16.3,64l12.9,1.9l11.5-7.4L335.4,67.8z"/>
	<path id="Tracé_2239" class="st13" d="M379.4,278.1c0,2.9,2.3,5.2,5.2,5.2c0,0,0,0,0,0h310.5c2.9,0,5.2-2.4,5.2-5.2
		s-2.4-5.2-5.2-5.2H384.6C381.7,272.8,379.4,275.2,379.4,278.1"/>
	<rect id="Rectangle_415" x="607.9" y="130.5" class="st1" width="16.5" height="14.3"/>
	<path id="Tracé_2240" class="st1" d="M591.4,130.2c0,3.1,2.5,5.7,5.7,5.7l0,0h26.7c3.1,0,5.7-2.5,5.7-5.7v-11.1
		c0-3.1-2.5-5.7-5.7-5.7l-26.7-3c-3.1,0-5.7,2.5-5.7,5.7c0,0,0,0,0,0V130.2z"/>
	<path id="Tracé_2241" class="st1" d="M105.7,266.5l-26.1,20l-24.7-20l14.7-17.3L105.7,266.5z"/>
	<path id="Tracé_2242" class="st14" d="M272.4,166.2c0,0,59.8,24,59.8,92.3c0,0-5.9,19.6,47.1,19.6"/>
	<path id="Tracé_2243" class="st15" d="M357.4,49.5v95.3c0,0-1,12.6-18,12.6H157c0,0-26.3-2.8-47.7,18.7S63,256.6,63,256.6"/>
	<path id="Tracé_2244" class="st15" d="M337.4,49.5v72.3c0,0-1,12.6-18,12.6H137c0,0-26.3-2.8-47.7,18.7s-50.5,92.7-50.5,92.7"/>
	<path id="Rectangle_416" class="st3" d="M326.5,31.6h47.2c3.1,0,5.7,2.5,5.7,5.7v0.7c0,3.1-2.5,5.7-5.7,5.7h-47.2
		c-3.1,0-5.7-2.5-5.7-5.7v-0.7C320.9,34.2,323.4,31.6,326.5,31.6C326.5,31.6,326.5,31.6,326.5,31.6z"/>
	<path id="Tracé_2245" class="st16" d="M294.3,95.4c0,0-27.9-23-87.9,6.7s-100.6-9.5-100.6-9.5"/>
	<path id="Tracé_2246" class="st16" d="M294.3,85.4c0,0-27.9-23-87.9,6.7s-100.6-9.5-100.6-9.5"/>
	<path id="Tracé_2247" class="st16" d="M948.6,198.9c0,0,5.6-12.4-20.3-12.4s-62.2-29-101-29s-101,30-101,99.6c0,0-0.8,21-25.8,21"
		/>
	<path id="Tracé_2248" class="st1" d="M379.4,101.1c0,0,20.6-1.7,24.7,9.3c4.8,12.7,9.3,25.1,9.3,25.1l-34-0.7V101.1z"/>
	<path id="Tracé_2249" class="st17" d="M426.2,135.8c0,0,12.2-31.5,28.8-31.5h66.7l48.3,34.6"/>
	<path id="Tracé_2250" class="st16" d="M928.2,209.5c0,0-11.5,0.8-11.5,7.5s11.5,7.2,11.5,7.2"/>
</g>
</svg>
