<svg xmlns="http://www.w3.org/2000/svg" xmlns:xlink="http://www.w3.org/1999/xlink" width="192.578" height="37.184" viewBox="0 0 192.578 37.184">
  <defs>
    <clipPath id="clip-path">
      <rect id="Rectangle_10" data-name="Rectangle 10" width="192.577" height="37.184" fill="none"/>
    </clipPath>
  </defs>
  <g id="Groupe_125" data-name="Groupe 125" transform="translate(192.578 37.184) rotate(180)">
    <g id="Groupe_12" data-name="Groupe 12" clip-path="url(#clip-path)">
      <path id="Tracé_21" data-name="Tracé 21" d="M160.515,37.184c-10.96,0-16.287-8.809-20.589-15.877-4-6.658-6.761-10.756-11.575-10.756s-7.478,4.1-11.575,10.756c-4.3,7.068-9.526,15.877-20.589,15.877S79.9,28.374,75.6,21.307c-4-6.658-6.761-10.756-11.575-10.756s-7.478,4.1-11.575,10.756c-4.3,7.068-9.526,15.877-20.589,15.877S15.57,28.374,11.268,21.307C7.478,14.648,4.814,10.551,0,10.551V0C10.961,0,16.287,8.809,20.59,15.878c3.995,6.658,6.658,10.755,11.473,10.755s7.478-4.1,11.575-10.755C47.94,8.809,53.164,0,64.227,0c10.96,0,16.287,8.809,20.589,15.878,4,6.658,6.658,10.755,11.473,10.755s7.478-4.1,11.575-10.755C112.064,8.809,117.39,0,128.351,0s16.287,8.809,20.589,15.878c3.995,6.658,6.761,10.755,11.575,10.755s7.478-4.1,11.575-10.755C176.29,8.809,181.617,0,192.577,0V10.551c-4.814,0-7.478,4.1-11.575,10.756-4.2,7.068-9.526,15.877-20.487,15.877" fill="#fff"/>
    </g>
  </g>
</svg>
